%TF.GenerationSoftware,KiCad,Pcbnew,(5.1.6)-1*%
%TF.CreationDate,2020-07-29T01:03:22-03:00*%
%TF.ProjectId,placa_desenvolvimento,706c6163-615f-4646-9573-656e766f6c76,rev?*%
%TF.SameCoordinates,Original*%
%TF.FileFunction,Legend,Top*%
%TF.FilePolarity,Positive*%
%FSLAX46Y46*%
G04 Gerber Fmt 4.6, Leading zero omitted, Abs format (unit mm)*
G04 Created by KiCad (PCBNEW (5.1.6)-1) date 2020-07-29 01:03:22*
%MOMM*%
%LPD*%
G01*
G04 APERTURE LIST*
%ADD10C,0.100000*%
%ADD11C,0.200000*%
%ADD12C,0.150000*%
%ADD13C,0.300000*%
%ADD14C,0.120000*%
%ADD15C,0.400000*%
%ADD16C,0.127000*%
%ADD17C,0.203200*%
%ADD18C,0.015000*%
%ADD19C,0.050000*%
G04 APERTURE END LIST*
D10*
X55645428Y-54373428D02*
X55645428Y-53773428D01*
X55845428Y-53773428D02*
X56188285Y-53773428D01*
X56016857Y-54373428D02*
X56016857Y-53773428D01*
X56359714Y-54202000D02*
X56645428Y-54202000D01*
X56302571Y-54373428D02*
X56502571Y-53773428D01*
X56702571Y-54373428D01*
X57188285Y-54373428D02*
X56902571Y-54373428D01*
X56902571Y-53773428D01*
X57502571Y-53773428D02*
X57616857Y-53773428D01*
X57674000Y-53802000D01*
X57731142Y-53859142D01*
X57759714Y-53973428D01*
X57759714Y-54173428D01*
X57731142Y-54287714D01*
X57674000Y-54344857D01*
X57616857Y-54373428D01*
X57502571Y-54373428D01*
X57445428Y-54344857D01*
X57388285Y-54287714D01*
X57359714Y-54173428D01*
X57359714Y-53973428D01*
X57388285Y-53859142D01*
X57445428Y-53802000D01*
X57502571Y-53773428D01*
X58674000Y-54059142D02*
X58759714Y-54087714D01*
X58788285Y-54116285D01*
X58816857Y-54173428D01*
X58816857Y-54259142D01*
X58788285Y-54316285D01*
X58759714Y-54344857D01*
X58702571Y-54373428D01*
X58474000Y-54373428D01*
X58474000Y-53773428D01*
X58674000Y-53773428D01*
X58731142Y-53802000D01*
X58759714Y-53830571D01*
X58788285Y-53887714D01*
X58788285Y-53944857D01*
X58759714Y-54002000D01*
X58731142Y-54030571D01*
X58674000Y-54059142D01*
X58474000Y-54059142D01*
X59045428Y-54202000D02*
X59331142Y-54202000D01*
X58988285Y-54373428D02*
X59188285Y-53773428D01*
X59388285Y-54373428D01*
X59931142Y-54373428D02*
X59731142Y-54087714D01*
X59588285Y-54373428D02*
X59588285Y-53773428D01*
X59816857Y-53773428D01*
X59874000Y-53802000D01*
X59902571Y-53830571D01*
X59931142Y-53887714D01*
X59931142Y-53973428D01*
X59902571Y-54030571D01*
X59874000Y-54059142D01*
X59816857Y-54087714D01*
X59588285Y-54087714D01*
X60531142Y-54373428D02*
X60331142Y-54087714D01*
X60188285Y-54373428D02*
X60188285Y-53773428D01*
X60416857Y-53773428D01*
X60474000Y-53802000D01*
X60502571Y-53830571D01*
X60531142Y-53887714D01*
X60531142Y-53973428D01*
X60502571Y-54030571D01*
X60474000Y-54059142D01*
X60416857Y-54087714D01*
X60188285Y-54087714D01*
X60902571Y-53773428D02*
X61016857Y-53773428D01*
X61074000Y-53802000D01*
X61131142Y-53859142D01*
X61159714Y-53973428D01*
X61159714Y-54173428D01*
X61131142Y-54287714D01*
X61074000Y-54344857D01*
X61016857Y-54373428D01*
X60902571Y-54373428D01*
X60845428Y-54344857D01*
X60788285Y-54287714D01*
X60759714Y-54173428D01*
X60759714Y-53973428D01*
X60788285Y-53859142D01*
X60845428Y-53802000D01*
X60902571Y-53773428D01*
X61388285Y-54344857D02*
X61474000Y-54373428D01*
X61616857Y-54373428D01*
X61674000Y-54344857D01*
X61702571Y-54316285D01*
X61731142Y-54259142D01*
X61731142Y-54202000D01*
X61702571Y-54144857D01*
X61674000Y-54116285D01*
X61616857Y-54087714D01*
X61502571Y-54059142D01*
X61445428Y-54030571D01*
X61416857Y-54002000D01*
X61388285Y-53944857D01*
X61388285Y-53887714D01*
X61416857Y-53830571D01*
X61445428Y-53802000D01*
X61502571Y-53773428D01*
X61645428Y-53773428D01*
X61731142Y-53802000D01*
D11*
X49873999Y-52809714D02*
X50045428Y-52866857D01*
X50331142Y-52866857D01*
X50445428Y-52809714D01*
X50502571Y-52752571D01*
X50559714Y-52638285D01*
X50559714Y-52524000D01*
X50502571Y-52409714D01*
X50445428Y-52352571D01*
X50331142Y-52295428D01*
X50102571Y-52238285D01*
X49988285Y-52181142D01*
X49931142Y-52124000D01*
X49873999Y-52009714D01*
X49873999Y-51895428D01*
X49931142Y-51781142D01*
X49988285Y-51724000D01*
X50102571Y-51666857D01*
X50388285Y-51666857D01*
X50559714Y-51724000D01*
X51073999Y-52866857D02*
X51073999Y-51666857D01*
X51588285Y-52866857D02*
X51588285Y-52238285D01*
X51531142Y-52124000D01*
X51416857Y-52066857D01*
X51245428Y-52066857D01*
X51131142Y-52124000D01*
X51073999Y-52181142D01*
X52159714Y-52866857D02*
X52159714Y-52066857D01*
X52159714Y-51666857D02*
X52102571Y-51724000D01*
X52159714Y-51781142D01*
X52216857Y-51724000D01*
X52159714Y-51666857D01*
X52159714Y-51781142D01*
X53188285Y-52809714D02*
X53073999Y-52866857D01*
X52845428Y-52866857D01*
X52731142Y-52809714D01*
X52673999Y-52695428D01*
X52673999Y-52238285D01*
X52731142Y-52124000D01*
X52845428Y-52066857D01*
X53073999Y-52066857D01*
X53188285Y-52124000D01*
X53245428Y-52238285D01*
X53245428Y-52352571D01*
X52673999Y-52466857D01*
X53931142Y-52866857D02*
X53816857Y-52809714D01*
X53759714Y-52695428D01*
X53759714Y-51666857D01*
X54902571Y-52866857D02*
X54902571Y-51666857D01*
X54902571Y-52809714D02*
X54788285Y-52866857D01*
X54559714Y-52866857D01*
X54445428Y-52809714D01*
X54388285Y-52752571D01*
X54331142Y-52638285D01*
X54331142Y-52295428D01*
X54388285Y-52181142D01*
X54445428Y-52124000D01*
X54559714Y-52066857D01*
X54788285Y-52066857D01*
X54902571Y-52124000D01*
X55188285Y-52981142D02*
X56102571Y-52981142D01*
X56388285Y-52866857D02*
X56388285Y-51666857D01*
X57073999Y-52866857D01*
X57073999Y-51666857D01*
X57873999Y-51666857D02*
X58102571Y-51666857D01*
X58216857Y-51724000D01*
X58331142Y-51838285D01*
X58388285Y-52066857D01*
X58388285Y-52466857D01*
X58331142Y-52695428D01*
X58216857Y-52809714D01*
X58102571Y-52866857D01*
X57873999Y-52866857D01*
X57759714Y-52809714D01*
X57645428Y-52695428D01*
X57588285Y-52466857D01*
X57588285Y-52066857D01*
X57645428Y-51838285D01*
X57759714Y-51724000D01*
X57873999Y-51666857D01*
X58902571Y-52866857D02*
X58902571Y-51666857D01*
X59188285Y-51666857D01*
X59359714Y-51724000D01*
X59473999Y-51838285D01*
X59531142Y-51952571D01*
X59588285Y-52181142D01*
X59588285Y-52352571D01*
X59531142Y-52581142D01*
X59473999Y-52695428D01*
X59359714Y-52809714D01*
X59188285Y-52866857D01*
X58902571Y-52866857D01*
X60102571Y-52238285D02*
X60502571Y-52238285D01*
X60673999Y-52866857D02*
X60102571Y-52866857D01*
X60102571Y-51666857D01*
X60673999Y-51666857D01*
X61188285Y-52866857D02*
X61188285Y-51666857D01*
X61588285Y-52524000D01*
X61988285Y-51666857D01*
X61988285Y-52866857D01*
X63245428Y-52752571D02*
X63188285Y-52809714D01*
X63016857Y-52866857D01*
X62902571Y-52866857D01*
X62731142Y-52809714D01*
X62616857Y-52695428D01*
X62559714Y-52581142D01*
X62502571Y-52352571D01*
X62502571Y-52181142D01*
X62559714Y-51952571D01*
X62616857Y-51838285D01*
X62731142Y-51724000D01*
X62902571Y-51666857D01*
X63016857Y-51666857D01*
X63188285Y-51724000D01*
X63245428Y-51781142D01*
X63759714Y-51666857D02*
X63759714Y-52638285D01*
X63816857Y-52752571D01*
X63873999Y-52809714D01*
X63988285Y-52866857D01*
X64216857Y-52866857D01*
X64331142Y-52809714D01*
X64388285Y-52752571D01*
X64445428Y-52638285D01*
X64445428Y-51666857D01*
X64731142Y-52981142D02*
X65645428Y-52981142D01*
X65816857Y-52066857D02*
X66102571Y-52866857D01*
X66388285Y-52066857D01*
X67474000Y-52866857D02*
X66788285Y-52866857D01*
X67131142Y-52866857D02*
X67131142Y-51666857D01*
X67016857Y-51838285D01*
X66902571Y-51952571D01*
X66788285Y-52009714D01*
D12*
X58086666Y-45553380D02*
X58705714Y-45553380D01*
X58372380Y-45934333D01*
X58515238Y-45934333D01*
X58610476Y-45981952D01*
X58658095Y-46029571D01*
X58705714Y-46124809D01*
X58705714Y-46362904D01*
X58658095Y-46458142D01*
X58610476Y-46505761D01*
X58515238Y-46553380D01*
X58229523Y-46553380D01*
X58134285Y-46505761D01*
X58086666Y-46458142D01*
D13*
X53749000Y-35730571D02*
X53749000Y-34230571D01*
X54320428Y-34230571D01*
X54463285Y-34302000D01*
X54534714Y-34373428D01*
X54606142Y-34516285D01*
X54606142Y-34730571D01*
X54534714Y-34873428D01*
X54463285Y-34944857D01*
X54320428Y-35016285D01*
X53749000Y-35016285D01*
X55534714Y-34230571D02*
X55820428Y-34230571D01*
X55963285Y-34302000D01*
X56106142Y-34444857D01*
X56177571Y-34730571D01*
X56177571Y-35230571D01*
X56106142Y-35516285D01*
X55963285Y-35659142D01*
X55820428Y-35730571D01*
X55534714Y-35730571D01*
X55391857Y-35659142D01*
X55249000Y-35516285D01*
X55177571Y-35230571D01*
X55177571Y-34730571D01*
X55249000Y-34444857D01*
X55391857Y-34302000D01*
X55534714Y-34230571D01*
X56606142Y-34230571D02*
X57463285Y-34230571D01*
X57034714Y-35730571D02*
X57034714Y-34230571D01*
D12*
X17279952Y-58713619D02*
X17184714Y-58666000D01*
X17089476Y-58570761D01*
X16946619Y-58427904D01*
X16851380Y-58380285D01*
X16756142Y-58380285D01*
X16803761Y-58618380D02*
X16708523Y-58570761D01*
X16613285Y-58475523D01*
X16565666Y-58285047D01*
X16565666Y-57951714D01*
X16613285Y-57761238D01*
X16708523Y-57666000D01*
X16803761Y-57618380D01*
X16994238Y-57618380D01*
X17089476Y-57666000D01*
X17184714Y-57761238D01*
X17232333Y-57951714D01*
X17232333Y-58285047D01*
X17184714Y-58475523D01*
X17089476Y-58570761D01*
X16994238Y-58618380D01*
X16803761Y-58618380D01*
X18232333Y-58523142D02*
X18184714Y-58570761D01*
X18041857Y-58618380D01*
X17946619Y-58618380D01*
X17803761Y-58570761D01*
X17708523Y-58475523D01*
X17660904Y-58380285D01*
X17613285Y-58189809D01*
X17613285Y-58046952D01*
X17660904Y-57856476D01*
X17708523Y-57761238D01*
X17803761Y-57666000D01*
X17946619Y-57618380D01*
X18041857Y-57618380D01*
X18184714Y-57666000D01*
X18232333Y-57713619D01*
X58340666Y-36917380D02*
X58959714Y-36917380D01*
X58626380Y-37298333D01*
X58769238Y-37298333D01*
X58864476Y-37345952D01*
X58912095Y-37393571D01*
X58959714Y-37488809D01*
X58959714Y-37726904D01*
X58912095Y-37822142D01*
X58864476Y-37869761D01*
X58769238Y-37917380D01*
X58483523Y-37917380D01*
X58388285Y-37869761D01*
X58340666Y-37822142D01*
X61690285Y-45648619D02*
X61737904Y-45601000D01*
X61833142Y-45553380D01*
X62071238Y-45553380D01*
X62166476Y-45601000D01*
X62214095Y-45648619D01*
X62261714Y-45743857D01*
X62261714Y-45839095D01*
X62214095Y-45981952D01*
X61642666Y-46553380D01*
X62261714Y-46553380D01*
X65436714Y-46553380D02*
X64865285Y-46553380D01*
X65151000Y-46553380D02*
X65151000Y-45553380D01*
X65055761Y-45696238D01*
X64960523Y-45791476D01*
X64865285Y-45839095D01*
X58959714Y-77414380D02*
X58388285Y-77414380D01*
X58674000Y-77414380D02*
X58674000Y-76414380D01*
X58578761Y-76557238D01*
X58483523Y-76652476D01*
X58388285Y-76700095D01*
X65452666Y-76541380D02*
X66071714Y-76541380D01*
X65738380Y-76922333D01*
X65881238Y-76922333D01*
X65976476Y-76969952D01*
X66024095Y-77017571D01*
X66071714Y-77112809D01*
X66071714Y-77350904D01*
X66024095Y-77446142D01*
X65976476Y-77493761D01*
X65881238Y-77541380D01*
X65595523Y-77541380D01*
X65500285Y-77493761D01*
X65452666Y-77446142D01*
X17145095Y-50173000D02*
X17049857Y-50125380D01*
X16907000Y-50125380D01*
X16764142Y-50173000D01*
X16668904Y-50268238D01*
X16621285Y-50363476D01*
X16573666Y-50553952D01*
X16573666Y-50696809D01*
X16621285Y-50887285D01*
X16668904Y-50982523D01*
X16764142Y-51077761D01*
X16907000Y-51125380D01*
X17002238Y-51125380D01*
X17145095Y-51077761D01*
X17192714Y-51030142D01*
X17192714Y-50696809D01*
X17002238Y-50696809D01*
X17621285Y-51125380D02*
X17621285Y-50125380D01*
X18192714Y-51125380D01*
X18192714Y-50125380D01*
X18668904Y-51125380D02*
X18668904Y-50125380D01*
X18907000Y-50125380D01*
X19049857Y-50173000D01*
X19145095Y-50268238D01*
X19192714Y-50363476D01*
X19240333Y-50553952D01*
X19240333Y-50696809D01*
X19192714Y-50887285D01*
X19145095Y-50982523D01*
X19049857Y-51077761D01*
X18907000Y-51125380D01*
X18668904Y-51125380D01*
X41433904Y-40981380D02*
X42052952Y-40981380D01*
X41719619Y-41362333D01*
X41862476Y-41362333D01*
X41957714Y-41409952D01*
X42005333Y-41457571D01*
X42052952Y-41552809D01*
X42052952Y-41790904D01*
X42005333Y-41886142D01*
X41957714Y-41933761D01*
X41862476Y-41981380D01*
X41576761Y-41981380D01*
X41481523Y-41933761D01*
X41433904Y-41886142D01*
X42338666Y-40981380D02*
X42672000Y-41981380D01*
X43005333Y-40981380D01*
X43243428Y-40981380D02*
X43862476Y-40981380D01*
X43529142Y-41362333D01*
X43672000Y-41362333D01*
X43767238Y-41409952D01*
X43814857Y-41457571D01*
X43862476Y-41552809D01*
X43862476Y-41790904D01*
X43814857Y-41886142D01*
X43767238Y-41933761D01*
X43672000Y-41981380D01*
X43386285Y-41981380D01*
X43291047Y-41933761D01*
X43243428Y-41886142D01*
X45275523Y-40981380D02*
X44799333Y-40981380D01*
X44751714Y-41457571D01*
X44799333Y-41409952D01*
X44894571Y-41362333D01*
X45132666Y-41362333D01*
X45227904Y-41409952D01*
X45275523Y-41457571D01*
X45323142Y-41552809D01*
X45323142Y-41790904D01*
X45275523Y-41886142D01*
X45227904Y-41933761D01*
X45132666Y-41981380D01*
X44894571Y-41981380D01*
X44799333Y-41933761D01*
X44751714Y-41886142D01*
X45608857Y-40981380D02*
X45942190Y-41981380D01*
X46275523Y-40981380D01*
X39814523Y-40981380D02*
X39338333Y-40981380D01*
X39290714Y-41457571D01*
X39338333Y-41409952D01*
X39433571Y-41362333D01*
X39671666Y-41362333D01*
X39766904Y-41409952D01*
X39814523Y-41457571D01*
X39862142Y-41552809D01*
X39862142Y-41790904D01*
X39814523Y-41886142D01*
X39766904Y-41933761D01*
X39671666Y-41981380D01*
X39433571Y-41981380D01*
X39338333Y-41933761D01*
X39290714Y-41886142D01*
X40147857Y-40981380D02*
X40481190Y-41981380D01*
X40814523Y-40981380D01*
X35972904Y-40981380D02*
X36591952Y-40981380D01*
X36258619Y-41362333D01*
X36401476Y-41362333D01*
X36496714Y-41409952D01*
X36544333Y-41457571D01*
X36591952Y-41552809D01*
X36591952Y-41790904D01*
X36544333Y-41886142D01*
X36496714Y-41933761D01*
X36401476Y-41981380D01*
X36115761Y-41981380D01*
X36020523Y-41933761D01*
X35972904Y-41886142D01*
X36877666Y-40981380D02*
X37211000Y-41981380D01*
X37544333Y-40981380D01*
X37782428Y-40981380D02*
X38401476Y-40981380D01*
X38068142Y-41362333D01*
X38211000Y-41362333D01*
X38306238Y-41409952D01*
X38353857Y-41457571D01*
X38401476Y-41552809D01*
X38401476Y-41790904D01*
X38353857Y-41886142D01*
X38306238Y-41933761D01*
X38211000Y-41981380D01*
X37925285Y-41981380D01*
X37830047Y-41933761D01*
X37782428Y-41886142D01*
X44839000Y-50672904D02*
X44791380Y-50768142D01*
X44791380Y-50911000D01*
X44839000Y-51053857D01*
X44934238Y-51149095D01*
X45029476Y-51196714D01*
X45219952Y-51244333D01*
X45362809Y-51244333D01*
X45553285Y-51196714D01*
X45648523Y-51149095D01*
X45743761Y-51053857D01*
X45791380Y-50911000D01*
X45791380Y-50815761D01*
X45743761Y-50672904D01*
X45696142Y-50625285D01*
X45362809Y-50625285D01*
X45362809Y-50815761D01*
X45791380Y-50196714D02*
X44791380Y-50196714D01*
X45791380Y-49625285D01*
X44791380Y-49625285D01*
X45791380Y-49149095D02*
X44791380Y-49149095D01*
X44791380Y-48911000D01*
X44839000Y-48768142D01*
X44934238Y-48672904D01*
X45029476Y-48625285D01*
X45219952Y-48577666D01*
X45362809Y-48577666D01*
X45553285Y-48625285D01*
X45648523Y-48672904D01*
X45743761Y-48768142D01*
X45791380Y-48911000D01*
X45791380Y-49149095D01*
X42299000Y-50672904D02*
X42251380Y-50768142D01*
X42251380Y-50911000D01*
X42299000Y-51053857D01*
X42394238Y-51149095D01*
X42489476Y-51196714D01*
X42679952Y-51244333D01*
X42822809Y-51244333D01*
X43013285Y-51196714D01*
X43108523Y-51149095D01*
X43203761Y-51053857D01*
X43251380Y-50911000D01*
X43251380Y-50815761D01*
X43203761Y-50672904D01*
X43156142Y-50625285D01*
X42822809Y-50625285D01*
X42822809Y-50815761D01*
X43251380Y-50196714D02*
X42251380Y-50196714D01*
X43251380Y-49625285D01*
X42251380Y-49625285D01*
X43251380Y-49149095D02*
X42251380Y-49149095D01*
X42251380Y-48911000D01*
X42299000Y-48768142D01*
X42394238Y-48672904D01*
X42489476Y-48625285D01*
X42679952Y-48577666D01*
X42822809Y-48577666D01*
X43013285Y-48625285D01*
X43108523Y-48672904D01*
X43203761Y-48768142D01*
X43251380Y-48911000D01*
X43251380Y-49149095D01*
X39759000Y-50672904D02*
X39711380Y-50768142D01*
X39711380Y-50911000D01*
X39759000Y-51053857D01*
X39854238Y-51149095D01*
X39949476Y-51196714D01*
X40139952Y-51244333D01*
X40282809Y-51244333D01*
X40473285Y-51196714D01*
X40568523Y-51149095D01*
X40663761Y-51053857D01*
X40711380Y-50911000D01*
X40711380Y-50815761D01*
X40663761Y-50672904D01*
X40616142Y-50625285D01*
X40282809Y-50625285D01*
X40282809Y-50815761D01*
X40711380Y-50196714D02*
X39711380Y-50196714D01*
X40711380Y-49625285D01*
X39711380Y-49625285D01*
X40711380Y-49149095D02*
X39711380Y-49149095D01*
X39711380Y-48911000D01*
X39759000Y-48768142D01*
X39854238Y-48672904D01*
X39949476Y-48625285D01*
X40139952Y-48577666D01*
X40282809Y-48577666D01*
X40473285Y-48625285D01*
X40568523Y-48672904D01*
X40663761Y-48768142D01*
X40711380Y-48911000D01*
X40711380Y-49149095D01*
X37092000Y-50545904D02*
X37044380Y-50641142D01*
X37044380Y-50784000D01*
X37092000Y-50926857D01*
X37187238Y-51022095D01*
X37282476Y-51069714D01*
X37472952Y-51117333D01*
X37615809Y-51117333D01*
X37806285Y-51069714D01*
X37901523Y-51022095D01*
X37996761Y-50926857D01*
X38044380Y-50784000D01*
X38044380Y-50688761D01*
X37996761Y-50545904D01*
X37949142Y-50498285D01*
X37615809Y-50498285D01*
X37615809Y-50688761D01*
X38044380Y-50069714D02*
X37044380Y-50069714D01*
X38044380Y-49498285D01*
X37044380Y-49498285D01*
X38044380Y-49022095D02*
X37044380Y-49022095D01*
X37044380Y-48784000D01*
X37092000Y-48641142D01*
X37187238Y-48545904D01*
X37282476Y-48498285D01*
X37472952Y-48450666D01*
X37615809Y-48450666D01*
X37806285Y-48498285D01*
X37901523Y-48545904D01*
X37996761Y-48641142D01*
X38044380Y-48784000D01*
X38044380Y-49022095D01*
X17351380Y-53760619D02*
X17256142Y-53713000D01*
X17160904Y-53617761D01*
X17018047Y-53474904D01*
X16922809Y-53427285D01*
X16827571Y-53427285D01*
X16875190Y-53665380D02*
X16779952Y-53617761D01*
X16684714Y-53522523D01*
X16637095Y-53332047D01*
X16637095Y-52998714D01*
X16684714Y-52808238D01*
X16779952Y-52713000D01*
X16875190Y-52665380D01*
X17065666Y-52665380D01*
X17160904Y-52713000D01*
X17256142Y-52808238D01*
X17303761Y-52998714D01*
X17303761Y-53332047D01*
X17256142Y-53522523D01*
X17160904Y-53617761D01*
X17065666Y-53665380D01*
X16875190Y-53665380D01*
X17684714Y-53379666D02*
X18160904Y-53379666D01*
X17589476Y-53665380D02*
X17922809Y-52665380D01*
X18256142Y-53665380D01*
X17279952Y-56173619D02*
X17184714Y-56126000D01*
X17089476Y-56030761D01*
X16946619Y-55887904D01*
X16851380Y-55840285D01*
X16756142Y-55840285D01*
X16803761Y-56078380D02*
X16708523Y-56030761D01*
X16613285Y-55935523D01*
X16565666Y-55745047D01*
X16565666Y-55411714D01*
X16613285Y-55221238D01*
X16708523Y-55126000D01*
X16803761Y-55078380D01*
X16994238Y-55078380D01*
X17089476Y-55126000D01*
X17184714Y-55221238D01*
X17232333Y-55411714D01*
X17232333Y-55745047D01*
X17184714Y-55935523D01*
X17089476Y-56030761D01*
X16994238Y-56078380D01*
X16803761Y-56078380D01*
X17994238Y-55554571D02*
X18137095Y-55602190D01*
X18184714Y-55649809D01*
X18232333Y-55745047D01*
X18232333Y-55887904D01*
X18184714Y-55983142D01*
X18137095Y-56030761D01*
X18041857Y-56078380D01*
X17660904Y-56078380D01*
X17660904Y-55078380D01*
X17994238Y-55078380D01*
X18089476Y-55126000D01*
X18137095Y-55173619D01*
X18184714Y-55268857D01*
X18184714Y-55364095D01*
X18137095Y-55459333D01*
X18089476Y-55506952D01*
X17994238Y-55554571D01*
X17660904Y-55554571D01*
X17279952Y-61126619D02*
X17184714Y-61079000D01*
X17089476Y-60983761D01*
X16946619Y-60840904D01*
X16851380Y-60793285D01*
X16756142Y-60793285D01*
X16803761Y-61031380D02*
X16708523Y-60983761D01*
X16613285Y-60888523D01*
X16565666Y-60698047D01*
X16565666Y-60364714D01*
X16613285Y-60174238D01*
X16708523Y-60079000D01*
X16803761Y-60031380D01*
X16994238Y-60031380D01*
X17089476Y-60079000D01*
X17184714Y-60174238D01*
X17232333Y-60364714D01*
X17232333Y-60698047D01*
X17184714Y-60888523D01*
X17089476Y-60983761D01*
X16994238Y-61031380D01*
X16803761Y-61031380D01*
X17660904Y-61031380D02*
X17660904Y-60031380D01*
X17899000Y-60031380D01*
X18041857Y-60079000D01*
X18137095Y-60174238D01*
X18184714Y-60269476D01*
X18232333Y-60459952D01*
X18232333Y-60602809D01*
X18184714Y-60793285D01*
X18137095Y-60888523D01*
X18041857Y-60983761D01*
X17899000Y-61031380D01*
X17660904Y-61031380D01*
X17200571Y-63666619D02*
X17105333Y-63619000D01*
X17010095Y-63523761D01*
X16867238Y-63380904D01*
X16772000Y-63333285D01*
X16676761Y-63333285D01*
X16724380Y-63571380D02*
X16629142Y-63523761D01*
X16533904Y-63428523D01*
X16486285Y-63238047D01*
X16486285Y-62904714D01*
X16533904Y-62714238D01*
X16629142Y-62619000D01*
X16724380Y-62571380D01*
X16914857Y-62571380D01*
X17010095Y-62619000D01*
X17105333Y-62714238D01*
X17152952Y-62904714D01*
X17152952Y-63238047D01*
X17105333Y-63428523D01*
X17010095Y-63523761D01*
X16914857Y-63571380D01*
X16724380Y-63571380D01*
X17581523Y-63047571D02*
X17914857Y-63047571D01*
X18057714Y-63571380D02*
X17581523Y-63571380D01*
X17581523Y-62571380D01*
X18057714Y-62571380D01*
X17351380Y-66333619D02*
X17256142Y-66286000D01*
X17160904Y-66190761D01*
X17018047Y-66047904D01*
X16922809Y-66000285D01*
X16827571Y-66000285D01*
X16875190Y-66238380D02*
X16779952Y-66190761D01*
X16684714Y-66095523D01*
X16637095Y-65905047D01*
X16637095Y-65571714D01*
X16684714Y-65381238D01*
X16779952Y-65286000D01*
X16875190Y-65238380D01*
X17065666Y-65238380D01*
X17160904Y-65286000D01*
X17256142Y-65381238D01*
X17303761Y-65571714D01*
X17303761Y-65905047D01*
X17256142Y-66095523D01*
X17160904Y-66190761D01*
X17065666Y-66238380D01*
X16875190Y-66238380D01*
X18065666Y-65714571D02*
X17732333Y-65714571D01*
X17732333Y-66238380D02*
X17732333Y-65238380D01*
X18208523Y-65238380D01*
X17279952Y-68873619D02*
X17184714Y-68826000D01*
X17089476Y-68730761D01*
X16946619Y-68587904D01*
X16851380Y-68540285D01*
X16756142Y-68540285D01*
X16803761Y-68778380D02*
X16708523Y-68730761D01*
X16613285Y-68635523D01*
X16565666Y-68445047D01*
X16565666Y-68111714D01*
X16613285Y-67921238D01*
X16708523Y-67826000D01*
X16803761Y-67778380D01*
X16994238Y-67778380D01*
X17089476Y-67826000D01*
X17184714Y-67921238D01*
X17232333Y-68111714D01*
X17232333Y-68445047D01*
X17184714Y-68635523D01*
X17089476Y-68730761D01*
X16994238Y-68778380D01*
X16803761Y-68778380D01*
X18184714Y-67826000D02*
X18089476Y-67778380D01*
X17946619Y-67778380D01*
X17803761Y-67826000D01*
X17708523Y-67921238D01*
X17660904Y-68016476D01*
X17613285Y-68206952D01*
X17613285Y-68349809D01*
X17660904Y-68540285D01*
X17708523Y-68635523D01*
X17803761Y-68730761D01*
X17946619Y-68778380D01*
X18041857Y-68778380D01*
X18184714Y-68730761D01*
X18232333Y-68683142D01*
X18232333Y-68349809D01*
X18041857Y-68349809D01*
X17256142Y-71413619D02*
X17160904Y-71366000D01*
X17065666Y-71270761D01*
X16922809Y-71127904D01*
X16827571Y-71080285D01*
X16732333Y-71080285D01*
X16779952Y-71318380D02*
X16684714Y-71270761D01*
X16589476Y-71175523D01*
X16541857Y-70985047D01*
X16541857Y-70651714D01*
X16589476Y-70461238D01*
X16684714Y-70366000D01*
X16779952Y-70318380D01*
X16970428Y-70318380D01*
X17065666Y-70366000D01*
X17160904Y-70461238D01*
X17208523Y-70651714D01*
X17208523Y-70985047D01*
X17160904Y-71175523D01*
X17065666Y-71270761D01*
X16970428Y-71318380D01*
X16779952Y-71318380D01*
X17637095Y-71318380D02*
X17637095Y-70318380D01*
X17637095Y-70794571D02*
X18208523Y-70794571D01*
X18208523Y-71318380D02*
X18208523Y-70318380D01*
X17081523Y-72985380D02*
X16605333Y-72985380D01*
X16557714Y-73461571D01*
X16605333Y-73413952D01*
X16700571Y-73366333D01*
X16938666Y-73366333D01*
X17033904Y-73413952D01*
X17081523Y-73461571D01*
X17129142Y-73556809D01*
X17129142Y-73794904D01*
X17081523Y-73890142D01*
X17033904Y-73937761D01*
X16938666Y-73985380D01*
X16700571Y-73985380D01*
X16605333Y-73937761D01*
X16557714Y-73890142D01*
X17414857Y-72985380D02*
X17748190Y-73985380D01*
X18081523Y-72985380D01*
X16510095Y-78319380D02*
X17081523Y-78319380D01*
X16795809Y-79319380D02*
X16795809Y-78319380D01*
X17319619Y-78319380D02*
X17986285Y-79319380D01*
X17986285Y-78319380D02*
X17319619Y-79319380D01*
X17105333Y-81859380D02*
X16772000Y-81383190D01*
X16533904Y-81859380D02*
X16533904Y-80859380D01*
X16914857Y-80859380D01*
X17010095Y-80907000D01*
X17057714Y-80954619D01*
X17105333Y-81049857D01*
X17105333Y-81192714D01*
X17057714Y-81287952D01*
X17010095Y-81335571D01*
X16914857Y-81383190D01*
X16533904Y-81383190D01*
X17438666Y-80859380D02*
X18105333Y-81859380D01*
X18105333Y-80859380D02*
X17438666Y-81859380D01*
X16470571Y-89177761D02*
X16613428Y-89225380D01*
X16851523Y-89225380D01*
X16946761Y-89177761D01*
X16994380Y-89130142D01*
X17042000Y-89034904D01*
X17042000Y-88939666D01*
X16994380Y-88844428D01*
X16946761Y-88796809D01*
X16851523Y-88749190D01*
X16661047Y-88701571D01*
X16565809Y-88653952D01*
X16518190Y-88606333D01*
X16470571Y-88511095D01*
X16470571Y-88415857D01*
X16518190Y-88320619D01*
X16565809Y-88273000D01*
X16661047Y-88225380D01*
X16899142Y-88225380D01*
X17042000Y-88273000D01*
X17470571Y-89225380D02*
X17470571Y-88225380D01*
X17708666Y-88225380D01*
X17851523Y-88273000D01*
X17946761Y-88368238D01*
X17994380Y-88463476D01*
X18042000Y-88653952D01*
X18042000Y-88796809D01*
X17994380Y-88987285D01*
X17946761Y-89082523D01*
X17851523Y-89177761D01*
X17708666Y-89225380D01*
X17470571Y-89225380D01*
X18232476Y-89320619D02*
X18994380Y-89320619D01*
X19708666Y-88225380D02*
X19232476Y-88225380D01*
X19184857Y-88701571D01*
X19232476Y-88653952D01*
X19327714Y-88606333D01*
X19565809Y-88606333D01*
X19661047Y-88653952D01*
X19708666Y-88701571D01*
X19756285Y-88796809D01*
X19756285Y-89034904D01*
X19708666Y-89130142D01*
X19661047Y-89177761D01*
X19565809Y-89225380D01*
X19327714Y-89225380D01*
X19232476Y-89177761D01*
X19184857Y-89130142D01*
X20042000Y-88225380D02*
X20375333Y-89225380D01*
X20708666Y-88225380D01*
X16533904Y-91892380D02*
X16533904Y-90892380D01*
X16772000Y-90892380D01*
X16914857Y-90940000D01*
X17010095Y-91035238D01*
X17057714Y-91130476D01*
X17105333Y-91320952D01*
X17105333Y-91463809D01*
X17057714Y-91654285D01*
X17010095Y-91749523D01*
X16914857Y-91844761D01*
X16772000Y-91892380D01*
X16533904Y-91892380D01*
X17438666Y-90892380D02*
X18105333Y-90892380D01*
X17676761Y-91892380D01*
X16660904Y-97099380D02*
X16660904Y-96099380D01*
X16899000Y-96099380D01*
X17041857Y-96147000D01*
X17137095Y-96242238D01*
X17184714Y-96337476D01*
X17232333Y-96527952D01*
X17232333Y-96670809D01*
X17184714Y-96861285D01*
X17137095Y-96956523D01*
X17041857Y-97051761D01*
X16899000Y-97099380D01*
X16660904Y-97099380D01*
X17851380Y-96099380D02*
X17946619Y-96099380D01*
X18041857Y-96147000D01*
X18089476Y-96194619D01*
X18137095Y-96289857D01*
X18184714Y-96480333D01*
X18184714Y-96718428D01*
X18137095Y-96908904D01*
X18089476Y-97004142D01*
X18041857Y-97051761D01*
X17946619Y-97099380D01*
X17851380Y-97099380D01*
X17756142Y-97051761D01*
X17708523Y-97004142D01*
X17660904Y-96908904D01*
X17613285Y-96718428D01*
X17613285Y-96480333D01*
X17660904Y-96289857D01*
X17708523Y-96194619D01*
X17756142Y-96147000D01*
X17851380Y-96099380D01*
X16533904Y-94559380D02*
X16533904Y-93559380D01*
X16772000Y-93559380D01*
X16914857Y-93607000D01*
X17010095Y-93702238D01*
X17057714Y-93797476D01*
X17105333Y-93987952D01*
X17105333Y-94130809D01*
X17057714Y-94321285D01*
X17010095Y-94416523D01*
X16914857Y-94511761D01*
X16772000Y-94559380D01*
X16533904Y-94559380D01*
X17962476Y-93892714D02*
X17962476Y-94559380D01*
X17724380Y-93511761D02*
X17486285Y-94226047D01*
X18105333Y-94226047D01*
X48728380Y-65095380D02*
X48395047Y-64619190D01*
X48156952Y-65095380D02*
X48156952Y-64095380D01*
X48537904Y-64095380D01*
X48633142Y-64143000D01*
X48680761Y-64190619D01*
X48728380Y-64285857D01*
X48728380Y-64428714D01*
X48680761Y-64523952D01*
X48633142Y-64571571D01*
X48537904Y-64619190D01*
X48156952Y-64619190D01*
X49109333Y-65047761D02*
X49252190Y-65095380D01*
X49490285Y-65095380D01*
X49585523Y-65047761D01*
X49633142Y-65000142D01*
X49680761Y-64904904D01*
X49680761Y-64809666D01*
X49633142Y-64714428D01*
X49585523Y-64666809D01*
X49490285Y-64619190D01*
X49299809Y-64571571D01*
X49204571Y-64523952D01*
X49156952Y-64476333D01*
X49109333Y-64381095D01*
X49109333Y-64285857D01*
X49156952Y-64190619D01*
X49204571Y-64143000D01*
X49299809Y-64095380D01*
X49537904Y-64095380D01*
X49680761Y-64143000D01*
X49966476Y-64095380D02*
X50537904Y-64095380D01*
X50252190Y-65095380D02*
X50252190Y-64095380D01*
X48537904Y-67111571D02*
X48871238Y-67111571D01*
X49014095Y-67635380D02*
X48537904Y-67635380D01*
X48537904Y-66635380D01*
X49014095Y-66635380D01*
X49442666Y-67635380D02*
X49442666Y-66635380D01*
X50014095Y-67635380D01*
X50014095Y-66635380D01*
X61944285Y-76573619D02*
X61991904Y-76526000D01*
X62087142Y-76478380D01*
X62325238Y-76478380D01*
X62420476Y-76526000D01*
X62468095Y-76573619D01*
X62515714Y-76668857D01*
X62515714Y-76764095D01*
X62468095Y-76906952D01*
X61896666Y-77478380D01*
X62515714Y-77478380D01*
D13*
X53895857Y-97294000D02*
X53753000Y-97222571D01*
X53538714Y-97222571D01*
X53324428Y-97294000D01*
X53181571Y-97436857D01*
X53110142Y-97579714D01*
X53038714Y-97865428D01*
X53038714Y-98079714D01*
X53110142Y-98365428D01*
X53181571Y-98508285D01*
X53324428Y-98651142D01*
X53538714Y-98722571D01*
X53681571Y-98722571D01*
X53895857Y-98651142D01*
X53967285Y-98579714D01*
X53967285Y-98079714D01*
X53681571Y-98079714D01*
X54610142Y-98722571D02*
X54610142Y-97222571D01*
X55467285Y-98722571D01*
X55467285Y-97222571D01*
X56181571Y-98722571D02*
X56181571Y-97222571D01*
X56538714Y-97222571D01*
X56753000Y-97294000D01*
X56895857Y-97436857D01*
X56967285Y-97579714D01*
X57038714Y-97865428D01*
X57038714Y-98079714D01*
X56967285Y-98365428D01*
X56895857Y-98508285D01*
X56753000Y-98651142D01*
X56538714Y-98722571D01*
X56181571Y-98722571D01*
X58467285Y-98722571D02*
X57610142Y-98722571D01*
X58038714Y-98722571D02*
X58038714Y-97222571D01*
X57895857Y-97436857D01*
X57753000Y-97579714D01*
X57610142Y-97651142D01*
X53899857Y-93007571D02*
X53899857Y-91507571D01*
X54471285Y-91507571D01*
X54614142Y-91579000D01*
X54685571Y-91650428D01*
X54757000Y-91793285D01*
X54757000Y-92007571D01*
X54685571Y-92150428D01*
X54614142Y-92221857D01*
X54471285Y-92293285D01*
X53899857Y-92293285D01*
X55257000Y-91507571D02*
X55614142Y-93007571D01*
X55899857Y-91936142D01*
X56185571Y-93007571D01*
X56542714Y-91507571D01*
X57114142Y-93007571D02*
X57114142Y-91507571D01*
X57614142Y-92579000D01*
X58114142Y-91507571D01*
X58114142Y-93007571D01*
X55586428Y-88181571D02*
X54729285Y-88181571D01*
X55157857Y-88181571D02*
X55157857Y-86681571D01*
X55015000Y-86895857D01*
X54872142Y-87038714D01*
X54729285Y-87110142D01*
X56157857Y-86824428D02*
X56229285Y-86753000D01*
X56372142Y-86681571D01*
X56729285Y-86681571D01*
X56872142Y-86753000D01*
X56943571Y-86824428D01*
X57015000Y-86967285D01*
X57015000Y-87110142D01*
X56943571Y-87324428D01*
X56086428Y-88181571D01*
X57015000Y-88181571D01*
X57443571Y-86681571D02*
X57943571Y-88181571D01*
X58443571Y-86681571D01*
D12*
X48680761Y-74779142D02*
X48633142Y-74826761D01*
X48490285Y-74874380D01*
X48395047Y-74874380D01*
X48252190Y-74826761D01*
X48156952Y-74731523D01*
X48109333Y-74636285D01*
X48061714Y-74445809D01*
X48061714Y-74302952D01*
X48109333Y-74112476D01*
X48156952Y-74017238D01*
X48252190Y-73922000D01*
X48395047Y-73874380D01*
X48490285Y-73874380D01*
X48633142Y-73922000D01*
X48680761Y-73969619D01*
X49585523Y-74874380D02*
X49109333Y-74874380D01*
X49109333Y-73874380D01*
X49918857Y-74874380D02*
X49918857Y-73874380D01*
X50490285Y-74874380D02*
X50061714Y-74302952D01*
X50490285Y-73874380D02*
X49918857Y-74445809D01*
X48014095Y-77493761D02*
X48156952Y-77541380D01*
X48395047Y-77541380D01*
X48490285Y-77493761D01*
X48537904Y-77446142D01*
X48585523Y-77350904D01*
X48585523Y-77255666D01*
X48537904Y-77160428D01*
X48490285Y-77112809D01*
X48395047Y-77065190D01*
X48204571Y-77017571D01*
X48109333Y-76969952D01*
X48061714Y-76922333D01*
X48014095Y-76827095D01*
X48014095Y-76731857D01*
X48061714Y-76636619D01*
X48109333Y-76589000D01*
X48204571Y-76541380D01*
X48442666Y-76541380D01*
X48585523Y-76589000D01*
X49014095Y-77541380D02*
X49014095Y-76541380D01*
X49252190Y-76541380D01*
X49395047Y-76589000D01*
X49490285Y-76684238D01*
X49537904Y-76779476D01*
X49585523Y-76969952D01*
X49585523Y-77112809D01*
X49537904Y-77303285D01*
X49490285Y-77398523D01*
X49395047Y-77493761D01*
X49252190Y-77541380D01*
X49014095Y-77541380D01*
X50204571Y-76541380D02*
X50299809Y-76541380D01*
X50395047Y-76589000D01*
X50442666Y-76636619D01*
X50490285Y-76731857D01*
X50537904Y-76922333D01*
X50537904Y-77160428D01*
X50490285Y-77350904D01*
X50442666Y-77446142D01*
X50395047Y-77493761D01*
X50299809Y-77541380D01*
X50204571Y-77541380D01*
X50109333Y-77493761D01*
X50061714Y-77446142D01*
X50014095Y-77350904D01*
X49966476Y-77160428D01*
X49966476Y-76922333D01*
X50014095Y-76731857D01*
X50061714Y-76636619D01*
X50109333Y-76589000D01*
X50204571Y-76541380D01*
X48514095Y-80113142D02*
X48466476Y-80160761D01*
X48323619Y-80208380D01*
X48228380Y-80208380D01*
X48085523Y-80160761D01*
X47990285Y-80065523D01*
X47942666Y-79970285D01*
X47895047Y-79779809D01*
X47895047Y-79636952D01*
X47942666Y-79446476D01*
X47990285Y-79351238D01*
X48085523Y-79256000D01*
X48228380Y-79208380D01*
X48323619Y-79208380D01*
X48466476Y-79256000D01*
X48514095Y-79303619D01*
X48942666Y-80208380D02*
X48942666Y-79208380D01*
X49276000Y-79922666D01*
X49609333Y-79208380D01*
X49609333Y-80208380D01*
X50085523Y-80208380D02*
X50085523Y-79208380D01*
X50323619Y-79208380D01*
X50466476Y-79256000D01*
X50561714Y-79351238D01*
X50609333Y-79446476D01*
X50656952Y-79636952D01*
X50656952Y-79779809D01*
X50609333Y-79970285D01*
X50561714Y-80065523D01*
X50466476Y-80160761D01*
X50323619Y-80208380D01*
X50085523Y-80208380D01*
X48014095Y-82573761D02*
X48156952Y-82621380D01*
X48395047Y-82621380D01*
X48490285Y-82573761D01*
X48537904Y-82526142D01*
X48585523Y-82430904D01*
X48585523Y-82335666D01*
X48537904Y-82240428D01*
X48490285Y-82192809D01*
X48395047Y-82145190D01*
X48204571Y-82097571D01*
X48109333Y-82049952D01*
X48061714Y-82002333D01*
X48014095Y-81907095D01*
X48014095Y-81811857D01*
X48061714Y-81716619D01*
X48109333Y-81669000D01*
X48204571Y-81621380D01*
X48442666Y-81621380D01*
X48585523Y-81669000D01*
X49014095Y-82621380D02*
X49014095Y-81621380D01*
X49252190Y-81621380D01*
X49395047Y-81669000D01*
X49490285Y-81764238D01*
X49537904Y-81859476D01*
X49585523Y-82049952D01*
X49585523Y-82192809D01*
X49537904Y-82383285D01*
X49490285Y-82478523D01*
X49395047Y-82573761D01*
X49252190Y-82621380D01*
X49014095Y-82621380D01*
X50537904Y-82621380D02*
X49966476Y-82621380D01*
X50252190Y-82621380D02*
X50252190Y-81621380D01*
X50156952Y-81764238D01*
X50061714Y-81859476D01*
X49966476Y-81907095D01*
X48014095Y-85113761D02*
X48156952Y-85161380D01*
X48395047Y-85161380D01*
X48490285Y-85113761D01*
X48537904Y-85066142D01*
X48585523Y-84970904D01*
X48585523Y-84875666D01*
X48537904Y-84780428D01*
X48490285Y-84732809D01*
X48395047Y-84685190D01*
X48204571Y-84637571D01*
X48109333Y-84589952D01*
X48061714Y-84542333D01*
X48014095Y-84447095D01*
X48014095Y-84351857D01*
X48061714Y-84256619D01*
X48109333Y-84209000D01*
X48204571Y-84161380D01*
X48442666Y-84161380D01*
X48585523Y-84209000D01*
X49014095Y-85161380D02*
X49014095Y-84161380D01*
X49252190Y-84161380D01*
X49395047Y-84209000D01*
X49490285Y-84304238D01*
X49537904Y-84399476D01*
X49585523Y-84589952D01*
X49585523Y-84732809D01*
X49537904Y-84923285D01*
X49490285Y-85018523D01*
X49395047Y-85113761D01*
X49252190Y-85161380D01*
X49014095Y-85161380D01*
X49966476Y-84256619D02*
X50014095Y-84209000D01*
X50109333Y-84161380D01*
X50347428Y-84161380D01*
X50442666Y-84209000D01*
X50490285Y-84256619D01*
X50537904Y-84351857D01*
X50537904Y-84447095D01*
X50490285Y-84589952D01*
X49918857Y-85161380D01*
X50537904Y-85161380D01*
X48014095Y-87907761D02*
X48156952Y-87955380D01*
X48395047Y-87955380D01*
X48490285Y-87907761D01*
X48537904Y-87860142D01*
X48585523Y-87764904D01*
X48585523Y-87669666D01*
X48537904Y-87574428D01*
X48490285Y-87526809D01*
X48395047Y-87479190D01*
X48204571Y-87431571D01*
X48109333Y-87383952D01*
X48061714Y-87336333D01*
X48014095Y-87241095D01*
X48014095Y-87145857D01*
X48061714Y-87050619D01*
X48109333Y-87003000D01*
X48204571Y-86955380D01*
X48442666Y-86955380D01*
X48585523Y-87003000D01*
X49014095Y-87955380D02*
X49014095Y-86955380D01*
X49252190Y-86955380D01*
X49395047Y-87003000D01*
X49490285Y-87098238D01*
X49537904Y-87193476D01*
X49585523Y-87383952D01*
X49585523Y-87526809D01*
X49537904Y-87717285D01*
X49490285Y-87812523D01*
X49395047Y-87907761D01*
X49252190Y-87955380D01*
X49014095Y-87955380D01*
X49918857Y-86955380D02*
X50537904Y-86955380D01*
X50204571Y-87336333D01*
X50347428Y-87336333D01*
X50442666Y-87383952D01*
X50490285Y-87431571D01*
X50537904Y-87526809D01*
X50537904Y-87764904D01*
X50490285Y-87860142D01*
X50442666Y-87907761D01*
X50347428Y-87955380D01*
X50061714Y-87955380D01*
X49966476Y-87907761D01*
X49918857Y-87860142D01*
D14*
%TO.C,J7*%
X60198000Y-84836000D02*
X60198000Y-100076000D01*
X67818000Y-84836000D02*
X67818000Y-100076000D01*
X61468000Y-84836000D02*
X61468000Y-100076000D01*
X60198000Y-100076000D02*
X67818000Y-100076000D01*
X60198000Y-84836000D02*
X67818000Y-84836000D01*
%TO.C,D2*%
X47326000Y-37140000D02*
X44466000Y-37140000D01*
X47326000Y-39060000D02*
X47326000Y-37140000D01*
X44466000Y-39060000D02*
X47326000Y-39060000D01*
%TO.C,BZ1*%
X25267000Y-38100000D02*
G75*
G03*
X25267000Y-38100000I-6100000J0D01*
G01*
%TO.C,C1*%
X35508000Y-33012748D02*
X35508000Y-33535252D01*
X34088000Y-33012748D02*
X34088000Y-33535252D01*
%TO.C,C2*%
X37390000Y-33012748D02*
X37390000Y-33535252D01*
X38810000Y-33012748D02*
X38810000Y-33535252D01*
%TO.C,C3*%
X36456252Y-37390000D02*
X35933748Y-37390000D01*
X36456252Y-38810000D02*
X35933748Y-38810000D01*
D15*
%TO.C,J1*%
X27505000Y-33750000D02*
G75*
G03*
X27505000Y-33750000I-200000J0D01*
G01*
D16*
X24755000Y-32450000D02*
X22805000Y-32450000D01*
X22805000Y-26200000D02*
X22805000Y-18050000D01*
X31805000Y-32450000D02*
X29955000Y-32450000D01*
X22805000Y-32450000D02*
X22805000Y-31300000D01*
X31805000Y-18050000D02*
X31805000Y-32450000D01*
X22805000Y-18050000D02*
X31805000Y-18050000D01*
D14*
%TO.C,J2*%
X14732000Y-49216000D02*
X16062000Y-49216000D01*
X16062000Y-49216000D02*
X16062000Y-50546000D01*
X16062000Y-51816000D02*
X16062000Y-74736000D01*
X13402000Y-74736000D02*
X16062000Y-74736000D01*
X13402000Y-51816000D02*
X13402000Y-74736000D01*
X13402000Y-51816000D02*
X16062000Y-51816000D01*
%TO.C,J4*%
X52070000Y-63186000D02*
X53400000Y-63186000D01*
X53400000Y-63186000D02*
X53400000Y-64516000D01*
X53400000Y-65786000D02*
X53400000Y-68386000D01*
X50740000Y-68386000D02*
X53400000Y-68386000D01*
X50740000Y-65786000D02*
X50740000Y-68386000D01*
X50740000Y-65786000D02*
X53400000Y-65786000D01*
%TO.C,J5*%
X50867000Y-94869000D02*
X50867000Y-93539000D01*
X50867000Y-93539000D02*
X52197000Y-93539000D01*
X53407000Y-93539000D02*
X53527000Y-93539000D01*
X53407000Y-96199000D02*
X53527000Y-96199000D01*
X53527000Y-96199000D02*
X53527000Y-93539000D01*
%TO.C,J6*%
X16062000Y-80137000D02*
X13402000Y-80137000D01*
X16062000Y-80137000D02*
X16062000Y-77537000D01*
X16062000Y-77537000D02*
X13402000Y-77537000D01*
X13402000Y-80137000D02*
X13402000Y-77537000D01*
X13402000Y-82737000D02*
X13402000Y-81407000D01*
X14732000Y-82737000D02*
X13402000Y-82737000D01*
%TO.C,J8*%
X52197000Y-73219000D02*
X53527000Y-73219000D01*
X53527000Y-73219000D02*
X53527000Y-74549000D01*
X53527000Y-75819000D02*
X53527000Y-88579000D01*
X50867000Y-88579000D02*
X53527000Y-88579000D01*
X50867000Y-75819000D02*
X50867000Y-88579000D01*
X50867000Y-75819000D02*
X53527000Y-75819000D01*
%TO.C,J9*%
X46542000Y-46609000D02*
X46542000Y-47939000D01*
X46542000Y-47939000D02*
X45212000Y-47939000D01*
X46542000Y-45339000D02*
X43942000Y-45339000D01*
X43942000Y-45339000D02*
X43942000Y-47939000D01*
X43942000Y-47939000D02*
X36262000Y-47939000D01*
X36262000Y-42739000D02*
X36262000Y-47939000D01*
X46542000Y-42739000D02*
X36262000Y-42739000D01*
X46542000Y-42739000D02*
X46542000Y-45339000D01*
D11*
%TO.C,Q1*%
X29433000Y-42354000D02*
X28733000Y-42354000D01*
X28733000Y-42354000D02*
X28733000Y-39434000D01*
X28733000Y-39434000D02*
X29433000Y-39434000D01*
X29433000Y-39434000D02*
X29433000Y-42354000D01*
X30783000Y-42444000D02*
X29783000Y-42444000D01*
%TO.C,Q5*%
X37364000Y-79834000D02*
X37364000Y-80834000D01*
X34354000Y-81184000D02*
X37274000Y-81184000D01*
X34354000Y-81884000D02*
X34354000Y-81184000D01*
X37274000Y-81884000D02*
X34354000Y-81884000D01*
X37274000Y-81184000D02*
X37274000Y-81884000D01*
D14*
%TO.C,R1*%
X41917252Y-38810000D02*
X41394748Y-38810000D01*
X41917252Y-37390000D02*
X41394748Y-37390000D01*
%TO.C,R2*%
X30980748Y-36247000D02*
X31503252Y-36247000D01*
X30980748Y-37667000D02*
X31503252Y-37667000D01*
%TO.C,R8*%
X33027252Y-75617000D02*
X32504748Y-75617000D01*
X33027252Y-77037000D02*
X32504748Y-77037000D01*
D16*
%TO.C,U1*%
X41402000Y-28448000D02*
G75*
G03*
X41402000Y-28448000I-127000J0D01*
G01*
D17*
X46228000Y-28854400D02*
X46228000Y-35407600D01*
X42672000Y-28854400D02*
X46228000Y-28854400D01*
X42672000Y-35407600D02*
X42672000Y-28854400D01*
X46228000Y-35407600D02*
X42672000Y-35407600D01*
D11*
%TO.C,U2*%
X48275000Y-95089000D02*
G75*
G03*
X48275000Y-95089000I-100000J0D01*
G01*
D16*
X22225000Y-101219000D02*
X22225000Y-52959000D01*
X47625000Y-101219000D02*
X22225000Y-101219000D01*
X47625000Y-52959000D02*
X22225000Y-52959000D01*
X47625000Y-52959000D02*
X47625000Y-101219000D01*
%TO.C,U601*%
X31735000Y-50260000D02*
X31735000Y-46260000D01*
X21605000Y-50260000D02*
X21605000Y-46260000D01*
D11*
X21725000Y-52705000D02*
G75*
G03*
X21725000Y-52705000I-100000J0D01*
G01*
D14*
%TO.C,C4*%
X63507252Y-38914000D02*
X62984748Y-38914000D01*
X63507252Y-40334000D02*
X62984748Y-40334000D01*
%TO.C,C5*%
X60317748Y-47677000D02*
X60840252Y-47677000D01*
X60317748Y-49097000D02*
X60840252Y-49097000D01*
%TO.C,U3*%
X59998000Y-46831000D02*
X59998000Y-45321000D01*
X63699000Y-46831000D02*
X63699000Y-45321000D01*
X66969000Y-45321000D02*
X56729000Y-45321000D01*
X56729000Y-46831000D02*
X56729000Y-42190000D01*
X66969000Y-46831000D02*
X66969000Y-42190000D01*
X66969000Y-42190000D02*
X56729000Y-42190000D01*
X66969000Y-46831000D02*
X56729000Y-46831000D01*
%TO.C,J3*%
X14732000Y-97850000D02*
X13402000Y-97850000D01*
X13402000Y-97850000D02*
X13402000Y-96520000D01*
X13402000Y-95250000D02*
X13402000Y-87570000D01*
X16062000Y-87570000D02*
X13402000Y-87570000D01*
X16062000Y-95250000D02*
X16062000Y-87570000D01*
X16062000Y-95250000D02*
X13402000Y-95250000D01*
%TO.C,R3*%
X52331252Y-61162000D02*
X51808748Y-61162000D01*
X52331252Y-59742000D02*
X51808748Y-59742000D01*
%TO.C,R4*%
X61139000Y-71493748D02*
X61139000Y-72016252D01*
X62559000Y-71493748D02*
X62559000Y-72016252D01*
%TO.C,U4*%
X63102000Y-56836000D02*
X61452000Y-56836000D01*
X63102000Y-64576000D02*
X63102000Y-56836000D01*
X57802000Y-64576000D02*
X63102000Y-64576000D01*
X57802000Y-56836000D02*
X57802000Y-64576000D01*
X59452000Y-56836000D02*
X57802000Y-56836000D01*
X61452000Y-56836000D02*
G75*
G02*
X59452000Y-56836000I-1000000J0D01*
G01*
%TO.C,Q2*%
X64081000Y-76232000D02*
X64081000Y-77742000D01*
X60380000Y-76232000D02*
X60380000Y-77742000D01*
X57110000Y-77742000D02*
X67350000Y-77742000D01*
X67350000Y-76232000D02*
X67350000Y-80873000D01*
X57110000Y-76232000D02*
X57110000Y-80873000D01*
X57110000Y-80873000D02*
X67350000Y-80873000D01*
X57110000Y-76232000D02*
X67350000Y-76232000D01*
D11*
%TO.C,D1*%
X38660000Y-29083000D02*
G75*
G03*
X38660000Y-29083000I-100000J0D01*
G01*
D16*
X36985000Y-29933000D02*
X34135000Y-29933000D01*
X34135000Y-28233000D02*
X36985000Y-28233000D01*
%TO.C,D3*%
X65747000Y-70584000D02*
X65747000Y-73434000D01*
X64047000Y-73434000D02*
X64047000Y-70584000D01*
D11*
X64997000Y-75009000D02*
G75*
G03*
X64997000Y-75009000I-100000J0D01*
G01*
%TO.C,D4*%
X38629000Y-72390000D02*
G75*
G03*
X38629000Y-72390000I-100000J0D01*
G01*
D16*
X40104000Y-71540000D02*
X42954000Y-71540000D01*
X42954000Y-73240000D02*
X40104000Y-73240000D01*
D14*
%TO.C,C6*%
X62559000Y-35567252D02*
X62559000Y-35044748D01*
X61139000Y-35567252D02*
X61139000Y-35044748D01*
D11*
%TO.C,D5*%
X52043000Y-41227000D02*
G75*
G03*
X52043000Y-41227000I-100000J0D01*
G01*
D16*
X51093000Y-39652000D02*
X51093000Y-36802000D01*
X52793000Y-36802000D02*
X52793000Y-39652000D01*
D15*
%TO.C,J10*%
X55699000Y-33877000D02*
G75*
G03*
X55699000Y-33877000I-200000J0D01*
G01*
D16*
X52949000Y-32577000D02*
X50999000Y-32577000D01*
X50999000Y-26327000D02*
X50999000Y-18177000D01*
X59999000Y-32577000D02*
X58149000Y-32577000D01*
X50999000Y-32577000D02*
X50999000Y-31427000D01*
X59999000Y-18177000D02*
X59999000Y-32577000D01*
X50999000Y-18177000D02*
X59999000Y-18177000D01*
%TO.C,BZ1*%
D12*
X17915047Y-37393571D02*
X18057904Y-37441190D01*
X18105523Y-37488809D01*
X18153142Y-37584047D01*
X18153142Y-37726904D01*
X18105523Y-37822142D01*
X18057904Y-37869761D01*
X17962666Y-37917380D01*
X17581714Y-37917380D01*
X17581714Y-36917380D01*
X17915047Y-36917380D01*
X18010285Y-36965000D01*
X18057904Y-37012619D01*
X18105523Y-37107857D01*
X18105523Y-37203095D01*
X18057904Y-37298333D01*
X18010285Y-37345952D01*
X17915047Y-37393571D01*
X17581714Y-37393571D01*
X18486476Y-36917380D02*
X19153142Y-36917380D01*
X18486476Y-37917380D01*
X19153142Y-37917380D01*
X20057904Y-37917380D02*
X19486476Y-37917380D01*
X19772190Y-37917380D02*
X19772190Y-36917380D01*
X19676952Y-37060238D01*
X19581714Y-37155476D01*
X19486476Y-37203095D01*
X14976047Y-35631428D02*
X15737952Y-35631428D01*
X15357000Y-36012380D02*
X15357000Y-35250476D01*
%TO.C,J1*%
D18*
X19986313Y-29596557D02*
X20701189Y-29596557D01*
X20844164Y-29644215D01*
X20939481Y-29739532D01*
X20987140Y-29882507D01*
X20987140Y-29977824D01*
X20987140Y-28595730D02*
X20987140Y-29167631D01*
X20987140Y-28881680D02*
X19986313Y-28881680D01*
X20129288Y-28976997D01*
X20224605Y-29072314D01*
X20272263Y-29167631D01*
%TO.C,J5*%
D12*
X49093666Y-94321380D02*
X49093666Y-95035666D01*
X49046047Y-95178523D01*
X48950809Y-95273761D01*
X48807952Y-95321380D01*
X48712714Y-95321380D01*
X50046047Y-94321380D02*
X49569857Y-94321380D01*
X49522238Y-94797571D01*
X49569857Y-94749952D01*
X49665095Y-94702333D01*
X49903190Y-94702333D01*
X49998428Y-94749952D01*
X50046047Y-94797571D01*
X50093666Y-94892809D01*
X50093666Y-95130904D01*
X50046047Y-95226142D01*
X49998428Y-95273761D01*
X49903190Y-95321380D01*
X49665095Y-95321380D01*
X49569857Y-95273761D01*
X49522238Y-95226142D01*
%TO.C,J8*%
X51863666Y-71231380D02*
X51863666Y-71945666D01*
X51816047Y-72088523D01*
X51720809Y-72183761D01*
X51577952Y-72231380D01*
X51482714Y-72231380D01*
X52482714Y-71659952D02*
X52387476Y-71612333D01*
X52339857Y-71564714D01*
X52292238Y-71469476D01*
X52292238Y-71421857D01*
X52339857Y-71326619D01*
X52387476Y-71279000D01*
X52482714Y-71231380D01*
X52673190Y-71231380D01*
X52768428Y-71279000D01*
X52816047Y-71326619D01*
X52863666Y-71421857D01*
X52863666Y-71469476D01*
X52816047Y-71564714D01*
X52768428Y-71612333D01*
X52673190Y-71659952D01*
X52482714Y-71659952D01*
X52387476Y-71707571D01*
X52339857Y-71755190D01*
X52292238Y-71850428D01*
X52292238Y-72040904D01*
X52339857Y-72136142D01*
X52387476Y-72183761D01*
X52482714Y-72231380D01*
X52673190Y-72231380D01*
X52768428Y-72183761D01*
X52816047Y-72136142D01*
X52863666Y-72040904D01*
X52863666Y-71850428D01*
X52816047Y-71755190D01*
X52768428Y-71707571D01*
X52673190Y-71659952D01*
%TO.C,U1*%
D10*
X43902199Y-33020156D02*
X44711991Y-33020156D01*
X44807261Y-32972522D01*
X44854895Y-32924887D01*
X44902530Y-32829617D01*
X44902530Y-32639078D01*
X44854895Y-32543808D01*
X44807261Y-32496174D01*
X44711991Y-32448539D01*
X43902199Y-32448539D01*
X44902530Y-31448208D02*
X44902530Y-32019825D01*
X44902530Y-31734017D02*
X43902199Y-31734017D01*
X44045104Y-31829286D01*
X44140373Y-31924556D01*
X44188008Y-32019825D01*
D18*
X39932374Y-30548293D02*
X39962900Y-30517767D01*
X40023952Y-30487241D01*
X40176582Y-30487241D01*
X40237634Y-30517767D01*
X40268160Y-30548293D01*
X40298686Y-30609345D01*
X40298686Y-30670397D01*
X40268160Y-30761975D01*
X39901848Y-31128287D01*
X40298686Y-31128287D01*
X40308249Y-28962876D02*
X39941950Y-28962876D01*
X40125100Y-28962876D02*
X40125100Y-28321854D01*
X40064050Y-28413428D01*
X40003000Y-28474478D01*
X39941950Y-28505003D01*
X47113047Y-33899618D02*
X47113047Y-34326468D01*
X46960600Y-33655703D02*
X46808154Y-34113043D01*
X47204515Y-34113043D01*
X39918488Y-32801349D02*
X40314694Y-32801349D01*
X40101352Y-33045169D01*
X40192784Y-33045169D01*
X40253739Y-33075646D01*
X40284217Y-33106123D01*
X40314694Y-33167078D01*
X40314694Y-33319465D01*
X40284217Y-33380420D01*
X40253739Y-33410898D01*
X40192784Y-33441375D01*
X40009920Y-33441375D01*
X39948965Y-33410898D01*
X39918488Y-33380420D01*
%TO.C,U2*%
D19*
X44123095Y-102176380D02*
X44123095Y-102985904D01*
X44170714Y-103081142D01*
X44218333Y-103128761D01*
X44313571Y-103176380D01*
X44504047Y-103176380D01*
X44599285Y-103128761D01*
X44646904Y-103081142D01*
X44694523Y-102985904D01*
X44694523Y-102176380D01*
X45123095Y-102271619D02*
X45170714Y-102224000D01*
X45265952Y-102176380D01*
X45504047Y-102176380D01*
X45599285Y-102224000D01*
X45646904Y-102271619D01*
X45694523Y-102366857D01*
X45694523Y-102462095D01*
X45646904Y-102604952D01*
X45075476Y-103176380D01*
X45694523Y-103176380D01*
X31059857Y-55062380D02*
X31059857Y-54062380D01*
X31631285Y-55062380D01*
X31631285Y-54062380D01*
X32297952Y-54062380D02*
X32488428Y-54062380D01*
X32583666Y-54110000D01*
X32678904Y-54205238D01*
X32726523Y-54395714D01*
X32726523Y-54729047D01*
X32678904Y-54919523D01*
X32583666Y-55014761D01*
X32488428Y-55062380D01*
X32297952Y-55062380D01*
X32202714Y-55014761D01*
X32107476Y-54919523D01*
X32059857Y-54729047D01*
X32059857Y-54395714D01*
X32107476Y-54205238D01*
X32202714Y-54110000D01*
X32297952Y-54062380D01*
X33155095Y-55062380D02*
X33155095Y-54062380D01*
X33393190Y-54062380D01*
X33536047Y-54110000D01*
X33631285Y-54205238D01*
X33678904Y-54300476D01*
X33726523Y-54490952D01*
X33726523Y-54633809D01*
X33678904Y-54824285D01*
X33631285Y-54919523D01*
X33536047Y-55014761D01*
X33393190Y-55062380D01*
X33155095Y-55062380D01*
X34155095Y-54538571D02*
X34488428Y-54538571D01*
X34631285Y-55062380D02*
X34155095Y-55062380D01*
X34155095Y-54062380D01*
X34631285Y-54062380D01*
X35059857Y-55062380D02*
X35059857Y-54062380D01*
X35393190Y-54776666D01*
X35726523Y-54062380D01*
X35726523Y-55062380D01*
X36774142Y-54967142D02*
X36726523Y-55014761D01*
X36583666Y-55062380D01*
X36488428Y-55062380D01*
X36345571Y-55014761D01*
X36250333Y-54919523D01*
X36202714Y-54824285D01*
X36155095Y-54633809D01*
X36155095Y-54490952D01*
X36202714Y-54300476D01*
X36250333Y-54205238D01*
X36345571Y-54110000D01*
X36488428Y-54062380D01*
X36583666Y-54062380D01*
X36726523Y-54110000D01*
X36774142Y-54157619D01*
X37202714Y-54062380D02*
X37202714Y-54871904D01*
X37250333Y-54967142D01*
X37297952Y-55014761D01*
X37393190Y-55062380D01*
X37583666Y-55062380D01*
X37678904Y-55014761D01*
X37726523Y-54967142D01*
X37774142Y-54871904D01*
X37774142Y-54062380D01*
%TO.C,U601*%
D10*
X23281095Y-47712380D02*
X23947761Y-47712380D01*
X23519190Y-48712380D01*
X24757285Y-48045714D02*
X24757285Y-48712380D01*
X24519190Y-47664761D02*
X24281095Y-48379047D01*
X24900142Y-48379047D01*
X25281095Y-48712380D02*
X25281095Y-47712380D01*
X25281095Y-48188571D02*
X25852523Y-48188571D01*
X25852523Y-48712380D02*
X25852523Y-47712380D01*
X26900142Y-48617142D02*
X26852523Y-48664761D01*
X26709666Y-48712380D01*
X26614428Y-48712380D01*
X26471571Y-48664761D01*
X26376333Y-48569523D01*
X26328714Y-48474285D01*
X26281095Y-48283809D01*
X26281095Y-48140952D01*
X26328714Y-47950476D01*
X26376333Y-47855238D01*
X26471571Y-47760000D01*
X26614428Y-47712380D01*
X26709666Y-47712380D01*
X26852523Y-47760000D01*
X26900142Y-47807619D01*
X27804904Y-47712380D02*
X27328714Y-47712380D01*
X27281095Y-48188571D01*
X27328714Y-48140952D01*
X27423952Y-48093333D01*
X27662047Y-48093333D01*
X27757285Y-48140952D01*
X27804904Y-48188571D01*
X27852523Y-48283809D01*
X27852523Y-48521904D01*
X27804904Y-48617142D01*
X27757285Y-48664761D01*
X27662047Y-48712380D01*
X27423952Y-48712380D01*
X27328714Y-48664761D01*
X27281095Y-48617142D01*
X28328714Y-48712380D02*
X28519190Y-48712380D01*
X28614428Y-48664761D01*
X28662047Y-48617142D01*
X28757285Y-48474285D01*
X28804904Y-48283809D01*
X28804904Y-47902857D01*
X28757285Y-47807619D01*
X28709666Y-47760000D01*
X28614428Y-47712380D01*
X28423952Y-47712380D01*
X28328714Y-47760000D01*
X28281095Y-47807619D01*
X28233476Y-47902857D01*
X28233476Y-48140952D01*
X28281095Y-48236190D01*
X28328714Y-48283809D01*
X28423952Y-48331428D01*
X28614428Y-48331428D01*
X28709666Y-48283809D01*
X28757285Y-48236190D01*
X28804904Y-48140952D01*
X29709666Y-47712380D02*
X29233476Y-47712380D01*
X29185857Y-48188571D01*
X29233476Y-48140952D01*
X29328714Y-48093333D01*
X29566809Y-48093333D01*
X29662047Y-48140952D01*
X29709666Y-48188571D01*
X29757285Y-48283809D01*
X29757285Y-48521904D01*
X29709666Y-48617142D01*
X29662047Y-48664761D01*
X29566809Y-48712380D01*
X29328714Y-48712380D01*
X29233476Y-48664761D01*
X29185857Y-48617142D01*
%TO.C,U4*%
D12*
X59817095Y-60158380D02*
X59817095Y-60967904D01*
X59864714Y-61063142D01*
X59912333Y-61110761D01*
X60007571Y-61158380D01*
X60198047Y-61158380D01*
X60293285Y-61110761D01*
X60340904Y-61063142D01*
X60388523Y-60967904D01*
X60388523Y-60158380D01*
X61293285Y-60491714D02*
X61293285Y-61158380D01*
X61055190Y-60110761D02*
X60817095Y-60825047D01*
X61436142Y-60825047D01*
%TO.C,D1*%
D18*
X36182753Y-30857902D02*
X36182753Y-30377102D01*
X36297230Y-30377102D01*
X36365915Y-30399998D01*
X36411706Y-30445788D01*
X36434601Y-30491578D01*
X36457496Y-30583159D01*
X36457496Y-30651845D01*
X36434601Y-30743426D01*
X36411706Y-30789217D01*
X36365915Y-30835007D01*
X36297230Y-30857902D01*
X36182753Y-30857902D01*
X36915401Y-30857902D02*
X36640658Y-30857902D01*
X36778030Y-30857902D02*
X36778030Y-30377102D01*
X36732239Y-30445788D01*
X36686449Y-30491578D01*
X36640658Y-30514474D01*
%TO.C,D3*%
X63557106Y-73341506D02*
X63076306Y-73341506D01*
X63076306Y-73227030D01*
X63099202Y-73158344D01*
X63144992Y-73112553D01*
X63190782Y-73089658D01*
X63282363Y-73066763D01*
X63351049Y-73066763D01*
X63442630Y-73089658D01*
X63488421Y-73112553D01*
X63534211Y-73158344D01*
X63557106Y-73227030D01*
X63557106Y-73341506D01*
X63076306Y-72906496D02*
X63076306Y-72608858D01*
X63259468Y-72769125D01*
X63259468Y-72700439D01*
X63282363Y-72654649D01*
X63305259Y-72631753D01*
X63351049Y-72608858D01*
X63465525Y-72608858D01*
X63511316Y-72631753D01*
X63534211Y-72654649D01*
X63557106Y-72700439D01*
X63557106Y-72837810D01*
X63534211Y-72883601D01*
X63511316Y-72906496D01*
%TO.C,C6*%
D12*
X60556142Y-35472666D02*
X60603761Y-35520285D01*
X60651380Y-35663142D01*
X60651380Y-35758380D01*
X60603761Y-35901238D01*
X60508523Y-35996476D01*
X60413285Y-36044095D01*
X60222809Y-36091714D01*
X60079952Y-36091714D01*
X59889476Y-36044095D01*
X59794238Y-35996476D01*
X59699000Y-35901238D01*
X59651380Y-35758380D01*
X59651380Y-35663142D01*
X59699000Y-35520285D01*
X59746619Y-35472666D01*
X59651380Y-34615523D02*
X59651380Y-34806000D01*
X59699000Y-34901238D01*
X59746619Y-34948857D01*
X59889476Y-35044095D01*
X60079952Y-35091714D01*
X60460904Y-35091714D01*
X60556142Y-35044095D01*
X60603761Y-34996476D01*
X60651380Y-34901238D01*
X60651380Y-34710761D01*
X60603761Y-34615523D01*
X60556142Y-34567904D01*
X60460904Y-34520285D01*
X60222809Y-34520285D01*
X60127571Y-34567904D01*
X60079952Y-34615523D01*
X60032333Y-34710761D01*
X60032333Y-34901238D01*
X60079952Y-34996476D01*
X60127571Y-35044095D01*
X60222809Y-35091714D01*
%TO.C,D5*%
D18*
X50603106Y-39559506D02*
X50122306Y-39559506D01*
X50122306Y-39445030D01*
X50145202Y-39376344D01*
X50190992Y-39330553D01*
X50236782Y-39307658D01*
X50328363Y-39284763D01*
X50397049Y-39284763D01*
X50488630Y-39307658D01*
X50534421Y-39330553D01*
X50580211Y-39376344D01*
X50603106Y-39445030D01*
X50603106Y-39559506D01*
X50122306Y-38849753D02*
X50122306Y-39078706D01*
X50351259Y-39101601D01*
X50328363Y-39078706D01*
X50305468Y-39032915D01*
X50305468Y-38918439D01*
X50328363Y-38872649D01*
X50351259Y-38849753D01*
X50397049Y-38826858D01*
X50511525Y-38826858D01*
X50557316Y-38849753D01*
X50580211Y-38872649D01*
X50603106Y-38918439D01*
X50603106Y-39032915D01*
X50580211Y-39078706D01*
X50557316Y-39101601D01*
%TO.C,J10*%
X48180313Y-30200141D02*
X48895189Y-30200141D01*
X49038164Y-30247799D01*
X49133481Y-30343116D01*
X49181140Y-30486091D01*
X49181140Y-30581408D01*
X49181140Y-29199314D02*
X49181140Y-29771215D01*
X49181140Y-29485264D02*
X48180313Y-29485264D01*
X48323288Y-29580581D01*
X48418605Y-29675898D01*
X48466263Y-29771215D01*
X48180313Y-28579754D02*
X48180313Y-28484437D01*
X48227971Y-28389121D01*
X48275629Y-28341462D01*
X48370946Y-28293804D01*
X48561580Y-28246145D01*
X48799872Y-28246145D01*
X48990506Y-28293804D01*
X49085823Y-28341462D01*
X49133481Y-28389121D01*
X49181140Y-28484437D01*
X49181140Y-28579754D01*
X49133481Y-28675071D01*
X49085823Y-28722730D01*
X48990506Y-28770388D01*
X48799872Y-28818046D01*
X48561580Y-28818046D01*
X48370946Y-28770388D01*
X48275629Y-28722730D01*
X48227971Y-28675071D01*
X48180313Y-28579754D01*
%TD*%
M02*
