%TF.GenerationSoftware,KiCad,Pcbnew,(5.1.6)-1*%
%TF.CreationDate,2020-07-29T00:16:23-03:00*%
%TF.ProjectId,placa_desenvolvimento,706c6163-615f-4646-9573-656e766f6c76,rev?*%
%TF.SameCoordinates,Original*%
%TF.FileFunction,Soldermask,Bot*%
%TF.FilePolarity,Negative*%
%FSLAX46Y46*%
G04 Gerber Fmt 4.6, Leading zero omitted, Abs format (unit mm)*
G04 Created by KiCad (PCBNEW (5.1.6)-1) date 2020-07-29 00:16:23*
%MOMM*%
%LPD*%
G01*
G04 APERTURE LIST*
%ADD10C,2.300000*%
%ADD11R,3.100000X3.100000*%
%ADD12C,3.100000*%
%ADD13R,2.100000X2.100000*%
%ADD14C,2.100000*%
%ADD15O,2.350000X4.600000*%
%ADD16O,4.600000X2.350000*%
%ADD17O,5.100000X2.600000*%
%ADD18R,1.800000X1.800000*%
%ADD19O,1.800000X1.800000*%
%ADD20R,1.852600X1.852600*%
%ADD21C,1.852600*%
%ADD22C,3.300000*%
%ADD23R,2.005000X2.100000*%
%ADD24O,2.005000X2.100000*%
%ADD25R,1.700000X1.700000*%
%ADD26O,1.700000X1.700000*%
G04 APERTURE END LIST*
D10*
%TO.C,REF\u002A\u002A*%
X65405000Y-29083000D03*
%TD*%
%TO.C,REF\u002A\u002A*%
X57023000Y-95123000D03*
%TD*%
%TO.C,REF\u002A\u002A*%
X19304000Y-93726000D03*
%TD*%
%TO.C,REF\u002A\u002A*%
X16002000Y-28321000D03*
%TD*%
D11*
%TO.C,J7*%
X64008000Y-87376000D03*
D12*
X64008000Y-92456000D03*
X64008000Y-97536000D03*
%TD*%
D13*
%TO.C,BZ1*%
X15367000Y-38100000D03*
D14*
X22967000Y-38100000D03*
%TD*%
D15*
%TO.C,J1*%
X22605000Y-28750000D03*
D16*
X27305000Y-25750000D03*
D17*
X27305000Y-31750000D03*
%TD*%
D18*
%TO.C,J2*%
X14732000Y-50546000D03*
D19*
X14732000Y-53086000D03*
X14732000Y-55626000D03*
X14732000Y-58166000D03*
X14732000Y-60706000D03*
X14732000Y-63246000D03*
X14732000Y-65786000D03*
X14732000Y-68326000D03*
X14732000Y-70866000D03*
X14732000Y-73406000D03*
%TD*%
D18*
%TO.C,J4*%
X52070000Y-64516000D03*
D19*
X52070000Y-67056000D03*
%TD*%
D18*
%TO.C,J5*%
X52197000Y-94869000D03*
%TD*%
D19*
%TO.C,J6*%
X14732000Y-78867000D03*
D18*
X14732000Y-81407000D03*
%TD*%
%TO.C,J8*%
X52197000Y-74549000D03*
D19*
X52197000Y-77089000D03*
X52197000Y-79629000D03*
X52197000Y-82169000D03*
X52197000Y-84709000D03*
X52197000Y-87249000D03*
%TD*%
D18*
%TO.C,J9*%
X45212000Y-46609000D03*
D19*
X45212000Y-44069000D03*
X42672000Y-46609000D03*
X42672000Y-44069000D03*
X40132000Y-46609000D03*
X40132000Y-44069000D03*
X37592000Y-46609000D03*
X37592000Y-44069000D03*
%TD*%
D20*
%TO.C,U2*%
X46355000Y-94869000D03*
D21*
X46355000Y-92329000D03*
X46355000Y-89789000D03*
X46355000Y-87249000D03*
X46355000Y-84709000D03*
X46355000Y-82169000D03*
X46355000Y-79629000D03*
X46355000Y-77089000D03*
X46355000Y-74549000D03*
X46355000Y-72009000D03*
X46355000Y-69469000D03*
X46355000Y-66929000D03*
X46355000Y-64389000D03*
X46355000Y-61849000D03*
X46355000Y-59309000D03*
X23495000Y-94869000D03*
X23495000Y-92329000D03*
X23495000Y-89789000D03*
X23495000Y-87249000D03*
X23495000Y-84709000D03*
X23495000Y-82169000D03*
X23495000Y-79629000D03*
X23495000Y-77089000D03*
X23495000Y-74549000D03*
X23495000Y-72009000D03*
X23495000Y-69469000D03*
X23495000Y-66929000D03*
X23495000Y-64389000D03*
X23495000Y-61849000D03*
X23495000Y-59309000D03*
D22*
X45085000Y-98679000D03*
X24765000Y-98679000D03*
X24765000Y-55499000D03*
X45085000Y-55499000D03*
%TD*%
D23*
%TO.C,U3*%
X64389000Y-43561000D03*
D24*
X61849000Y-43561000D03*
X59309000Y-43561000D03*
%TD*%
D18*
%TO.C,J3*%
X14732000Y-96520000D03*
D19*
X14732000Y-93980000D03*
X14732000Y-91440000D03*
X14732000Y-88900000D03*
%TD*%
D25*
%TO.C,U4*%
X56642000Y-58166000D03*
D26*
X64262000Y-63246000D03*
X56642000Y-60706000D03*
X64262000Y-60706000D03*
X56642000Y-63246000D03*
X64262000Y-58166000D03*
%TD*%
D23*
%TO.C,Q2*%
X59690000Y-79502000D03*
D24*
X62230000Y-79502000D03*
X64770000Y-79502000D03*
%TD*%
D15*
%TO.C,J10*%
X50799000Y-28877000D03*
D16*
X55499000Y-25877000D03*
D17*
X55499000Y-31877000D03*
%TD*%
M02*
