M48
METRIC,TZ
T1C0.400
T2C0.800
T3C0.889
T4C1.000
T5C1.100
T6C1.520
%
G90
G05
T1
X31741Y-76327
X32267Y-36957
X35170Y-38100
X46482Y-38100
X51045Y-60452
T2
X56642Y-58166
X56642Y-60706
X56642Y-63246
X64262Y-58166
X64262Y-60706
X64262Y-63246
T3
X23495Y-59309
X23495Y-61849
X23495Y-64389
X23495Y-66929
X23495Y-69469
X23495Y-72009
X23495Y-74549
X23495Y-77089
X23495Y-79629
X23495Y-82169
X23495Y-84709
X23495Y-87249
X23495Y-89789
X23495Y-92329
X23495Y-94869
X46355Y-59309
X46355Y-61849
X46355Y-64389
X46355Y-66929
X46355Y-69469
X46355Y-72009
X46355Y-74549
X46355Y-77089
X46355Y-79629
X46355Y-82169
X46355Y-84709
X46355Y-87249
X46355Y-89789
X46355Y-92329
X46355Y-94869
T4
X52197Y-94869
X15367Y-38100
X22967Y-38100
X14732Y-88900
X14732Y-91440
X14732Y-93980
X14732Y-96520
X37592Y-44069
X37592Y-46609
X40132Y-44069
X40132Y-46609
X42672Y-44069
X42672Y-46609
X45212Y-44069
X45212Y-46609
X14732Y-78867
X14732Y-81407
X52070Y-64516
X52070Y-67056
X14732Y-50546
X14732Y-53086
X14732Y-55626
X14732Y-58166
X14732Y-60706
X14732Y-63246
X14732Y-65786
X14732Y-68326
X14732Y-70866
X14732Y-73406
X52197Y-74549
X52197Y-77089
X52197Y-79629
X52197Y-82169
X52197Y-84709
X52197Y-87249
T5
X59690Y-79502
X62230Y-79502
X64770Y-79502
X59309Y-43561
X61849Y-43561
X64389Y-43561
T6
X64008Y-87376
X64008Y-92456
X64008Y-97536
T4
G00X50799Y-29877
M15
G01X50799Y-27877
M16
G05
G00X54499Y-25877
M15
G01X56499Y-25877
M16
G05
G00X54249Y-31877
M15
G01X56749Y-31877
M16
G05
G00X22605Y-29750
M15
G01X22605Y-27750
M16
G05
G00X26305Y-25750
M15
G01X28305Y-25750
M16
G05
G00X26055Y-31750
M15
G01X28555Y-31750
M16
G05
T0
M30
