%TF.GenerationSoftware,KiCad,Pcbnew,(5.1.6)-1*%
%TF.CreationDate,2020-07-29T00:16:23-03:00*%
%TF.ProjectId,placa_desenvolvimento,706c6163-615f-4646-9573-656e766f6c76,rev?*%
%TF.SameCoordinates,Original*%
%TF.FileFunction,Soldermask,Top*%
%TF.FilePolarity,Negative*%
%FSLAX46Y46*%
G04 Gerber Fmt 4.6, Leading zero omitted, Abs format (unit mm)*
G04 Created by KiCad (PCBNEW (5.1.6)-1) date 2020-07-29 00:16:23*
%MOMM*%
%LPD*%
G01*
G04 APERTURE LIST*
%ADD10C,2.300000*%
%ADD11R,3.100000X3.100000*%
%ADD12C,3.100000*%
%ADD13R,2.100000X2.100000*%
%ADD14C,2.100000*%
%ADD15O,2.350000X4.600000*%
%ADD16O,4.600000X2.350000*%
%ADD17O,5.100000X2.600000*%
%ADD18R,1.800000X1.800000*%
%ADD19O,1.800000X1.800000*%
%ADD20R,1.100000X0.800000*%
%ADD21R,0.800000X1.100000*%
%ADD22R,2.300000X3.700000*%
%ADD23R,2.335200X1.319200*%
%ADD24R,1.852600X1.852600*%
%ADD25C,1.852600*%
%ADD26C,3.300000*%
%ADD27R,0.700000X2.070000*%
%ADD28R,2.005000X2.100000*%
%ADD29O,2.005000X2.100000*%
%ADD30R,1.700000X1.700000*%
%ADD31O,1.700000X1.700000*%
%ADD32R,1.310000X0.830000*%
%ADD33R,0.830000X1.310000*%
G04 APERTURE END LIST*
D10*
%TO.C,REF\u002A\u002A*%
X65405000Y-29083000D03*
%TD*%
%TO.C,REF\u002A\u002A*%
X57023000Y-95123000D03*
%TD*%
%TO.C,REF\u002A\u002A*%
X19304000Y-93726000D03*
%TD*%
%TO.C,REF\u002A\u002A*%
X16002000Y-28321000D03*
%TD*%
D11*
%TO.C,J7*%
X64008000Y-87376000D03*
D12*
X64008000Y-92456000D03*
X64008000Y-97536000D03*
%TD*%
%TO.C,D2*%
G36*
G01*
X47116000Y-37621738D02*
X47116000Y-38578262D01*
G75*
G02*
X46844262Y-38850000I-271738J0D01*
G01*
X46137738Y-38850000D01*
G75*
G02*
X45866000Y-38578262I0J271738D01*
G01*
X45866000Y-37621738D01*
G75*
G02*
X46137738Y-37350000I271738J0D01*
G01*
X46844262Y-37350000D01*
G75*
G02*
X47116000Y-37621738I0J-271738D01*
G01*
G37*
G36*
G01*
X45066000Y-37621738D02*
X45066000Y-38578262D01*
G75*
G02*
X44794262Y-38850000I-271738J0D01*
G01*
X44087738Y-38850000D01*
G75*
G02*
X43816000Y-38578262I0J271738D01*
G01*
X43816000Y-37621738D01*
G75*
G02*
X44087738Y-37350000I271738J0D01*
G01*
X44794262Y-37350000D01*
G75*
G02*
X45066000Y-37621738I0J-271738D01*
G01*
G37*
%TD*%
D13*
%TO.C,BZ1*%
X15367000Y-38100000D03*
D14*
X22967000Y-38100000D03*
%TD*%
%TO.C,C1*%
G36*
G01*
X34319738Y-33674000D02*
X35276262Y-33674000D01*
G75*
G02*
X35548000Y-33945738I0J-271738D01*
G01*
X35548000Y-34652262D01*
G75*
G02*
X35276262Y-34924000I-271738J0D01*
G01*
X34319738Y-34924000D01*
G75*
G02*
X34048000Y-34652262I0J271738D01*
G01*
X34048000Y-33945738D01*
G75*
G02*
X34319738Y-33674000I271738J0D01*
G01*
G37*
G36*
G01*
X34319738Y-31624000D02*
X35276262Y-31624000D01*
G75*
G02*
X35548000Y-31895738I0J-271738D01*
G01*
X35548000Y-32602262D01*
G75*
G02*
X35276262Y-32874000I-271738J0D01*
G01*
X34319738Y-32874000D01*
G75*
G02*
X34048000Y-32602262I0J271738D01*
G01*
X34048000Y-31895738D01*
G75*
G02*
X34319738Y-31624000I271738J0D01*
G01*
G37*
%TD*%
%TO.C,C2*%
G36*
G01*
X37621738Y-31624000D02*
X38578262Y-31624000D01*
G75*
G02*
X38850000Y-31895738I0J-271738D01*
G01*
X38850000Y-32602262D01*
G75*
G02*
X38578262Y-32874000I-271738J0D01*
G01*
X37621738Y-32874000D01*
G75*
G02*
X37350000Y-32602262I0J271738D01*
G01*
X37350000Y-31895738D01*
G75*
G02*
X37621738Y-31624000I271738J0D01*
G01*
G37*
G36*
G01*
X37621738Y-33674000D02*
X38578262Y-33674000D01*
G75*
G02*
X38850000Y-33945738I0J-271738D01*
G01*
X38850000Y-34652262D01*
G75*
G02*
X38578262Y-34924000I-271738J0D01*
G01*
X37621738Y-34924000D01*
G75*
G02*
X37350000Y-34652262I0J271738D01*
G01*
X37350000Y-33945738D01*
G75*
G02*
X37621738Y-33674000I271738J0D01*
G01*
G37*
%TD*%
%TO.C,C3*%
G36*
G01*
X37845000Y-37621738D02*
X37845000Y-38578262D01*
G75*
G02*
X37573262Y-38850000I-271738J0D01*
G01*
X36866738Y-38850000D01*
G75*
G02*
X36595000Y-38578262I0J271738D01*
G01*
X36595000Y-37621738D01*
G75*
G02*
X36866738Y-37350000I271738J0D01*
G01*
X37573262Y-37350000D01*
G75*
G02*
X37845000Y-37621738I0J-271738D01*
G01*
G37*
G36*
G01*
X35795000Y-37621738D02*
X35795000Y-38578262D01*
G75*
G02*
X35523262Y-38850000I-271738J0D01*
G01*
X34816738Y-38850000D01*
G75*
G02*
X34545000Y-38578262I0J271738D01*
G01*
X34545000Y-37621738D01*
G75*
G02*
X34816738Y-37350000I271738J0D01*
G01*
X35523262Y-37350000D01*
G75*
G02*
X35795000Y-37621738I0J-271738D01*
G01*
G37*
%TD*%
D15*
%TO.C,J1*%
X22605000Y-28750000D03*
D16*
X27305000Y-25750000D03*
D17*
X27305000Y-31750000D03*
%TD*%
D18*
%TO.C,J2*%
X14732000Y-50546000D03*
D19*
X14732000Y-53086000D03*
X14732000Y-55626000D03*
X14732000Y-58166000D03*
X14732000Y-60706000D03*
X14732000Y-63246000D03*
X14732000Y-65786000D03*
X14732000Y-68326000D03*
X14732000Y-70866000D03*
X14732000Y-73406000D03*
%TD*%
D18*
%TO.C,J4*%
X52070000Y-64516000D03*
D19*
X52070000Y-67056000D03*
%TD*%
D18*
%TO.C,J5*%
X52197000Y-94869000D03*
%TD*%
D19*
%TO.C,J6*%
X14732000Y-78867000D03*
D18*
X14732000Y-81407000D03*
%TD*%
%TO.C,J8*%
X52197000Y-74549000D03*
D19*
X52197000Y-77089000D03*
X52197000Y-79629000D03*
X52197000Y-82169000D03*
X52197000Y-84709000D03*
X52197000Y-87249000D03*
%TD*%
D18*
%TO.C,J9*%
X45212000Y-46609000D03*
D19*
X45212000Y-44069000D03*
X42672000Y-46609000D03*
X42672000Y-44069000D03*
X40132000Y-46609000D03*
X40132000Y-44069000D03*
X37592000Y-46609000D03*
X37592000Y-44069000D03*
%TD*%
D20*
%TO.C,Q1*%
X30283000Y-41844000D03*
X30283000Y-39944000D03*
X27883000Y-40894000D03*
%TD*%
D21*
%TO.C,Q5*%
X35814000Y-82734000D03*
X34864000Y-80334000D03*
X36764000Y-80334000D03*
%TD*%
%TO.C,R1*%
G36*
G01*
X41256000Y-37621738D02*
X41256000Y-38578262D01*
G75*
G02*
X40984262Y-38850000I-271738J0D01*
G01*
X40277738Y-38850000D01*
G75*
G02*
X40006000Y-38578262I0J271738D01*
G01*
X40006000Y-37621738D01*
G75*
G02*
X40277738Y-37350000I271738J0D01*
G01*
X40984262Y-37350000D01*
G75*
G02*
X41256000Y-37621738I0J-271738D01*
G01*
G37*
G36*
G01*
X43306000Y-37621738D02*
X43306000Y-38578262D01*
G75*
G02*
X43034262Y-38850000I-271738J0D01*
G01*
X42327738Y-38850000D01*
G75*
G02*
X42056000Y-38578262I0J271738D01*
G01*
X42056000Y-37621738D01*
G75*
G02*
X42327738Y-37350000I271738J0D01*
G01*
X43034262Y-37350000D01*
G75*
G02*
X43306000Y-37621738I0J-271738D01*
G01*
G37*
%TD*%
%TO.C,R2*%
G36*
G01*
X31642000Y-37435262D02*
X31642000Y-36478738D01*
G75*
G02*
X31913738Y-36207000I271738J0D01*
G01*
X32620262Y-36207000D01*
G75*
G02*
X32892000Y-36478738I0J-271738D01*
G01*
X32892000Y-37435262D01*
G75*
G02*
X32620262Y-37707000I-271738J0D01*
G01*
X31913738Y-37707000D01*
G75*
G02*
X31642000Y-37435262I0J271738D01*
G01*
G37*
G36*
G01*
X29592000Y-37435262D02*
X29592000Y-36478738D01*
G75*
G02*
X29863738Y-36207000I271738J0D01*
G01*
X30570262Y-36207000D01*
G75*
G02*
X30842000Y-36478738I0J-271738D01*
G01*
X30842000Y-37435262D01*
G75*
G02*
X30570262Y-37707000I-271738J0D01*
G01*
X29863738Y-37707000D01*
G75*
G02*
X29592000Y-37435262I0J271738D01*
G01*
G37*
%TD*%
%TO.C,R8*%
G36*
G01*
X34416000Y-75848738D02*
X34416000Y-76805262D01*
G75*
G02*
X34144262Y-77077000I-271738J0D01*
G01*
X33437738Y-77077000D01*
G75*
G02*
X33166000Y-76805262I0J271738D01*
G01*
X33166000Y-75848738D01*
G75*
G02*
X33437738Y-75577000I271738J0D01*
G01*
X34144262Y-75577000D01*
G75*
G02*
X34416000Y-75848738I0J-271738D01*
G01*
G37*
G36*
G01*
X32366000Y-75848738D02*
X32366000Y-76805262D01*
G75*
G02*
X32094262Y-77077000I-271738J0D01*
G01*
X31387738Y-77077000D01*
G75*
G02*
X31116000Y-76805262I0J271738D01*
G01*
X31116000Y-75848738D01*
G75*
G02*
X31387738Y-75577000I271738J0D01*
G01*
X32094262Y-75577000D01*
G75*
G02*
X32366000Y-75848738I0J-271738D01*
G01*
G37*
%TD*%
D22*
%TO.C,U1*%
X47549000Y-32131000D03*
D23*
X41351200Y-34442400D03*
X41351200Y-32131000D03*
X41351200Y-29819600D03*
%TD*%
D24*
%TO.C,U2*%
X46355000Y-94869000D03*
D25*
X46355000Y-92329000D03*
X46355000Y-89789000D03*
X46355000Y-87249000D03*
X46355000Y-84709000D03*
X46355000Y-82169000D03*
X46355000Y-79629000D03*
X46355000Y-77089000D03*
X46355000Y-74549000D03*
X46355000Y-72009000D03*
X46355000Y-69469000D03*
X46355000Y-66929000D03*
X46355000Y-64389000D03*
X46355000Y-61849000D03*
X46355000Y-59309000D03*
X23495000Y-94869000D03*
X23495000Y-92329000D03*
X23495000Y-89789000D03*
X23495000Y-87249000D03*
X23495000Y-84709000D03*
X23495000Y-82169000D03*
X23495000Y-79629000D03*
X23495000Y-77089000D03*
X23495000Y-74549000D03*
X23495000Y-72009000D03*
X23495000Y-69469000D03*
X23495000Y-66929000D03*
X23495000Y-64389000D03*
X23495000Y-61849000D03*
X23495000Y-59309000D03*
D26*
X45085000Y-98679000D03*
X24765000Y-98679000D03*
X24765000Y-55499000D03*
X45085000Y-55499000D03*
%TD*%
D27*
%TO.C,U601*%
X22225000Y-50735000D03*
X23495000Y-50735000D03*
X24765000Y-50735000D03*
X26035000Y-50735000D03*
X27305000Y-50735000D03*
X28575000Y-50735000D03*
X29845000Y-50735000D03*
X31115000Y-50735000D03*
X31115000Y-45785000D03*
X29845000Y-45785000D03*
X28575000Y-45785000D03*
X27305000Y-45785000D03*
X26035000Y-45785000D03*
X24765000Y-45785000D03*
X23495000Y-45785000D03*
X22225000Y-45785000D03*
%TD*%
%TO.C,C4*%
G36*
G01*
X64896000Y-39145738D02*
X64896000Y-40102262D01*
G75*
G02*
X64624262Y-40374000I-271738J0D01*
G01*
X63917738Y-40374000D01*
G75*
G02*
X63646000Y-40102262I0J271738D01*
G01*
X63646000Y-39145738D01*
G75*
G02*
X63917738Y-38874000I271738J0D01*
G01*
X64624262Y-38874000D01*
G75*
G02*
X64896000Y-39145738I0J-271738D01*
G01*
G37*
G36*
G01*
X62846000Y-39145738D02*
X62846000Y-40102262D01*
G75*
G02*
X62574262Y-40374000I-271738J0D01*
G01*
X61867738Y-40374000D01*
G75*
G02*
X61596000Y-40102262I0J271738D01*
G01*
X61596000Y-39145738D01*
G75*
G02*
X61867738Y-38874000I271738J0D01*
G01*
X62574262Y-38874000D01*
G75*
G02*
X62846000Y-39145738I0J-271738D01*
G01*
G37*
%TD*%
%TO.C,C5*%
G36*
G01*
X60979000Y-48865262D02*
X60979000Y-47908738D01*
G75*
G02*
X61250738Y-47637000I271738J0D01*
G01*
X61957262Y-47637000D01*
G75*
G02*
X62229000Y-47908738I0J-271738D01*
G01*
X62229000Y-48865262D01*
G75*
G02*
X61957262Y-49137000I-271738J0D01*
G01*
X61250738Y-49137000D01*
G75*
G02*
X60979000Y-48865262I0J271738D01*
G01*
G37*
G36*
G01*
X58929000Y-48865262D02*
X58929000Y-47908738D01*
G75*
G02*
X59200738Y-47637000I271738J0D01*
G01*
X59907262Y-47637000D01*
G75*
G02*
X60179000Y-47908738I0J-271738D01*
G01*
X60179000Y-48865262D01*
G75*
G02*
X59907262Y-49137000I-271738J0D01*
G01*
X59200738Y-49137000D01*
G75*
G02*
X58929000Y-48865262I0J271738D01*
G01*
G37*
%TD*%
D28*
%TO.C,U3*%
X64389000Y-43561000D03*
D29*
X61849000Y-43561000D03*
X59309000Y-43561000D03*
%TD*%
D18*
%TO.C,J3*%
X14732000Y-96520000D03*
D19*
X14732000Y-93980000D03*
X14732000Y-91440000D03*
X14732000Y-88900000D03*
%TD*%
%TO.C,R3*%
G36*
G01*
X51670000Y-59973738D02*
X51670000Y-60930262D01*
G75*
G02*
X51398262Y-61202000I-271738J0D01*
G01*
X50691738Y-61202000D01*
G75*
G02*
X50420000Y-60930262I0J271738D01*
G01*
X50420000Y-59973738D01*
G75*
G02*
X50691738Y-59702000I271738J0D01*
G01*
X51398262Y-59702000D01*
G75*
G02*
X51670000Y-59973738I0J-271738D01*
G01*
G37*
G36*
G01*
X53720000Y-59973738D02*
X53720000Y-60930262D01*
G75*
G02*
X53448262Y-61202000I-271738J0D01*
G01*
X52741738Y-61202000D01*
G75*
G02*
X52470000Y-60930262I0J271738D01*
G01*
X52470000Y-59973738D01*
G75*
G02*
X52741738Y-59702000I271738J0D01*
G01*
X53448262Y-59702000D01*
G75*
G02*
X53720000Y-59973738I0J-271738D01*
G01*
G37*
%TD*%
%TO.C,R4*%
G36*
G01*
X61370738Y-70105000D02*
X62327262Y-70105000D01*
G75*
G02*
X62599000Y-70376738I0J-271738D01*
G01*
X62599000Y-71083262D01*
G75*
G02*
X62327262Y-71355000I-271738J0D01*
G01*
X61370738Y-71355000D01*
G75*
G02*
X61099000Y-71083262I0J271738D01*
G01*
X61099000Y-70376738D01*
G75*
G02*
X61370738Y-70105000I271738J0D01*
G01*
G37*
G36*
G01*
X61370738Y-72155000D02*
X62327262Y-72155000D01*
G75*
G02*
X62599000Y-72426738I0J-271738D01*
G01*
X62599000Y-73133262D01*
G75*
G02*
X62327262Y-73405000I-271738J0D01*
G01*
X61370738Y-73405000D01*
G75*
G02*
X61099000Y-73133262I0J271738D01*
G01*
X61099000Y-72426738D01*
G75*
G02*
X61370738Y-72155000I271738J0D01*
G01*
G37*
%TD*%
D30*
%TO.C,U4*%
X56642000Y-58166000D03*
D31*
X64262000Y-63246000D03*
X56642000Y-60706000D03*
X64262000Y-60706000D03*
X56642000Y-63246000D03*
X64262000Y-58166000D03*
%TD*%
D28*
%TO.C,Q2*%
X59690000Y-79502000D03*
D29*
X62230000Y-79502000D03*
X64770000Y-79502000D03*
%TD*%
D32*
%TO.C,D1*%
X33880000Y-29083000D03*
X37240000Y-29083000D03*
%TD*%
D33*
%TO.C,D3*%
X64897000Y-73689000D03*
X64897000Y-70329000D03*
%TD*%
D32*
%TO.C,D4*%
X43209000Y-72390000D03*
X39849000Y-72390000D03*
%TD*%
%TO.C,C6*%
G36*
G01*
X62327262Y-36956000D02*
X61370738Y-36956000D01*
G75*
G02*
X61099000Y-36684262I0J271738D01*
G01*
X61099000Y-35977738D01*
G75*
G02*
X61370738Y-35706000I271738J0D01*
G01*
X62327262Y-35706000D01*
G75*
G02*
X62599000Y-35977738I0J-271738D01*
G01*
X62599000Y-36684262D01*
G75*
G02*
X62327262Y-36956000I-271738J0D01*
G01*
G37*
G36*
G01*
X62327262Y-34906000D02*
X61370738Y-34906000D01*
G75*
G02*
X61099000Y-34634262I0J271738D01*
G01*
X61099000Y-33927738D01*
G75*
G02*
X61370738Y-33656000I271738J0D01*
G01*
X62327262Y-33656000D01*
G75*
G02*
X62599000Y-33927738I0J-271738D01*
G01*
X62599000Y-34634262D01*
G75*
G02*
X62327262Y-34906000I-271738J0D01*
G01*
G37*
%TD*%
D33*
%TO.C,D5*%
X51943000Y-36547000D03*
X51943000Y-39907000D03*
%TD*%
D15*
%TO.C,J10*%
X50799000Y-28877000D03*
D16*
X55499000Y-25877000D03*
D17*
X55499000Y-31877000D03*
%TD*%
M02*
