%TF.GenerationSoftware,KiCad,Pcbnew,(5.1.6)-1*%
%TF.CreationDate,2020-07-29T00:16:22-03:00*%
%TF.ProjectId,placa_desenvolvimento,706c6163-615f-4646-9573-656e766f6c76,rev?*%
%TF.SameCoordinates,Original*%
%TF.FileFunction,Copper,L2,Bot*%
%TF.FilePolarity,Positive*%
%FSLAX46Y46*%
G04 Gerber Fmt 4.6, Leading zero omitted, Abs format (unit mm)*
G04 Created by KiCad (PCBNEW (5.1.6)-1) date 2020-07-29 00:16:22*
%MOMM*%
%LPD*%
G01*
G04 APERTURE LIST*
%TA.AperFunction,ComponentPad*%
%ADD10R,3.000000X3.000000*%
%TD*%
%TA.AperFunction,ComponentPad*%
%ADD11C,3.000000*%
%TD*%
%TA.AperFunction,ComponentPad*%
%ADD12R,2.000000X2.000000*%
%TD*%
%TA.AperFunction,ComponentPad*%
%ADD13C,2.000000*%
%TD*%
%TA.AperFunction,ComponentPad*%
%ADD14O,2.250000X4.500000*%
%TD*%
%TA.AperFunction,ComponentPad*%
%ADD15O,4.500000X2.250000*%
%TD*%
%TA.AperFunction,ComponentPad*%
%ADD16O,5.000000X2.500000*%
%TD*%
%TA.AperFunction,ComponentPad*%
%ADD17R,1.700000X1.700000*%
%TD*%
%TA.AperFunction,ComponentPad*%
%ADD18O,1.700000X1.700000*%
%TD*%
%TA.AperFunction,ComponentPad*%
%ADD19R,1.752600X1.752600*%
%TD*%
%TA.AperFunction,ComponentPad*%
%ADD20C,1.752600*%
%TD*%
%TA.AperFunction,ComponentPad*%
%ADD21R,1.905000X2.000000*%
%TD*%
%TA.AperFunction,ComponentPad*%
%ADD22O,1.905000X2.000000*%
%TD*%
%TA.AperFunction,ComponentPad*%
%ADD23R,1.600000X1.600000*%
%TD*%
%TA.AperFunction,ComponentPad*%
%ADD24O,1.600000X1.600000*%
%TD*%
%TA.AperFunction,ViaPad*%
%ADD25C,0.800000*%
%TD*%
%TA.AperFunction,Conductor*%
%ADD26C,0.254000*%
%TD*%
%TA.AperFunction,Conductor*%
%ADD27C,0.250000*%
%TD*%
%TA.AperFunction,Conductor*%
%ADD28C,1.500000*%
%TD*%
G04 APERTURE END LIST*
D10*
%TO.P,J7,1*%
%TO.N,+12V*%
X64008000Y-87376000D03*
D11*
%TO.P,J7,2*%
%TO.N,SD_12V*%
X64008000Y-92456000D03*
%TO.P,J7,3*%
%TO.N,GND1*%
X64008000Y-97536000D03*
%TD*%
D12*
%TO.P,BZ1,1*%
%TO.N,+5V*%
X15367000Y-38100000D03*
D13*
%TO.P,BZ1,2*%
%TO.N,Net-(BZ1-Pad2)*%
X22967000Y-38100000D03*
%TD*%
D14*
%TO.P,J1,3*%
%TO.N,N/C*%
X22605000Y-28750000D03*
D15*
%TO.P,J1,2*%
%TO.N,GND*%
X27305000Y-25750000D03*
D16*
%TO.P,J1,1*%
%TO.N,Net-(D1-Pad2)*%
X27305000Y-31750000D03*
%TD*%
D17*
%TO.P,J2,1*%
%TO.N,GND*%
X14732000Y-50546000D03*
D18*
%TO.P,J2,2*%
%TO.N,QA*%
X14732000Y-53086000D03*
%TO.P,J2,3*%
%TO.N,QB*%
X14732000Y-55626000D03*
%TO.P,J2,4*%
%TO.N,QC*%
X14732000Y-58166000D03*
%TO.P,J2,5*%
%TO.N,QD*%
X14732000Y-60706000D03*
%TO.P,J2,6*%
%TO.N,QE*%
X14732000Y-63246000D03*
%TO.P,J2,7*%
%TO.N,QF*%
X14732000Y-65786000D03*
%TO.P,J2,8*%
%TO.N,QG*%
X14732000Y-68326000D03*
%TO.P,J2,9*%
%TO.N,QH*%
X14732000Y-70866000D03*
%TO.P,J2,10*%
%TO.N,+5V*%
X14732000Y-73406000D03*
%TD*%
D17*
%TO.P,J4,1*%
%TO.N,RST*%
X52070000Y-64516000D03*
D18*
%TO.P,J4,2*%
%TO.N,EN*%
X52070000Y-67056000D03*
%TD*%
D17*
%TO.P,J5,1*%
%TO.N,A0*%
X52197000Y-94869000D03*
%TD*%
D18*
%TO.P,J6,2*%
%TO.N,TX*%
X14732000Y-78867000D03*
D17*
%TO.P,J6,1*%
%TO.N,RX*%
X14732000Y-81407000D03*
%TD*%
%TO.P,J8,1*%
%TO.N,CLK*%
X52197000Y-74549000D03*
D18*
%TO.P,J8,2*%
%TO.N,SD0*%
X52197000Y-77089000D03*
%TO.P,J8,3*%
%TO.N,CMD*%
X52197000Y-79629000D03*
%TO.P,J8,4*%
%TO.N,SD1*%
X52197000Y-82169000D03*
%TO.P,J8,5*%
%TO.N,SD2*%
X52197000Y-84709000D03*
%TO.P,J8,6*%
%TO.N,SD3*%
X52197000Y-87249000D03*
%TD*%
D17*
%TO.P,J9,1*%
%TO.N,GND*%
X45212000Y-46609000D03*
D18*
%TO.P,J9,2*%
%TO.N,+5V*%
X45212000Y-44069000D03*
%TO.P,J9,3*%
%TO.N,GND*%
X42672000Y-46609000D03*
%TO.P,J9,4*%
%TO.N,+3V3*%
X42672000Y-44069000D03*
%TO.P,J9,5*%
%TO.N,GND*%
X40132000Y-46609000D03*
%TO.P,J9,6*%
%TO.N,+5V*%
X40132000Y-44069000D03*
%TO.P,J9,7*%
%TO.N,GND*%
X37592000Y-46609000D03*
%TO.P,J9,8*%
%TO.N,+3V3*%
X37592000Y-44069000D03*
%TD*%
D19*
%TO.P,U2,1*%
%TO.N,A0*%
X46355000Y-94869000D03*
D20*
%TO.P,U2,2*%
%TO.N,Net-(U2-Pad2)*%
X46355000Y-92329000D03*
%TO.P,U2,3*%
%TO.N,Net-(U2-Pad3)*%
X46355000Y-89789000D03*
%TO.P,U2,4*%
%TO.N,SD3*%
X46355000Y-87249000D03*
%TO.P,U2,5*%
%TO.N,SD2*%
X46355000Y-84709000D03*
%TO.P,U2,6*%
%TO.N,SD1*%
X46355000Y-82169000D03*
%TO.P,U2,7*%
%TO.N,CMD*%
X46355000Y-79629000D03*
%TO.P,U2,8*%
%TO.N,SD0*%
X46355000Y-77089000D03*
%TO.P,U2,9*%
%TO.N,CLK*%
X46355000Y-74549000D03*
%TO.P,U2,10*%
%TO.N,GND*%
X46355000Y-72009000D03*
%TO.P,U2,11*%
%TO.N,+3V3*%
X46355000Y-69469000D03*
%TO.P,U2,12*%
%TO.N,EN*%
X46355000Y-66929000D03*
%TO.P,U2,13*%
%TO.N,RST*%
X46355000Y-64389000D03*
%TO.P,U2,14*%
%TO.N,GND*%
X46355000Y-61849000D03*
%TO.P,U2,15*%
%TO.N,+5V*%
X46355000Y-59309000D03*
%TO.P,U2,30*%
%TO.N,D0*%
X23495000Y-94869000D03*
%TO.P,U2,29*%
%TO.N,SOCLK*%
X23495000Y-92329000D03*
%TO.P,U2,28*%
%TO.N,PEN*%
X23495000Y-89789000D03*
%TO.P,U2,27*%
%TO.N,SODATA*%
X23495000Y-87249000D03*
%TO.P,U2,26*%
%TO.N,D4*%
X23495000Y-84709000D03*
%TO.P,U2,25*%
%TO.N,+3V3*%
X23495000Y-82169000D03*
%TO.P,U2,24*%
%TO.N,GND*%
X23495000Y-79629000D03*
%TO.P,U2,23*%
%TO.N,D5*%
X23495000Y-77089000D03*
%TO.P,U2,22*%
%TO.N,D6*%
X23495000Y-74549000D03*
%TO.P,U2,21*%
%TO.N,D7*%
X23495000Y-72009000D03*
%TO.P,U2,20*%
%TO.N,PWM*%
X23495000Y-69469000D03*
%TO.P,U2,19*%
%TO.N,RX*%
X23495000Y-66929000D03*
%TO.P,U2,18*%
%TO.N,TX*%
X23495000Y-64389000D03*
%TO.P,U2,17*%
%TO.N,GND*%
X23495000Y-61849000D03*
%TO.P,U2,16*%
%TO.N,+3V3*%
X23495000Y-59309000D03*
%TD*%
D21*
%TO.P,U3,1*%
%TO.N,VCCQ*%
X64389000Y-43561000D03*
D22*
%TO.P,U3,2*%
%TO.N,GND1*%
X61849000Y-43561000D03*
%TO.P,U3,3*%
%TO.N,+12V*%
X59309000Y-43561000D03*
%TD*%
D17*
%TO.P,J3,1*%
%TO.N,D0*%
X14732000Y-96520000D03*
D18*
%TO.P,J3,2*%
%TO.N,D4*%
X14732000Y-93980000D03*
%TO.P,J3,3*%
%TO.N,D7*%
X14732000Y-91440000D03*
%TO.P,J3,4*%
%TO.N,SD_5V*%
X14732000Y-88900000D03*
%TD*%
D23*
%TO.P,U4,1*%
%TO.N,Net-(R3-Pad1)*%
X56642000Y-58166000D03*
D24*
%TO.P,U4,4*%
%TO.N,Net-(Q2-Pad1)*%
X64262000Y-63246000D03*
%TO.P,U4,2*%
%TO.N,GND*%
X56642000Y-60706000D03*
%TO.P,U4,5*%
%TO.N,+12V*%
X64262000Y-60706000D03*
%TO.P,U4,3*%
%TO.N,Net-(U4-Pad3)*%
X56642000Y-63246000D03*
%TO.P,U4,6*%
%TO.N,Net-(U4-Pad6)*%
X64262000Y-58166000D03*
%TD*%
D21*
%TO.P,Q2,1*%
%TO.N,Net-(Q2-Pad1)*%
X59690000Y-79502000D03*
D22*
%TO.P,Q2,2*%
%TO.N,+12V*%
X62230000Y-79502000D03*
%TO.P,Q2,3*%
%TO.N,SD_12V*%
X64770000Y-79502000D03*
%TD*%
D14*
%TO.P,J10,3*%
%TO.N,N/C*%
X50799000Y-28877000D03*
D15*
%TO.P,J10,2*%
%TO.N,GND1*%
X55499000Y-25877000D03*
D16*
%TO.P,J10,1*%
%TO.N,Net-(D5-Pad2)*%
X55499000Y-31877000D03*
%TD*%
D25*
%TO.N,GND*%
X46482000Y-38100000D03*
X35170000Y-38100000D03*
%TO.N,PWM*%
X32267000Y-36957000D03*
%TO.N,D5*%
X51045000Y-60452000D03*
%TO.N,D6*%
X31741000Y-76327000D03*
%TD*%
D26*
%TO.N,GND*%
X46443001Y-45377999D02*
X45212000Y-46609000D01*
X46443001Y-43478119D02*
X46443001Y-45377999D01*
X44747872Y-41782990D02*
X46443001Y-43478119D01*
X44747872Y-41782990D02*
X44958010Y-41782990D01*
D27*
X46482000Y-40259000D02*
X44958010Y-41782990D01*
X46482000Y-38100000D02*
X46482000Y-40259000D01*
X33020010Y-41782990D02*
X33020010Y-40249990D01*
D26*
X33020010Y-41782990D02*
X44747872Y-41782990D01*
D27*
X33020010Y-40249990D02*
X35170000Y-38100000D01*
X31485009Y-41784991D02*
X35170000Y-38100000D01*
X23493009Y-41784991D02*
X31485009Y-41784991D01*
X14732000Y-50546000D02*
X23493009Y-41784991D01*
D26*
%TO.N,+3V3*%
X23495000Y-82169000D02*
X21717000Y-80391000D01*
X21717000Y-61087000D02*
X23495000Y-59309000D01*
X21717000Y-80391000D02*
X21717000Y-61087000D01*
X33655000Y-82169000D02*
X23495000Y-82169000D01*
X46355000Y-69469000D02*
X33655000Y-82169000D01*
X24734275Y-59309000D02*
X35306000Y-48737275D01*
X23495000Y-59309000D02*
X24734275Y-59309000D01*
X35306000Y-46355000D02*
X37592000Y-44069000D01*
X35306000Y-48737275D02*
X35306000Y-46355000D01*
X37592000Y-44069000D02*
X39370000Y-42291000D01*
X40894000Y-42291000D02*
X42672000Y-44069000D01*
X39370000Y-42291000D02*
X40894000Y-42291000D01*
%TO.N,PWM*%
X24734275Y-69469000D02*
X44292275Y-49911000D01*
X23495000Y-69469000D02*
X24734275Y-69469000D01*
D27*
X44292275Y-49911000D02*
X49149000Y-45054275D01*
X49149000Y-45054275D02*
X49149000Y-38608000D01*
X49149000Y-38608000D02*
X47244000Y-36703000D01*
X47244000Y-36703000D02*
X32521000Y-36703000D01*
X32521000Y-36703000D02*
X32267000Y-36957000D01*
%TO.N,D5*%
X23495000Y-77089000D02*
X25019000Y-78613000D01*
X25019000Y-78613000D02*
X33782000Y-78613000D01*
X33782000Y-78613000D02*
X35306000Y-77089000D01*
X35306000Y-77089000D02*
X35306000Y-68500154D01*
D26*
X51045000Y-61559806D02*
X51045000Y-60452000D01*
X46958505Y-65646301D02*
X51045000Y-61559806D01*
X38159853Y-65646301D02*
X46958505Y-65646301D01*
X35306000Y-68500154D02*
X38159853Y-65646301D01*
%TO.N,D6*%
X23495000Y-74549000D02*
X29963000Y-74549000D01*
X29963000Y-74549000D02*
X31741000Y-76327000D01*
D28*
%TO.N,GND1*%
X61849000Y-45466000D02*
X61849000Y-43561000D01*
X57733499Y-64824423D02*
X61849000Y-60708922D01*
X57733499Y-91261499D02*
X57733499Y-64824423D01*
X61849000Y-60708922D02*
X61849000Y-43561000D01*
X64008000Y-97536000D02*
X57733499Y-91261499D01*
%TD*%
D26*
%TO.N,GND*%
G36*
X68528892Y-23924479D02*
G01*
X68403904Y-101042000D01*
X12623000Y-101042000D01*
X12623000Y-98458872D01*
X22530000Y-98458872D01*
X22530000Y-98899128D01*
X22615890Y-99330925D01*
X22784369Y-99737669D01*
X23028962Y-100103729D01*
X23340271Y-100415038D01*
X23706331Y-100659631D01*
X24113075Y-100828110D01*
X24544872Y-100914000D01*
X24985128Y-100914000D01*
X25416925Y-100828110D01*
X25823669Y-100659631D01*
X26189729Y-100415038D01*
X26501038Y-100103729D01*
X26745631Y-99737669D01*
X26914110Y-99330925D01*
X27000000Y-98899128D01*
X27000000Y-98458872D01*
X42850000Y-98458872D01*
X42850000Y-98899128D01*
X42935890Y-99330925D01*
X43104369Y-99737669D01*
X43348962Y-100103729D01*
X43660271Y-100415038D01*
X44026331Y-100659631D01*
X44433075Y-100828110D01*
X44864872Y-100914000D01*
X45305128Y-100914000D01*
X45736925Y-100828110D01*
X46143669Y-100659631D01*
X46509729Y-100415038D01*
X46821038Y-100103729D01*
X47065631Y-99737669D01*
X47234110Y-99330925D01*
X47320000Y-98899128D01*
X47320000Y-98458872D01*
X47234110Y-98027075D01*
X47065631Y-97620331D01*
X46821038Y-97254271D01*
X46509729Y-96942962D01*
X46143669Y-96698369D01*
X45736925Y-96529890D01*
X45305128Y-96444000D01*
X44864872Y-96444000D01*
X44433075Y-96529890D01*
X44026331Y-96698369D01*
X43660271Y-96942962D01*
X43348962Y-97254271D01*
X43104369Y-97620331D01*
X42935890Y-98027075D01*
X42850000Y-98458872D01*
X27000000Y-98458872D01*
X26914110Y-98027075D01*
X26745631Y-97620331D01*
X26501038Y-97254271D01*
X26189729Y-96942962D01*
X25823669Y-96698369D01*
X25416925Y-96529890D01*
X24985128Y-96444000D01*
X24544872Y-96444000D01*
X24113075Y-96529890D01*
X23706331Y-96698369D01*
X23340271Y-96942962D01*
X23028962Y-97254271D01*
X22784369Y-97620331D01*
X22615890Y-98027075D01*
X22530000Y-98458872D01*
X12623000Y-98458872D01*
X12623000Y-95670000D01*
X13243928Y-95670000D01*
X13243928Y-97370000D01*
X13256188Y-97494482D01*
X13292498Y-97614180D01*
X13351463Y-97724494D01*
X13430815Y-97821185D01*
X13527506Y-97900537D01*
X13637820Y-97959502D01*
X13757518Y-97995812D01*
X13882000Y-98008072D01*
X15582000Y-98008072D01*
X15706482Y-97995812D01*
X15826180Y-97959502D01*
X15936494Y-97900537D01*
X16033185Y-97821185D01*
X16112537Y-97724494D01*
X16171502Y-97614180D01*
X16207812Y-97494482D01*
X16220072Y-97370000D01*
X16220072Y-95670000D01*
X16207812Y-95545518D01*
X16171502Y-95425820D01*
X16112537Y-95315506D01*
X16033185Y-95218815D01*
X15936494Y-95139463D01*
X15826180Y-95080498D01*
X15753620Y-95058487D01*
X15885475Y-94926632D01*
X16047990Y-94683411D01*
X16159932Y-94413158D01*
X16217000Y-94126260D01*
X16217000Y-93833740D01*
X16161579Y-93555117D01*
X17569000Y-93555117D01*
X17569000Y-93896883D01*
X17635675Y-94232081D01*
X17766463Y-94547831D01*
X17956337Y-94831998D01*
X18198002Y-95073663D01*
X18482169Y-95263537D01*
X18797919Y-95394325D01*
X19133117Y-95461000D01*
X19474883Y-95461000D01*
X19810081Y-95394325D01*
X20125831Y-95263537D01*
X20409998Y-95073663D01*
X20651663Y-94831998D01*
X20841537Y-94547831D01*
X20972325Y-94232081D01*
X21039000Y-93896883D01*
X21039000Y-93555117D01*
X20972325Y-93219919D01*
X20841537Y-92904169D01*
X20651663Y-92620002D01*
X20409998Y-92378337D01*
X20125831Y-92188463D01*
X19810081Y-92057675D01*
X19474883Y-91991000D01*
X19133117Y-91991000D01*
X18797919Y-92057675D01*
X18482169Y-92188463D01*
X18198002Y-92378337D01*
X17956337Y-92620002D01*
X17766463Y-92904169D01*
X17635675Y-93219919D01*
X17569000Y-93555117D01*
X16161579Y-93555117D01*
X16159932Y-93546842D01*
X16047990Y-93276589D01*
X15885475Y-93033368D01*
X15678632Y-92826525D01*
X15504240Y-92710000D01*
X15678632Y-92593475D01*
X15885475Y-92386632D01*
X16047990Y-92143411D01*
X16159932Y-91873158D01*
X16217000Y-91586260D01*
X16217000Y-91293740D01*
X16159932Y-91006842D01*
X16047990Y-90736589D01*
X15885475Y-90493368D01*
X15678632Y-90286525D01*
X15504240Y-90170000D01*
X15678632Y-90053475D01*
X15885475Y-89846632D01*
X16047990Y-89603411D01*
X16159932Y-89333158D01*
X16217000Y-89046260D01*
X16217000Y-88753740D01*
X16159932Y-88466842D01*
X16047990Y-88196589D01*
X15885475Y-87953368D01*
X15678632Y-87746525D01*
X15435411Y-87584010D01*
X15165158Y-87472068D01*
X14878260Y-87415000D01*
X14585740Y-87415000D01*
X14298842Y-87472068D01*
X14028589Y-87584010D01*
X13785368Y-87746525D01*
X13578525Y-87953368D01*
X13416010Y-88196589D01*
X13304068Y-88466842D01*
X13247000Y-88753740D01*
X13247000Y-89046260D01*
X13304068Y-89333158D01*
X13416010Y-89603411D01*
X13578525Y-89846632D01*
X13785368Y-90053475D01*
X13959760Y-90170000D01*
X13785368Y-90286525D01*
X13578525Y-90493368D01*
X13416010Y-90736589D01*
X13304068Y-91006842D01*
X13247000Y-91293740D01*
X13247000Y-91586260D01*
X13304068Y-91873158D01*
X13416010Y-92143411D01*
X13578525Y-92386632D01*
X13785368Y-92593475D01*
X13959760Y-92710000D01*
X13785368Y-92826525D01*
X13578525Y-93033368D01*
X13416010Y-93276589D01*
X13304068Y-93546842D01*
X13247000Y-93833740D01*
X13247000Y-94126260D01*
X13304068Y-94413158D01*
X13416010Y-94683411D01*
X13578525Y-94926632D01*
X13710380Y-95058487D01*
X13637820Y-95080498D01*
X13527506Y-95139463D01*
X13430815Y-95218815D01*
X13351463Y-95315506D01*
X13292498Y-95425820D01*
X13256188Y-95545518D01*
X13243928Y-95670000D01*
X12623000Y-95670000D01*
X12623000Y-80557000D01*
X13243928Y-80557000D01*
X13243928Y-82257000D01*
X13256188Y-82381482D01*
X13292498Y-82501180D01*
X13351463Y-82611494D01*
X13430815Y-82708185D01*
X13527506Y-82787537D01*
X13637820Y-82846502D01*
X13757518Y-82882812D01*
X13882000Y-82895072D01*
X15582000Y-82895072D01*
X15706482Y-82882812D01*
X15826180Y-82846502D01*
X15936494Y-82787537D01*
X16033185Y-82708185D01*
X16112537Y-82611494D01*
X16171502Y-82501180D01*
X16207812Y-82381482D01*
X16220072Y-82257000D01*
X16220072Y-80557000D01*
X16207812Y-80432518D01*
X16171502Y-80312820D01*
X16112537Y-80202506D01*
X16033185Y-80105815D01*
X15936494Y-80026463D01*
X15826180Y-79967498D01*
X15753620Y-79945487D01*
X15885475Y-79813632D01*
X16047990Y-79570411D01*
X16159932Y-79300158D01*
X16217000Y-79013260D01*
X16217000Y-78720740D01*
X16159932Y-78433842D01*
X16047990Y-78163589D01*
X15885475Y-77920368D01*
X15678632Y-77713525D01*
X15435411Y-77551010D01*
X15165158Y-77439068D01*
X14878260Y-77382000D01*
X14585740Y-77382000D01*
X14298842Y-77439068D01*
X14028589Y-77551010D01*
X13785368Y-77713525D01*
X13578525Y-77920368D01*
X13416010Y-78163589D01*
X13304068Y-78433842D01*
X13247000Y-78720740D01*
X13247000Y-79013260D01*
X13304068Y-79300158D01*
X13416010Y-79570411D01*
X13578525Y-79813632D01*
X13710380Y-79945487D01*
X13637820Y-79967498D01*
X13527506Y-80026463D01*
X13430815Y-80105815D01*
X13351463Y-80202506D01*
X13292498Y-80312820D01*
X13256188Y-80432518D01*
X13243928Y-80557000D01*
X12623000Y-80557000D01*
X12623000Y-51396000D01*
X13243928Y-51396000D01*
X13256188Y-51520482D01*
X13292498Y-51640180D01*
X13351463Y-51750494D01*
X13430815Y-51847185D01*
X13527506Y-51926537D01*
X13637820Y-51985502D01*
X13710380Y-52007513D01*
X13578525Y-52139368D01*
X13416010Y-52382589D01*
X13304068Y-52652842D01*
X13247000Y-52939740D01*
X13247000Y-53232260D01*
X13304068Y-53519158D01*
X13416010Y-53789411D01*
X13578525Y-54032632D01*
X13785368Y-54239475D01*
X13959760Y-54356000D01*
X13785368Y-54472525D01*
X13578525Y-54679368D01*
X13416010Y-54922589D01*
X13304068Y-55192842D01*
X13247000Y-55479740D01*
X13247000Y-55772260D01*
X13304068Y-56059158D01*
X13416010Y-56329411D01*
X13578525Y-56572632D01*
X13785368Y-56779475D01*
X13959760Y-56896000D01*
X13785368Y-57012525D01*
X13578525Y-57219368D01*
X13416010Y-57462589D01*
X13304068Y-57732842D01*
X13247000Y-58019740D01*
X13247000Y-58312260D01*
X13304068Y-58599158D01*
X13416010Y-58869411D01*
X13578525Y-59112632D01*
X13785368Y-59319475D01*
X13959760Y-59436000D01*
X13785368Y-59552525D01*
X13578525Y-59759368D01*
X13416010Y-60002589D01*
X13304068Y-60272842D01*
X13247000Y-60559740D01*
X13247000Y-60852260D01*
X13304068Y-61139158D01*
X13416010Y-61409411D01*
X13578525Y-61652632D01*
X13785368Y-61859475D01*
X13959760Y-61976000D01*
X13785368Y-62092525D01*
X13578525Y-62299368D01*
X13416010Y-62542589D01*
X13304068Y-62812842D01*
X13247000Y-63099740D01*
X13247000Y-63392260D01*
X13304068Y-63679158D01*
X13416010Y-63949411D01*
X13578525Y-64192632D01*
X13785368Y-64399475D01*
X13959760Y-64516000D01*
X13785368Y-64632525D01*
X13578525Y-64839368D01*
X13416010Y-65082589D01*
X13304068Y-65352842D01*
X13247000Y-65639740D01*
X13247000Y-65932260D01*
X13304068Y-66219158D01*
X13416010Y-66489411D01*
X13578525Y-66732632D01*
X13785368Y-66939475D01*
X13959760Y-67056000D01*
X13785368Y-67172525D01*
X13578525Y-67379368D01*
X13416010Y-67622589D01*
X13304068Y-67892842D01*
X13247000Y-68179740D01*
X13247000Y-68472260D01*
X13304068Y-68759158D01*
X13416010Y-69029411D01*
X13578525Y-69272632D01*
X13785368Y-69479475D01*
X13959760Y-69596000D01*
X13785368Y-69712525D01*
X13578525Y-69919368D01*
X13416010Y-70162589D01*
X13304068Y-70432842D01*
X13247000Y-70719740D01*
X13247000Y-71012260D01*
X13304068Y-71299158D01*
X13416010Y-71569411D01*
X13578525Y-71812632D01*
X13785368Y-72019475D01*
X13959760Y-72136000D01*
X13785368Y-72252525D01*
X13578525Y-72459368D01*
X13416010Y-72702589D01*
X13304068Y-72972842D01*
X13247000Y-73259740D01*
X13247000Y-73552260D01*
X13304068Y-73839158D01*
X13416010Y-74109411D01*
X13578525Y-74352632D01*
X13785368Y-74559475D01*
X14028589Y-74721990D01*
X14298842Y-74833932D01*
X14585740Y-74891000D01*
X14878260Y-74891000D01*
X15165158Y-74833932D01*
X15435411Y-74721990D01*
X15678632Y-74559475D01*
X15885475Y-74352632D01*
X16047990Y-74109411D01*
X16159932Y-73839158D01*
X16217000Y-73552260D01*
X16217000Y-73259740D01*
X16159932Y-72972842D01*
X16047990Y-72702589D01*
X15885475Y-72459368D01*
X15678632Y-72252525D01*
X15504240Y-72136000D01*
X15678632Y-72019475D01*
X15885475Y-71812632D01*
X16047990Y-71569411D01*
X16159932Y-71299158D01*
X16217000Y-71012260D01*
X16217000Y-70719740D01*
X16159932Y-70432842D01*
X16047990Y-70162589D01*
X15885475Y-69919368D01*
X15678632Y-69712525D01*
X15504240Y-69596000D01*
X15678632Y-69479475D01*
X15885475Y-69272632D01*
X16047990Y-69029411D01*
X16159932Y-68759158D01*
X16217000Y-68472260D01*
X16217000Y-68179740D01*
X16159932Y-67892842D01*
X16047990Y-67622589D01*
X15885475Y-67379368D01*
X15678632Y-67172525D01*
X15504240Y-67056000D01*
X15678632Y-66939475D01*
X15885475Y-66732632D01*
X16047990Y-66489411D01*
X16159932Y-66219158D01*
X16217000Y-65932260D01*
X16217000Y-65639740D01*
X16159932Y-65352842D01*
X16047990Y-65082589D01*
X15885475Y-64839368D01*
X15678632Y-64632525D01*
X15504240Y-64516000D01*
X15678632Y-64399475D01*
X15885475Y-64192632D01*
X16047990Y-63949411D01*
X16159932Y-63679158D01*
X16217000Y-63392260D01*
X16217000Y-63099740D01*
X16159932Y-62812842D01*
X16047990Y-62542589D01*
X15885475Y-62299368D01*
X15678632Y-62092525D01*
X15504240Y-61976000D01*
X15678632Y-61859475D01*
X15885475Y-61652632D01*
X16047990Y-61409411D01*
X16159932Y-61139158D01*
X16170306Y-61087000D01*
X20951314Y-61087000D01*
X20955001Y-61124433D01*
X20955000Y-80353577D01*
X20951314Y-80391000D01*
X20955000Y-80428423D01*
X20955000Y-80428425D01*
X20966026Y-80540377D01*
X21009598Y-80684014D01*
X21009599Y-80684015D01*
X21080355Y-80816392D01*
X21110407Y-80853010D01*
X21175578Y-80932422D01*
X21204654Y-80956284D01*
X22030954Y-81782584D01*
X21983700Y-82020150D01*
X21983700Y-82317850D01*
X22041778Y-82609830D01*
X22155703Y-82884869D01*
X22321096Y-83132398D01*
X22531602Y-83342904D01*
X22675420Y-83439000D01*
X22531602Y-83535096D01*
X22321096Y-83745602D01*
X22155703Y-83993131D01*
X22041778Y-84268170D01*
X21983700Y-84560150D01*
X21983700Y-84857850D01*
X22041778Y-85149830D01*
X22155703Y-85424869D01*
X22321096Y-85672398D01*
X22531602Y-85882904D01*
X22675420Y-85979000D01*
X22531602Y-86075096D01*
X22321096Y-86285602D01*
X22155703Y-86533131D01*
X22041778Y-86808170D01*
X21983700Y-87100150D01*
X21983700Y-87397850D01*
X22041778Y-87689830D01*
X22155703Y-87964869D01*
X22321096Y-88212398D01*
X22531602Y-88422904D01*
X22675420Y-88519000D01*
X22531602Y-88615096D01*
X22321096Y-88825602D01*
X22155703Y-89073131D01*
X22041778Y-89348170D01*
X21983700Y-89640150D01*
X21983700Y-89937850D01*
X22041778Y-90229830D01*
X22155703Y-90504869D01*
X22321096Y-90752398D01*
X22531602Y-90962904D01*
X22675420Y-91059000D01*
X22531602Y-91155096D01*
X22321096Y-91365602D01*
X22155703Y-91613131D01*
X22041778Y-91888170D01*
X21983700Y-92180150D01*
X21983700Y-92477850D01*
X22041778Y-92769830D01*
X22155703Y-93044869D01*
X22321096Y-93292398D01*
X22531602Y-93502904D01*
X22675420Y-93599000D01*
X22531602Y-93695096D01*
X22321096Y-93905602D01*
X22155703Y-94153131D01*
X22041778Y-94428170D01*
X21983700Y-94720150D01*
X21983700Y-95017850D01*
X22041778Y-95309830D01*
X22155703Y-95584869D01*
X22321096Y-95832398D01*
X22531602Y-96042904D01*
X22779131Y-96208297D01*
X23054170Y-96322222D01*
X23346150Y-96380300D01*
X23643850Y-96380300D01*
X23935830Y-96322222D01*
X24210869Y-96208297D01*
X24458398Y-96042904D01*
X24668904Y-95832398D01*
X24834297Y-95584869D01*
X24948222Y-95309830D01*
X25006300Y-95017850D01*
X25006300Y-94720150D01*
X24948222Y-94428170D01*
X24834297Y-94153131D01*
X24727101Y-93992700D01*
X44840628Y-93992700D01*
X44840628Y-95745300D01*
X44852888Y-95869782D01*
X44889198Y-95989480D01*
X44948163Y-96099794D01*
X45027515Y-96196485D01*
X45124206Y-96275837D01*
X45234520Y-96334802D01*
X45354218Y-96371112D01*
X45478700Y-96383372D01*
X47231300Y-96383372D01*
X47355782Y-96371112D01*
X47475480Y-96334802D01*
X47585794Y-96275837D01*
X47682485Y-96196485D01*
X47761837Y-96099794D01*
X47820802Y-95989480D01*
X47857112Y-95869782D01*
X47869372Y-95745300D01*
X47869372Y-94019000D01*
X50708928Y-94019000D01*
X50708928Y-95719000D01*
X50721188Y-95843482D01*
X50757498Y-95963180D01*
X50816463Y-96073494D01*
X50895815Y-96170185D01*
X50992506Y-96249537D01*
X51102820Y-96308502D01*
X51222518Y-96344812D01*
X51347000Y-96357072D01*
X53047000Y-96357072D01*
X53171482Y-96344812D01*
X53291180Y-96308502D01*
X53401494Y-96249537D01*
X53498185Y-96170185D01*
X53577537Y-96073494D01*
X53636502Y-95963180D01*
X53672812Y-95843482D01*
X53685072Y-95719000D01*
X53685072Y-94952117D01*
X55288000Y-94952117D01*
X55288000Y-95293883D01*
X55354675Y-95629081D01*
X55485463Y-95944831D01*
X55675337Y-96228998D01*
X55917002Y-96470663D01*
X56201169Y-96660537D01*
X56516919Y-96791325D01*
X56852117Y-96858000D01*
X57193883Y-96858000D01*
X57529081Y-96791325D01*
X57844831Y-96660537D01*
X58128998Y-96470663D01*
X58370663Y-96228998D01*
X58560537Y-95944831D01*
X58691325Y-95629081D01*
X58758000Y-95293883D01*
X58758000Y-94952117D01*
X58691325Y-94616919D01*
X58560537Y-94301169D01*
X58370663Y-94017002D01*
X58128998Y-93775337D01*
X57844831Y-93585463D01*
X57529081Y-93454675D01*
X57193883Y-93388000D01*
X56852117Y-93388000D01*
X56516919Y-93454675D01*
X56201169Y-93585463D01*
X55917002Y-93775337D01*
X55675337Y-94017002D01*
X55485463Y-94301169D01*
X55354675Y-94616919D01*
X55288000Y-94952117D01*
X53685072Y-94952117D01*
X53685072Y-94019000D01*
X53672812Y-93894518D01*
X53636502Y-93774820D01*
X53577537Y-93664506D01*
X53498185Y-93567815D01*
X53401494Y-93488463D01*
X53291180Y-93429498D01*
X53171482Y-93393188D01*
X53047000Y-93380928D01*
X51347000Y-93380928D01*
X51222518Y-93393188D01*
X51102820Y-93429498D01*
X50992506Y-93488463D01*
X50895815Y-93567815D01*
X50816463Y-93664506D01*
X50757498Y-93774820D01*
X50721188Y-93894518D01*
X50708928Y-94019000D01*
X47869372Y-94019000D01*
X47869372Y-93992700D01*
X47857112Y-93868218D01*
X47820802Y-93748520D01*
X47761837Y-93638206D01*
X47682485Y-93541515D01*
X47585794Y-93462163D01*
X47475480Y-93403198D01*
X47431458Y-93389844D01*
X47528904Y-93292398D01*
X47694297Y-93044869D01*
X47808222Y-92769830D01*
X47866300Y-92477850D01*
X47866300Y-92180150D01*
X47808222Y-91888170D01*
X47694297Y-91613131D01*
X47528904Y-91365602D01*
X47318398Y-91155096D01*
X47174580Y-91059000D01*
X47318398Y-90962904D01*
X47528904Y-90752398D01*
X47694297Y-90504869D01*
X47808222Y-90229830D01*
X47866300Y-89937850D01*
X47866300Y-89640150D01*
X47808222Y-89348170D01*
X47694297Y-89073131D01*
X47528904Y-88825602D01*
X47318398Y-88615096D01*
X47174580Y-88519000D01*
X47318398Y-88422904D01*
X47528904Y-88212398D01*
X47694297Y-87964869D01*
X47808222Y-87689830D01*
X47866300Y-87397850D01*
X47866300Y-87100150D01*
X47808222Y-86808170D01*
X47694297Y-86533131D01*
X47528904Y-86285602D01*
X47318398Y-86075096D01*
X47174580Y-85979000D01*
X47318398Y-85882904D01*
X47528904Y-85672398D01*
X47694297Y-85424869D01*
X47808222Y-85149830D01*
X47866300Y-84857850D01*
X47866300Y-84560150D01*
X47808222Y-84268170D01*
X47694297Y-83993131D01*
X47528904Y-83745602D01*
X47318398Y-83535096D01*
X47174580Y-83439000D01*
X47318398Y-83342904D01*
X47528904Y-83132398D01*
X47694297Y-82884869D01*
X47808222Y-82609830D01*
X47866300Y-82317850D01*
X47866300Y-82020150D01*
X47808222Y-81728170D01*
X47694297Y-81453131D01*
X47528904Y-81205602D01*
X47318398Y-80995096D01*
X47174580Y-80899000D01*
X47318398Y-80802904D01*
X47528904Y-80592398D01*
X47694297Y-80344869D01*
X47808222Y-80069830D01*
X47866300Y-79777850D01*
X47866300Y-79480150D01*
X47808222Y-79188170D01*
X47694297Y-78913131D01*
X47528904Y-78665602D01*
X47318398Y-78455096D01*
X47174580Y-78359000D01*
X47318398Y-78262904D01*
X47528904Y-78052398D01*
X47694297Y-77804869D01*
X47808222Y-77529830D01*
X47866300Y-77237850D01*
X47866300Y-76940150D01*
X47808222Y-76648170D01*
X47694297Y-76373131D01*
X47528904Y-76125602D01*
X47318398Y-75915096D01*
X47174580Y-75819000D01*
X47318398Y-75722904D01*
X47528904Y-75512398D01*
X47694297Y-75264869D01*
X47808222Y-74989830D01*
X47866300Y-74697850D01*
X47866300Y-74400150D01*
X47808222Y-74108170D01*
X47694297Y-73833131D01*
X47604674Y-73699000D01*
X50708928Y-73699000D01*
X50708928Y-75399000D01*
X50721188Y-75523482D01*
X50757498Y-75643180D01*
X50816463Y-75753494D01*
X50895815Y-75850185D01*
X50992506Y-75929537D01*
X51102820Y-75988502D01*
X51175380Y-76010513D01*
X51043525Y-76142368D01*
X50881010Y-76385589D01*
X50769068Y-76655842D01*
X50712000Y-76942740D01*
X50712000Y-77235260D01*
X50769068Y-77522158D01*
X50881010Y-77792411D01*
X51043525Y-78035632D01*
X51250368Y-78242475D01*
X51424760Y-78359000D01*
X51250368Y-78475525D01*
X51043525Y-78682368D01*
X50881010Y-78925589D01*
X50769068Y-79195842D01*
X50712000Y-79482740D01*
X50712000Y-79775260D01*
X50769068Y-80062158D01*
X50881010Y-80332411D01*
X51043525Y-80575632D01*
X51250368Y-80782475D01*
X51424760Y-80899000D01*
X51250368Y-81015525D01*
X51043525Y-81222368D01*
X50881010Y-81465589D01*
X50769068Y-81735842D01*
X50712000Y-82022740D01*
X50712000Y-82315260D01*
X50769068Y-82602158D01*
X50881010Y-82872411D01*
X51043525Y-83115632D01*
X51250368Y-83322475D01*
X51424760Y-83439000D01*
X51250368Y-83555525D01*
X51043525Y-83762368D01*
X50881010Y-84005589D01*
X50769068Y-84275842D01*
X50712000Y-84562740D01*
X50712000Y-84855260D01*
X50769068Y-85142158D01*
X50881010Y-85412411D01*
X51043525Y-85655632D01*
X51250368Y-85862475D01*
X51424760Y-85979000D01*
X51250368Y-86095525D01*
X51043525Y-86302368D01*
X50881010Y-86545589D01*
X50769068Y-86815842D01*
X50712000Y-87102740D01*
X50712000Y-87395260D01*
X50769068Y-87682158D01*
X50881010Y-87952411D01*
X51043525Y-88195632D01*
X51250368Y-88402475D01*
X51493589Y-88564990D01*
X51763842Y-88676932D01*
X52050740Y-88734000D01*
X52343260Y-88734000D01*
X52630158Y-88676932D01*
X52900411Y-88564990D01*
X53143632Y-88402475D01*
X53350475Y-88195632D01*
X53512990Y-87952411D01*
X53624932Y-87682158D01*
X53682000Y-87395260D01*
X53682000Y-87102740D01*
X53624932Y-86815842D01*
X53512990Y-86545589D01*
X53350475Y-86302368D01*
X53143632Y-86095525D01*
X52969240Y-85979000D01*
X53143632Y-85862475D01*
X53350475Y-85655632D01*
X53512990Y-85412411D01*
X53624932Y-85142158D01*
X53682000Y-84855260D01*
X53682000Y-84562740D01*
X53624932Y-84275842D01*
X53512990Y-84005589D01*
X53350475Y-83762368D01*
X53143632Y-83555525D01*
X52969240Y-83439000D01*
X53143632Y-83322475D01*
X53350475Y-83115632D01*
X53512990Y-82872411D01*
X53624932Y-82602158D01*
X53682000Y-82315260D01*
X53682000Y-82022740D01*
X53624932Y-81735842D01*
X53512990Y-81465589D01*
X53350475Y-81222368D01*
X53143632Y-81015525D01*
X52969240Y-80899000D01*
X53143632Y-80782475D01*
X53350475Y-80575632D01*
X53512990Y-80332411D01*
X53624932Y-80062158D01*
X53682000Y-79775260D01*
X53682000Y-79482740D01*
X53624932Y-79195842D01*
X53512990Y-78925589D01*
X53350475Y-78682368D01*
X53143632Y-78475525D01*
X52969240Y-78359000D01*
X53143632Y-78242475D01*
X53350475Y-78035632D01*
X53512990Y-77792411D01*
X53624932Y-77522158D01*
X53682000Y-77235260D01*
X53682000Y-76942740D01*
X53624932Y-76655842D01*
X53512990Y-76385589D01*
X53350475Y-76142368D01*
X53218620Y-76010513D01*
X53291180Y-75988502D01*
X53401494Y-75929537D01*
X53498185Y-75850185D01*
X53577537Y-75753494D01*
X53636502Y-75643180D01*
X53672812Y-75523482D01*
X53685072Y-75399000D01*
X53685072Y-73699000D01*
X53672812Y-73574518D01*
X53636502Y-73454820D01*
X53577537Y-73344506D01*
X53498185Y-73247815D01*
X53401494Y-73168463D01*
X53291180Y-73109498D01*
X53171482Y-73073188D01*
X53047000Y-73060928D01*
X51347000Y-73060928D01*
X51222518Y-73073188D01*
X51102820Y-73109498D01*
X50992506Y-73168463D01*
X50895815Y-73247815D01*
X50816463Y-73344506D01*
X50757498Y-73454820D01*
X50721188Y-73574518D01*
X50708928Y-73699000D01*
X47604674Y-73699000D01*
X47528904Y-73585602D01*
X47318398Y-73375096D01*
X47155191Y-73266045D01*
X47222563Y-73056169D01*
X46355000Y-72188605D01*
X45487437Y-73056169D01*
X45554809Y-73266045D01*
X45391602Y-73375096D01*
X45181096Y-73585602D01*
X45015703Y-73833131D01*
X44901778Y-74108170D01*
X44843700Y-74400150D01*
X44843700Y-74697850D01*
X44901778Y-74989830D01*
X45015703Y-75264869D01*
X45181096Y-75512398D01*
X45391602Y-75722904D01*
X45535420Y-75819000D01*
X45391602Y-75915096D01*
X45181096Y-76125602D01*
X45015703Y-76373131D01*
X44901778Y-76648170D01*
X44843700Y-76940150D01*
X44843700Y-77237850D01*
X44901778Y-77529830D01*
X45015703Y-77804869D01*
X45181096Y-78052398D01*
X45391602Y-78262904D01*
X45535420Y-78359000D01*
X45391602Y-78455096D01*
X45181096Y-78665602D01*
X45015703Y-78913131D01*
X44901778Y-79188170D01*
X44843700Y-79480150D01*
X44843700Y-79777850D01*
X44901778Y-80069830D01*
X45015703Y-80344869D01*
X45181096Y-80592398D01*
X45391602Y-80802904D01*
X45535420Y-80899000D01*
X45391602Y-80995096D01*
X45181096Y-81205602D01*
X45015703Y-81453131D01*
X44901778Y-81728170D01*
X44843700Y-82020150D01*
X44843700Y-82317850D01*
X44901778Y-82609830D01*
X45015703Y-82884869D01*
X45181096Y-83132398D01*
X45391602Y-83342904D01*
X45535420Y-83439000D01*
X45391602Y-83535096D01*
X45181096Y-83745602D01*
X45015703Y-83993131D01*
X44901778Y-84268170D01*
X44843700Y-84560150D01*
X44843700Y-84857850D01*
X44901778Y-85149830D01*
X45015703Y-85424869D01*
X45181096Y-85672398D01*
X45391602Y-85882904D01*
X45535420Y-85979000D01*
X45391602Y-86075096D01*
X45181096Y-86285602D01*
X45015703Y-86533131D01*
X44901778Y-86808170D01*
X44843700Y-87100150D01*
X44843700Y-87397850D01*
X44901778Y-87689830D01*
X45015703Y-87964869D01*
X45181096Y-88212398D01*
X45391602Y-88422904D01*
X45535420Y-88519000D01*
X45391602Y-88615096D01*
X45181096Y-88825602D01*
X45015703Y-89073131D01*
X44901778Y-89348170D01*
X44843700Y-89640150D01*
X44843700Y-89937850D01*
X44901778Y-90229830D01*
X45015703Y-90504869D01*
X45181096Y-90752398D01*
X45391602Y-90962904D01*
X45535420Y-91059000D01*
X45391602Y-91155096D01*
X45181096Y-91365602D01*
X45015703Y-91613131D01*
X44901778Y-91888170D01*
X44843700Y-92180150D01*
X44843700Y-92477850D01*
X44901778Y-92769830D01*
X45015703Y-93044869D01*
X45181096Y-93292398D01*
X45278542Y-93389844D01*
X45234520Y-93403198D01*
X45124206Y-93462163D01*
X45027515Y-93541515D01*
X44948163Y-93638206D01*
X44889198Y-93748520D01*
X44852888Y-93868218D01*
X44840628Y-93992700D01*
X24727101Y-93992700D01*
X24668904Y-93905602D01*
X24458398Y-93695096D01*
X24314580Y-93599000D01*
X24458398Y-93502904D01*
X24668904Y-93292398D01*
X24834297Y-93044869D01*
X24948222Y-92769830D01*
X25006300Y-92477850D01*
X25006300Y-92180150D01*
X24948222Y-91888170D01*
X24834297Y-91613131D01*
X24668904Y-91365602D01*
X24458398Y-91155096D01*
X24314580Y-91059000D01*
X24458398Y-90962904D01*
X24668904Y-90752398D01*
X24834297Y-90504869D01*
X24948222Y-90229830D01*
X25006300Y-89937850D01*
X25006300Y-89640150D01*
X24948222Y-89348170D01*
X24834297Y-89073131D01*
X24668904Y-88825602D01*
X24458398Y-88615096D01*
X24314580Y-88519000D01*
X24458398Y-88422904D01*
X24668904Y-88212398D01*
X24834297Y-87964869D01*
X24948222Y-87689830D01*
X25006300Y-87397850D01*
X25006300Y-87100150D01*
X24948222Y-86808170D01*
X24834297Y-86533131D01*
X24668904Y-86285602D01*
X24458398Y-86075096D01*
X24314580Y-85979000D01*
X24458398Y-85882904D01*
X24668904Y-85672398D01*
X24834297Y-85424869D01*
X24948222Y-85149830D01*
X25006300Y-84857850D01*
X25006300Y-84560150D01*
X24948222Y-84268170D01*
X24834297Y-83993131D01*
X24668904Y-83745602D01*
X24458398Y-83535096D01*
X24314580Y-83439000D01*
X24458398Y-83342904D01*
X24668904Y-83132398D01*
X24803473Y-82931000D01*
X33617577Y-82931000D01*
X33655000Y-82934686D01*
X33692423Y-82931000D01*
X33692426Y-82931000D01*
X33804378Y-82919974D01*
X33948015Y-82876402D01*
X34080392Y-82805645D01*
X34196422Y-82710422D01*
X34220284Y-82681346D01*
X44838611Y-72063019D01*
X44837887Y-72076491D01*
X44880204Y-72371167D01*
X44979198Y-72651927D01*
X45056071Y-72795746D01*
X45307831Y-72876563D01*
X46175395Y-72009000D01*
X46534605Y-72009000D01*
X47402169Y-72876563D01*
X47653929Y-72795746D01*
X47782457Y-72527221D01*
X47856129Y-72238781D01*
X47872113Y-71941509D01*
X47829796Y-71646833D01*
X47730802Y-71366073D01*
X47653929Y-71222254D01*
X47402169Y-71141437D01*
X46534605Y-72009000D01*
X46175395Y-72009000D01*
X46161253Y-71994858D01*
X46340858Y-71815253D01*
X46355000Y-71829395D01*
X47222563Y-70961831D01*
X47155191Y-70751955D01*
X47318398Y-70642904D01*
X47528904Y-70432398D01*
X47694297Y-70184869D01*
X47808222Y-69909830D01*
X47866300Y-69617850D01*
X47866300Y-69320150D01*
X47808222Y-69028170D01*
X47694297Y-68753131D01*
X47528904Y-68505602D01*
X47318398Y-68295096D01*
X47174580Y-68199000D01*
X47318398Y-68102904D01*
X47528904Y-67892398D01*
X47694297Y-67644869D01*
X47808222Y-67369830D01*
X47866300Y-67077850D01*
X47866300Y-66780150D01*
X47808222Y-66488170D01*
X47694297Y-66213131D01*
X47604178Y-66078258D01*
X50016436Y-63666000D01*
X50581928Y-63666000D01*
X50581928Y-65366000D01*
X50594188Y-65490482D01*
X50630498Y-65610180D01*
X50689463Y-65720494D01*
X50768815Y-65817185D01*
X50865506Y-65896537D01*
X50975820Y-65955502D01*
X51048380Y-65977513D01*
X50916525Y-66109368D01*
X50754010Y-66352589D01*
X50642068Y-66622842D01*
X50585000Y-66909740D01*
X50585000Y-67202260D01*
X50642068Y-67489158D01*
X50754010Y-67759411D01*
X50916525Y-68002632D01*
X51123368Y-68209475D01*
X51366589Y-68371990D01*
X51636842Y-68483932D01*
X51923740Y-68541000D01*
X52216260Y-68541000D01*
X52503158Y-68483932D01*
X52773411Y-68371990D01*
X53016632Y-68209475D01*
X53223475Y-68002632D01*
X53385990Y-67759411D01*
X53497932Y-67489158D01*
X53555000Y-67202260D01*
X53555000Y-66909740D01*
X53497932Y-66622842D01*
X53385990Y-66352589D01*
X53223475Y-66109368D01*
X53091620Y-65977513D01*
X53164180Y-65955502D01*
X53274494Y-65896537D01*
X53371185Y-65817185D01*
X53450537Y-65720494D01*
X53509502Y-65610180D01*
X53545812Y-65490482D01*
X53558072Y-65366000D01*
X53558072Y-63666000D01*
X53545812Y-63541518D01*
X53509502Y-63421820D01*
X53450537Y-63311506D01*
X53371185Y-63214815D01*
X53274494Y-63135463D01*
X53216876Y-63104665D01*
X55207000Y-63104665D01*
X55207000Y-63387335D01*
X55262147Y-63664574D01*
X55370320Y-63925727D01*
X55527363Y-64160759D01*
X55727241Y-64360637D01*
X55962273Y-64517680D01*
X56223426Y-64625853D01*
X56358705Y-64652762D01*
X56341799Y-64824423D01*
X56348500Y-64892462D01*
X56348499Y-91193470D01*
X56341799Y-91261499D01*
X56348499Y-91329528D01*
X56348499Y-91329535D01*
X56368539Y-91533005D01*
X56447735Y-91794079D01*
X56552992Y-91991000D01*
X56576343Y-92034687D01*
X56695722Y-92180150D01*
X56749418Y-92245579D01*
X56802264Y-92288949D01*
X61873000Y-97359686D01*
X61873000Y-97746279D01*
X61955047Y-98158756D01*
X62115988Y-98547302D01*
X62349637Y-98896983D01*
X62647017Y-99194363D01*
X62996698Y-99428012D01*
X63385244Y-99588953D01*
X63797721Y-99671000D01*
X64218279Y-99671000D01*
X64630756Y-99588953D01*
X65019302Y-99428012D01*
X65368983Y-99194363D01*
X65666363Y-98896983D01*
X65900012Y-98547302D01*
X66060953Y-98158756D01*
X66143000Y-97746279D01*
X66143000Y-97325721D01*
X66060953Y-96913244D01*
X65900012Y-96524698D01*
X65666363Y-96175017D01*
X65368983Y-95877637D01*
X65019302Y-95643988D01*
X64630756Y-95483047D01*
X64218279Y-95401000D01*
X63831686Y-95401000D01*
X60676407Y-92245721D01*
X61873000Y-92245721D01*
X61873000Y-92666279D01*
X61955047Y-93078756D01*
X62115988Y-93467302D01*
X62349637Y-93816983D01*
X62647017Y-94114363D01*
X62996698Y-94348012D01*
X63385244Y-94508953D01*
X63797721Y-94591000D01*
X64218279Y-94591000D01*
X64630756Y-94508953D01*
X65019302Y-94348012D01*
X65368983Y-94114363D01*
X65666363Y-93816983D01*
X65900012Y-93467302D01*
X66060953Y-93078756D01*
X66143000Y-92666279D01*
X66143000Y-92245721D01*
X66060953Y-91833244D01*
X65900012Y-91444698D01*
X65666363Y-91095017D01*
X65368983Y-90797637D01*
X65019302Y-90563988D01*
X64630756Y-90403047D01*
X64218279Y-90321000D01*
X63797721Y-90321000D01*
X63385244Y-90403047D01*
X62996698Y-90563988D01*
X62647017Y-90797637D01*
X62349637Y-91095017D01*
X62115988Y-91444698D01*
X61955047Y-91833244D01*
X61873000Y-92245721D01*
X60676407Y-92245721D01*
X59118499Y-90687814D01*
X59118499Y-85876000D01*
X61869928Y-85876000D01*
X61869928Y-88876000D01*
X61882188Y-89000482D01*
X61918498Y-89120180D01*
X61977463Y-89230494D01*
X62056815Y-89327185D01*
X62153506Y-89406537D01*
X62263820Y-89465502D01*
X62383518Y-89501812D01*
X62508000Y-89514072D01*
X65508000Y-89514072D01*
X65632482Y-89501812D01*
X65752180Y-89465502D01*
X65862494Y-89406537D01*
X65959185Y-89327185D01*
X66038537Y-89230494D01*
X66097502Y-89120180D01*
X66133812Y-89000482D01*
X66146072Y-88876000D01*
X66146072Y-85876000D01*
X66133812Y-85751518D01*
X66097502Y-85631820D01*
X66038537Y-85521506D01*
X65959185Y-85424815D01*
X65862494Y-85345463D01*
X65752180Y-85286498D01*
X65632482Y-85250188D01*
X65508000Y-85237928D01*
X62508000Y-85237928D01*
X62383518Y-85250188D01*
X62263820Y-85286498D01*
X62153506Y-85345463D01*
X62056815Y-85424815D01*
X61977463Y-85521506D01*
X61918498Y-85631820D01*
X61882188Y-85751518D01*
X61869928Y-85876000D01*
X59118499Y-85876000D01*
X59118499Y-81140072D01*
X60642500Y-81140072D01*
X60766982Y-81127812D01*
X60886680Y-81091502D01*
X60996994Y-81032537D01*
X61093685Y-80953185D01*
X61173037Y-80856494D01*
X61217905Y-80772553D01*
X61343766Y-80875845D01*
X61619552Y-81023255D01*
X61918797Y-81114030D01*
X62230000Y-81144681D01*
X62541204Y-81114030D01*
X62840449Y-81023255D01*
X63116235Y-80875845D01*
X63357963Y-80677463D01*
X63500000Y-80504391D01*
X63642037Y-80677463D01*
X63883766Y-80875845D01*
X64159552Y-81023255D01*
X64458797Y-81114030D01*
X64770000Y-81144681D01*
X65081204Y-81114030D01*
X65380449Y-81023255D01*
X65656235Y-80875845D01*
X65897963Y-80677463D01*
X66096345Y-80435734D01*
X66243755Y-80159948D01*
X66334530Y-79860703D01*
X66357500Y-79627485D01*
X66357500Y-79376514D01*
X66334530Y-79143296D01*
X66243755Y-78844051D01*
X66096345Y-78568265D01*
X65897963Y-78326537D01*
X65656234Y-78128155D01*
X65380448Y-77980745D01*
X65081203Y-77889970D01*
X64770000Y-77859319D01*
X64458796Y-77889970D01*
X64159551Y-77980745D01*
X63883765Y-78128155D01*
X63642037Y-78326537D01*
X63500000Y-78499609D01*
X63357963Y-78326537D01*
X63116234Y-78128155D01*
X62840448Y-77980745D01*
X62541203Y-77889970D01*
X62230000Y-77859319D01*
X61918796Y-77889970D01*
X61619551Y-77980745D01*
X61343765Y-78128155D01*
X61217905Y-78231446D01*
X61173037Y-78147506D01*
X61093685Y-78050815D01*
X60996994Y-77971463D01*
X60886680Y-77912498D01*
X60766982Y-77876188D01*
X60642500Y-77863928D01*
X59118499Y-77863928D01*
X59118499Y-65398108D01*
X62780241Y-61736367D01*
X62833080Y-61693003D01*
X62876445Y-61640163D01*
X62876452Y-61640156D01*
X63006156Y-61482111D01*
X63006157Y-61482110D01*
X63027740Y-61441731D01*
X63147363Y-61620759D01*
X63347241Y-61820637D01*
X63579759Y-61976000D01*
X63347241Y-62131363D01*
X63147363Y-62331241D01*
X62990320Y-62566273D01*
X62882147Y-62827426D01*
X62827000Y-63104665D01*
X62827000Y-63387335D01*
X62882147Y-63664574D01*
X62990320Y-63925727D01*
X63147363Y-64160759D01*
X63347241Y-64360637D01*
X63582273Y-64517680D01*
X63843426Y-64625853D01*
X64120665Y-64681000D01*
X64403335Y-64681000D01*
X64680574Y-64625853D01*
X64941727Y-64517680D01*
X65176759Y-64360637D01*
X65376637Y-64160759D01*
X65533680Y-63925727D01*
X65641853Y-63664574D01*
X65697000Y-63387335D01*
X65697000Y-63104665D01*
X65641853Y-62827426D01*
X65533680Y-62566273D01*
X65376637Y-62331241D01*
X65176759Y-62131363D01*
X64944241Y-61976000D01*
X65176759Y-61820637D01*
X65376637Y-61620759D01*
X65533680Y-61385727D01*
X65641853Y-61124574D01*
X65697000Y-60847335D01*
X65697000Y-60564665D01*
X65641853Y-60287426D01*
X65533680Y-60026273D01*
X65376637Y-59791241D01*
X65176759Y-59591363D01*
X64944241Y-59436000D01*
X65176759Y-59280637D01*
X65376637Y-59080759D01*
X65533680Y-58845727D01*
X65641853Y-58584574D01*
X65697000Y-58307335D01*
X65697000Y-58024665D01*
X65641853Y-57747426D01*
X65533680Y-57486273D01*
X65376637Y-57251241D01*
X65176759Y-57051363D01*
X64941727Y-56894320D01*
X64680574Y-56786147D01*
X64403335Y-56731000D01*
X64120665Y-56731000D01*
X63843426Y-56786147D01*
X63582273Y-56894320D01*
X63347241Y-57051363D01*
X63234000Y-57164604D01*
X63234000Y-45163145D01*
X63312018Y-45186812D01*
X63436500Y-45199072D01*
X65341500Y-45199072D01*
X65465982Y-45186812D01*
X65585680Y-45150502D01*
X65695994Y-45091537D01*
X65792685Y-45012185D01*
X65872037Y-44915494D01*
X65931002Y-44805180D01*
X65967312Y-44685482D01*
X65979572Y-44561000D01*
X65979572Y-42561000D01*
X65967312Y-42436518D01*
X65931002Y-42316820D01*
X65872037Y-42206506D01*
X65792685Y-42109815D01*
X65695994Y-42030463D01*
X65585680Y-41971498D01*
X65465982Y-41935188D01*
X65341500Y-41922928D01*
X63436500Y-41922928D01*
X63312018Y-41935188D01*
X63192320Y-41971498D01*
X63082006Y-42030463D01*
X62985315Y-42109815D01*
X62905963Y-42206506D01*
X62861095Y-42290446D01*
X62735235Y-42187155D01*
X62459449Y-42039745D01*
X62160204Y-41948970D01*
X61849000Y-41918319D01*
X61537797Y-41948970D01*
X61238552Y-42039745D01*
X60962766Y-42187155D01*
X60721037Y-42385537D01*
X60579000Y-42558609D01*
X60436963Y-42385537D01*
X60195235Y-42187155D01*
X59919449Y-42039745D01*
X59620204Y-41948970D01*
X59309000Y-41918319D01*
X58997797Y-41948970D01*
X58698552Y-42039745D01*
X58422766Y-42187155D01*
X58181037Y-42385537D01*
X57982655Y-42627265D01*
X57835245Y-42903051D01*
X57744470Y-43202296D01*
X57721500Y-43435514D01*
X57721500Y-43686485D01*
X57744470Y-43919703D01*
X57835245Y-44218948D01*
X57982655Y-44494734D01*
X58181037Y-44736463D01*
X58422765Y-44934845D01*
X58698551Y-45082255D01*
X58997796Y-45173030D01*
X59309000Y-45203681D01*
X59620203Y-45173030D01*
X59919448Y-45082255D01*
X60195234Y-44934845D01*
X60436963Y-44736463D01*
X60464000Y-44703518D01*
X60464000Y-45534036D01*
X60464001Y-45534045D01*
X60464000Y-60135236D01*
X57948617Y-62650619D01*
X57913680Y-62566273D01*
X57756637Y-62331241D01*
X57556759Y-62131363D01*
X57321727Y-61974320D01*
X57311135Y-61969933D01*
X57497131Y-61858385D01*
X57705519Y-61669414D01*
X57873037Y-61443420D01*
X57993246Y-61189087D01*
X58033904Y-61055039D01*
X57911915Y-60833000D01*
X56769000Y-60833000D01*
X56769000Y-60853000D01*
X56515000Y-60853000D01*
X56515000Y-60833000D01*
X55372085Y-60833000D01*
X55250096Y-61055039D01*
X55290754Y-61189087D01*
X55410963Y-61443420D01*
X55578481Y-61669414D01*
X55786869Y-61858385D01*
X55972865Y-61969933D01*
X55962273Y-61974320D01*
X55727241Y-62131363D01*
X55527363Y-62331241D01*
X55370320Y-62566273D01*
X55262147Y-62827426D01*
X55207000Y-63104665D01*
X53216876Y-63104665D01*
X53164180Y-63076498D01*
X53044482Y-63040188D01*
X52920000Y-63027928D01*
X51220000Y-63027928D01*
X51095518Y-63040188D01*
X50975820Y-63076498D01*
X50865506Y-63135463D01*
X50768815Y-63214815D01*
X50689463Y-63311506D01*
X50630498Y-63421820D01*
X50594188Y-63541518D01*
X50581928Y-63666000D01*
X50016436Y-63666000D01*
X51557347Y-62125089D01*
X51586422Y-62101228D01*
X51666978Y-62003070D01*
X51681645Y-61985199D01*
X51752401Y-61852822D01*
X51752402Y-61852821D01*
X51795974Y-61709184D01*
X51807000Y-61597232D01*
X51807000Y-61597229D01*
X51810686Y-61559806D01*
X51807000Y-61522383D01*
X51807000Y-61153711D01*
X51848937Y-61111774D01*
X51962205Y-60942256D01*
X52040226Y-60753898D01*
X52080000Y-60553939D01*
X52080000Y-60350061D01*
X52040226Y-60150102D01*
X51962205Y-59961744D01*
X51848937Y-59792226D01*
X51704774Y-59648063D01*
X51535256Y-59534795D01*
X51346898Y-59456774D01*
X51146939Y-59417000D01*
X50943061Y-59417000D01*
X50743102Y-59456774D01*
X50554744Y-59534795D01*
X50385226Y-59648063D01*
X50241063Y-59792226D01*
X50127795Y-59961744D01*
X50049774Y-60150102D01*
X50010000Y-60350061D01*
X50010000Y-60553939D01*
X50049774Y-60753898D01*
X50127795Y-60942256D01*
X50241063Y-61111774D01*
X50283000Y-61153711D01*
X50283000Y-61244176D01*
X47741086Y-63786090D01*
X47694297Y-63673131D01*
X47528904Y-63425602D01*
X47318398Y-63215096D01*
X47155191Y-63106045D01*
X47222563Y-62896169D01*
X46355000Y-62028605D01*
X45487437Y-62896169D01*
X45554809Y-63106045D01*
X45391602Y-63215096D01*
X45181096Y-63425602D01*
X45015703Y-63673131D01*
X44901778Y-63948170D01*
X44843700Y-64240150D01*
X44843700Y-64537850D01*
X44901778Y-64829830D01*
X44924341Y-64884301D01*
X38197276Y-64884301D01*
X38159853Y-64880615D01*
X38122430Y-64884301D01*
X38122427Y-64884301D01*
X38010475Y-64895327D01*
X37866838Y-64938899D01*
X37805217Y-64971836D01*
X37734460Y-65009656D01*
X37692072Y-65044444D01*
X37618431Y-65104879D01*
X37594569Y-65133955D01*
X34779222Y-67949302D01*
X34766000Y-67960153D01*
X34755149Y-67973375D01*
X34740721Y-67987803D01*
X34669355Y-68074762D01*
X34598599Y-68207139D01*
X34555027Y-68350776D01*
X34540314Y-68500154D01*
X34546001Y-68557893D01*
X34546000Y-76774197D01*
X33467199Y-77853000D01*
X25333803Y-77853000D01*
X24958576Y-77477774D01*
X25006300Y-77237850D01*
X25006300Y-76940150D01*
X24948222Y-76648170D01*
X24834297Y-76373131D01*
X24668904Y-76125602D01*
X24458398Y-75915096D01*
X24314580Y-75819000D01*
X24458398Y-75722904D01*
X24668904Y-75512398D01*
X24803473Y-75311000D01*
X29647370Y-75311000D01*
X30706000Y-76369630D01*
X30706000Y-76428939D01*
X30745774Y-76628898D01*
X30823795Y-76817256D01*
X30937063Y-76986774D01*
X31081226Y-77130937D01*
X31250744Y-77244205D01*
X31439102Y-77322226D01*
X31639061Y-77362000D01*
X31842939Y-77362000D01*
X32042898Y-77322226D01*
X32231256Y-77244205D01*
X32400774Y-77130937D01*
X32544937Y-76986774D01*
X32658205Y-76817256D01*
X32736226Y-76628898D01*
X32776000Y-76428939D01*
X32776000Y-76225061D01*
X32736226Y-76025102D01*
X32658205Y-75836744D01*
X32544937Y-75667226D01*
X32400774Y-75523063D01*
X32231256Y-75409795D01*
X32042898Y-75331774D01*
X31842939Y-75292000D01*
X31783630Y-75292000D01*
X30528284Y-74036654D01*
X30504422Y-74007578D01*
X30388392Y-73912355D01*
X30256015Y-73841598D01*
X30112378Y-73798026D01*
X30000426Y-73787000D01*
X30000423Y-73787000D01*
X29963000Y-73783314D01*
X29925577Y-73787000D01*
X24803473Y-73787000D01*
X24668904Y-73585602D01*
X24458398Y-73375096D01*
X24314580Y-73279000D01*
X24458398Y-73182904D01*
X24668904Y-72972398D01*
X24834297Y-72724869D01*
X24948222Y-72449830D01*
X25006300Y-72157850D01*
X25006300Y-71860150D01*
X24948222Y-71568170D01*
X24834297Y-71293131D01*
X24668904Y-71045602D01*
X24458398Y-70835096D01*
X24314580Y-70739000D01*
X24458398Y-70642904D01*
X24668904Y-70432398D01*
X24805712Y-70227650D01*
X24883653Y-70219974D01*
X25027290Y-70176402D01*
X25159667Y-70105645D01*
X25275697Y-70010422D01*
X25299559Y-69981346D01*
X33364414Y-61916491D01*
X44837887Y-61916491D01*
X44880204Y-62211167D01*
X44979198Y-62491927D01*
X45056071Y-62635746D01*
X45307831Y-62716563D01*
X46175395Y-61849000D01*
X46534605Y-61849000D01*
X47402169Y-62716563D01*
X47653929Y-62635746D01*
X47782457Y-62367221D01*
X47856129Y-62078781D01*
X47872113Y-61781509D01*
X47829796Y-61486833D01*
X47730802Y-61206073D01*
X47653929Y-61062254D01*
X47402169Y-60981437D01*
X46534605Y-61849000D01*
X46175395Y-61849000D01*
X45307831Y-60981437D01*
X45056071Y-61062254D01*
X44927543Y-61330779D01*
X44853871Y-61619219D01*
X44837887Y-61916491D01*
X33364414Y-61916491D01*
X36120755Y-59160150D01*
X44843700Y-59160150D01*
X44843700Y-59457850D01*
X44901778Y-59749830D01*
X45015703Y-60024869D01*
X45181096Y-60272398D01*
X45391602Y-60482904D01*
X45554809Y-60591955D01*
X45487437Y-60801831D01*
X46355000Y-61669395D01*
X47222563Y-60801831D01*
X47155191Y-60591955D01*
X47318398Y-60482904D01*
X47528904Y-60272398D01*
X47694297Y-60024869D01*
X47808222Y-59749830D01*
X47866300Y-59457850D01*
X47866300Y-59160150D01*
X47808222Y-58868170D01*
X47694297Y-58593131D01*
X47528904Y-58345602D01*
X47318398Y-58135096D01*
X47070869Y-57969703D01*
X46795830Y-57855778D01*
X46503850Y-57797700D01*
X46206150Y-57797700D01*
X45914170Y-57855778D01*
X45639131Y-57969703D01*
X45391602Y-58135096D01*
X45181096Y-58345602D01*
X45015703Y-58593131D01*
X44901778Y-58868170D01*
X44843700Y-59160150D01*
X36120755Y-59160150D01*
X40002033Y-55278872D01*
X42850000Y-55278872D01*
X42850000Y-55719128D01*
X42935890Y-56150925D01*
X43104369Y-56557669D01*
X43348962Y-56923729D01*
X43660271Y-57235038D01*
X44026331Y-57479631D01*
X44433075Y-57648110D01*
X44864872Y-57734000D01*
X45305128Y-57734000D01*
X45736925Y-57648110D01*
X46143669Y-57479631D01*
X46313730Y-57366000D01*
X55203928Y-57366000D01*
X55203928Y-58966000D01*
X55216188Y-59090482D01*
X55252498Y-59210180D01*
X55311463Y-59320494D01*
X55390815Y-59417185D01*
X55487506Y-59496537D01*
X55597820Y-59555502D01*
X55717518Y-59591812D01*
X55742080Y-59594231D01*
X55578481Y-59742586D01*
X55410963Y-59968580D01*
X55290754Y-60222913D01*
X55250096Y-60356961D01*
X55372085Y-60579000D01*
X56515000Y-60579000D01*
X56515000Y-60559000D01*
X56769000Y-60559000D01*
X56769000Y-60579000D01*
X57911915Y-60579000D01*
X58033904Y-60356961D01*
X57993246Y-60222913D01*
X57873037Y-59968580D01*
X57705519Y-59742586D01*
X57541920Y-59594231D01*
X57566482Y-59591812D01*
X57686180Y-59555502D01*
X57796494Y-59496537D01*
X57893185Y-59417185D01*
X57972537Y-59320494D01*
X58031502Y-59210180D01*
X58067812Y-59090482D01*
X58080072Y-58966000D01*
X58080072Y-57366000D01*
X58067812Y-57241518D01*
X58031502Y-57121820D01*
X57972537Y-57011506D01*
X57893185Y-56914815D01*
X57796494Y-56835463D01*
X57686180Y-56776498D01*
X57566482Y-56740188D01*
X57442000Y-56727928D01*
X55842000Y-56727928D01*
X55717518Y-56740188D01*
X55597820Y-56776498D01*
X55487506Y-56835463D01*
X55390815Y-56914815D01*
X55311463Y-57011506D01*
X55252498Y-57121820D01*
X55216188Y-57241518D01*
X55203928Y-57366000D01*
X46313730Y-57366000D01*
X46509729Y-57235038D01*
X46821038Y-56923729D01*
X47065631Y-56557669D01*
X47234110Y-56150925D01*
X47320000Y-55719128D01*
X47320000Y-55278872D01*
X47234110Y-54847075D01*
X47065631Y-54440331D01*
X46821038Y-54074271D01*
X46509729Y-53762962D01*
X46143669Y-53518369D01*
X45736925Y-53349890D01*
X45305128Y-53264000D01*
X44864872Y-53264000D01*
X44433075Y-53349890D01*
X44026331Y-53518369D01*
X43660271Y-53762962D01*
X43348962Y-54074271D01*
X43104369Y-54440331D01*
X42935890Y-54847075D01*
X42850000Y-55278872D01*
X40002033Y-55278872D01*
X44857554Y-50423352D01*
X44870506Y-50407570D01*
X49660004Y-45618073D01*
X49689001Y-45594276D01*
X49783974Y-45478551D01*
X49854546Y-45346522D01*
X49898003Y-45203261D01*
X49909000Y-45091608D01*
X49909000Y-45091599D01*
X49912676Y-45054276D01*
X49909000Y-45016953D01*
X49909000Y-38645323D01*
X49912676Y-38608000D01*
X49909000Y-38570677D01*
X49909000Y-38570667D01*
X49898003Y-38459014D01*
X49854546Y-38315753D01*
X49783974Y-38183724D01*
X49689001Y-38067999D01*
X49660003Y-38044201D01*
X47807804Y-36192003D01*
X47784001Y-36162999D01*
X47668276Y-36068026D01*
X47536247Y-35997454D01*
X47392986Y-35953997D01*
X47281333Y-35943000D01*
X47281322Y-35943000D01*
X47244000Y-35939324D01*
X47206678Y-35943000D01*
X32558322Y-35943000D01*
X32520999Y-35939324D01*
X32483676Y-35943000D01*
X32483667Y-35943000D01*
X32477545Y-35943603D01*
X32368939Y-35922000D01*
X32165061Y-35922000D01*
X31965102Y-35961774D01*
X31776744Y-36039795D01*
X31607226Y-36153063D01*
X31463063Y-36297226D01*
X31349795Y-36466744D01*
X31271774Y-36655102D01*
X31232000Y-36855061D01*
X31232000Y-37058939D01*
X31271774Y-37258898D01*
X31349795Y-37447256D01*
X31463063Y-37616774D01*
X31607226Y-37760937D01*
X31776744Y-37874205D01*
X31965102Y-37952226D01*
X32165061Y-37992000D01*
X32368939Y-37992000D01*
X32568898Y-37952226D01*
X32757256Y-37874205D01*
X32926774Y-37760937D01*
X33070937Y-37616774D01*
X33173685Y-37463000D01*
X46929199Y-37463000D01*
X48389001Y-38922803D01*
X48389000Y-44739473D01*
X46646475Y-46481998D01*
X46538252Y-46481998D01*
X46697000Y-46323250D01*
X46700072Y-45759000D01*
X46687812Y-45634518D01*
X46651502Y-45514820D01*
X46592537Y-45404506D01*
X46513185Y-45307815D01*
X46416494Y-45228463D01*
X46306180Y-45169498D01*
X46233620Y-45147487D01*
X46365475Y-45015632D01*
X46527990Y-44772411D01*
X46639932Y-44502158D01*
X46697000Y-44215260D01*
X46697000Y-43922740D01*
X46639932Y-43635842D01*
X46527990Y-43365589D01*
X46365475Y-43122368D01*
X46158632Y-42915525D01*
X45915411Y-42753010D01*
X45645158Y-42641068D01*
X45358260Y-42584000D01*
X45065740Y-42584000D01*
X44778842Y-42641068D01*
X44508589Y-42753010D01*
X44265368Y-42915525D01*
X44058525Y-43122368D01*
X43942000Y-43296760D01*
X43825475Y-43122368D01*
X43618632Y-42915525D01*
X43375411Y-42753010D01*
X43105158Y-42641068D01*
X42818260Y-42584000D01*
X42525740Y-42584000D01*
X42307951Y-42627321D01*
X41459284Y-41778654D01*
X41435422Y-41749578D01*
X41319392Y-41654355D01*
X41187015Y-41583598D01*
X41043378Y-41540026D01*
X40931426Y-41529000D01*
X40931423Y-41529000D01*
X40894000Y-41525314D01*
X40856577Y-41529000D01*
X39407423Y-41529000D01*
X39370000Y-41525314D01*
X39332577Y-41529000D01*
X39332574Y-41529000D01*
X39220622Y-41540026D01*
X39076985Y-41583598D01*
X39015364Y-41616535D01*
X38944607Y-41654355D01*
X38902219Y-41689143D01*
X38828578Y-41749578D01*
X38804716Y-41778654D01*
X37956049Y-42627321D01*
X37738260Y-42584000D01*
X37445740Y-42584000D01*
X37158842Y-42641068D01*
X36888589Y-42753010D01*
X36645368Y-42915525D01*
X36438525Y-43122368D01*
X36276010Y-43365589D01*
X36164068Y-43635842D01*
X36107000Y-43922740D01*
X36107000Y-44215260D01*
X36150321Y-44433048D01*
X34793649Y-45789721D01*
X34764579Y-45813578D01*
X34740722Y-45842648D01*
X34740721Y-45842649D01*
X34669355Y-45929608D01*
X34598599Y-46061985D01*
X34555027Y-46205622D01*
X34540314Y-46355000D01*
X34544001Y-46392433D01*
X34544000Y-48421644D01*
X26938789Y-56026856D01*
X27000000Y-55719128D01*
X27000000Y-55278872D01*
X26914110Y-54847075D01*
X26745631Y-54440331D01*
X26501038Y-54074271D01*
X26189729Y-53762962D01*
X25823669Y-53518369D01*
X25416925Y-53349890D01*
X24985128Y-53264000D01*
X24544872Y-53264000D01*
X24113075Y-53349890D01*
X23706331Y-53518369D01*
X23340271Y-53762962D01*
X23028962Y-54074271D01*
X22784369Y-54440331D01*
X22615890Y-54847075D01*
X22530000Y-55278872D01*
X22530000Y-55719128D01*
X22615890Y-56150925D01*
X22784369Y-56557669D01*
X23028962Y-56923729D01*
X23340271Y-57235038D01*
X23706331Y-57479631D01*
X24113075Y-57648110D01*
X24544872Y-57734000D01*
X24985128Y-57734000D01*
X25292856Y-57672789D01*
X24644473Y-58321171D01*
X24458398Y-58135096D01*
X24210869Y-57969703D01*
X23935830Y-57855778D01*
X23643850Y-57797700D01*
X23346150Y-57797700D01*
X23054170Y-57855778D01*
X22779131Y-57969703D01*
X22531602Y-58135096D01*
X22321096Y-58345602D01*
X22155703Y-58593131D01*
X22041778Y-58868170D01*
X21983700Y-59160150D01*
X21983700Y-59457850D01*
X22030954Y-59695416D01*
X21204649Y-60521721D01*
X21175579Y-60545578D01*
X21151722Y-60574648D01*
X21151721Y-60574649D01*
X21080355Y-60661608D01*
X21009599Y-60793985D01*
X20966027Y-60937622D01*
X20951314Y-61087000D01*
X16170306Y-61087000D01*
X16217000Y-60852260D01*
X16217000Y-60559740D01*
X16159932Y-60272842D01*
X16047990Y-60002589D01*
X15885475Y-59759368D01*
X15678632Y-59552525D01*
X15504240Y-59436000D01*
X15678632Y-59319475D01*
X15885475Y-59112632D01*
X16047990Y-58869411D01*
X16159932Y-58599158D01*
X16217000Y-58312260D01*
X16217000Y-58019740D01*
X16159932Y-57732842D01*
X16047990Y-57462589D01*
X15885475Y-57219368D01*
X15678632Y-57012525D01*
X15504240Y-56896000D01*
X15678632Y-56779475D01*
X15885475Y-56572632D01*
X16047990Y-56329411D01*
X16159932Y-56059158D01*
X16217000Y-55772260D01*
X16217000Y-55479740D01*
X16159932Y-55192842D01*
X16047990Y-54922589D01*
X15885475Y-54679368D01*
X15678632Y-54472525D01*
X15504240Y-54356000D01*
X15678632Y-54239475D01*
X15885475Y-54032632D01*
X16047990Y-53789411D01*
X16159932Y-53519158D01*
X16217000Y-53232260D01*
X16217000Y-52939740D01*
X16159932Y-52652842D01*
X16047990Y-52382589D01*
X15885475Y-52139368D01*
X15753620Y-52007513D01*
X15826180Y-51985502D01*
X15936494Y-51926537D01*
X16033185Y-51847185D01*
X16112537Y-51750494D01*
X16171502Y-51640180D01*
X16207812Y-51520482D01*
X16220072Y-51396000D01*
X16217000Y-50831750D01*
X16058250Y-50673000D01*
X14859000Y-50673000D01*
X14859000Y-50693000D01*
X14605000Y-50693000D01*
X14605000Y-50673000D01*
X13405750Y-50673000D01*
X13247000Y-50831750D01*
X13243928Y-51396000D01*
X12623000Y-51396000D01*
X12623000Y-49696000D01*
X13243928Y-49696000D01*
X13247000Y-50260250D01*
X13405750Y-50419000D01*
X14605000Y-50419000D01*
X14605000Y-49219750D01*
X14859000Y-49219750D01*
X14859000Y-50419000D01*
X16058250Y-50419000D01*
X16217000Y-50260250D01*
X16220072Y-49696000D01*
X16207812Y-49571518D01*
X16171502Y-49451820D01*
X16112537Y-49341506D01*
X16033185Y-49244815D01*
X15936494Y-49165463D01*
X15826180Y-49106498D01*
X15706482Y-49070188D01*
X15582000Y-49057928D01*
X15017750Y-49061000D01*
X14859000Y-49219750D01*
X14605000Y-49219750D01*
X14446250Y-49061000D01*
X13882000Y-49057928D01*
X13757518Y-49070188D01*
X13637820Y-49106498D01*
X13527506Y-49165463D01*
X13430815Y-49244815D01*
X13351463Y-49341506D01*
X13292498Y-49451820D01*
X13256188Y-49571518D01*
X13243928Y-49696000D01*
X12623000Y-49696000D01*
X12623000Y-37100000D01*
X13728928Y-37100000D01*
X13728928Y-39100000D01*
X13741188Y-39224482D01*
X13777498Y-39344180D01*
X13836463Y-39454494D01*
X13915815Y-39551185D01*
X14012506Y-39630537D01*
X14122820Y-39689502D01*
X14242518Y-39725812D01*
X14367000Y-39738072D01*
X16367000Y-39738072D01*
X16491482Y-39725812D01*
X16611180Y-39689502D01*
X16721494Y-39630537D01*
X16818185Y-39551185D01*
X16897537Y-39454494D01*
X16956502Y-39344180D01*
X16992812Y-39224482D01*
X17005072Y-39100000D01*
X17005072Y-37938967D01*
X21332000Y-37938967D01*
X21332000Y-38261033D01*
X21394832Y-38576912D01*
X21518082Y-38874463D01*
X21697013Y-39142252D01*
X21924748Y-39369987D01*
X22192537Y-39548918D01*
X22490088Y-39672168D01*
X22805967Y-39735000D01*
X23128033Y-39735000D01*
X23443912Y-39672168D01*
X23741463Y-39548918D01*
X24009252Y-39369987D01*
X24236987Y-39142252D01*
X24415918Y-38874463D01*
X24539168Y-38576912D01*
X24602000Y-38261033D01*
X24602000Y-37938967D01*
X24539168Y-37623088D01*
X24415918Y-37325537D01*
X24236987Y-37057748D01*
X24009252Y-36830013D01*
X23741463Y-36651082D01*
X23443912Y-36527832D01*
X23128033Y-36465000D01*
X22805967Y-36465000D01*
X22490088Y-36527832D01*
X22192537Y-36651082D01*
X21924748Y-36830013D01*
X21697013Y-37057748D01*
X21518082Y-37325537D01*
X21394832Y-37623088D01*
X21332000Y-37938967D01*
X17005072Y-37938967D01*
X17005072Y-37100000D01*
X16992812Y-36975518D01*
X16956502Y-36855820D01*
X16897537Y-36745506D01*
X16818185Y-36648815D01*
X16721494Y-36569463D01*
X16611180Y-36510498D01*
X16491482Y-36474188D01*
X16367000Y-36461928D01*
X14367000Y-36461928D01*
X14242518Y-36474188D01*
X14122820Y-36510498D01*
X14012506Y-36569463D01*
X13915815Y-36648815D01*
X13836463Y-36745506D01*
X13777498Y-36855820D01*
X13741188Y-36975518D01*
X13728928Y-37100000D01*
X12623000Y-37100000D01*
X12623000Y-31750000D01*
X24160880Y-31750000D01*
X24197275Y-32119524D01*
X24305061Y-32474848D01*
X24480097Y-32802317D01*
X24715655Y-33089345D01*
X25002683Y-33324903D01*
X25330152Y-33499939D01*
X25685476Y-33607725D01*
X25962403Y-33635000D01*
X28647597Y-33635000D01*
X28924524Y-33607725D01*
X29279848Y-33499939D01*
X29607317Y-33324903D01*
X29894345Y-33089345D01*
X30129903Y-32802317D01*
X30304939Y-32474848D01*
X30412725Y-32119524D01*
X30436611Y-31877000D01*
X52354880Y-31877000D01*
X52391275Y-32246524D01*
X52499061Y-32601848D01*
X52674097Y-32929317D01*
X52909655Y-33216345D01*
X53196683Y-33451903D01*
X53524152Y-33626939D01*
X53879476Y-33734725D01*
X54156403Y-33762000D01*
X56841597Y-33762000D01*
X57118524Y-33734725D01*
X57473848Y-33626939D01*
X57801317Y-33451903D01*
X58088345Y-33216345D01*
X58323903Y-32929317D01*
X58498939Y-32601848D01*
X58606725Y-32246524D01*
X58643120Y-31877000D01*
X58606725Y-31507476D01*
X58498939Y-31152152D01*
X58323903Y-30824683D01*
X58088345Y-30537655D01*
X57801317Y-30302097D01*
X57473848Y-30127061D01*
X57118524Y-30019275D01*
X56841597Y-29992000D01*
X54156403Y-29992000D01*
X53879476Y-30019275D01*
X53524152Y-30127061D01*
X53196683Y-30302097D01*
X52909655Y-30537655D01*
X52674097Y-30824683D01*
X52499061Y-31152152D01*
X52391275Y-31507476D01*
X52354880Y-31877000D01*
X30436611Y-31877000D01*
X30449120Y-31750000D01*
X30412725Y-31380476D01*
X30304939Y-31025152D01*
X30129903Y-30697683D01*
X29894345Y-30410655D01*
X29607317Y-30175097D01*
X29279848Y-30000061D01*
X28924524Y-29892275D01*
X28647597Y-29865000D01*
X25962403Y-29865000D01*
X25685476Y-29892275D01*
X25330152Y-30000061D01*
X25002683Y-30175097D01*
X24715655Y-30410655D01*
X24480097Y-30697683D01*
X24305061Y-31025152D01*
X24197275Y-31380476D01*
X24160880Y-31750000D01*
X12623000Y-31750000D01*
X12623000Y-28150117D01*
X14267000Y-28150117D01*
X14267000Y-28491883D01*
X14333675Y-28827081D01*
X14464463Y-29142831D01*
X14654337Y-29426998D01*
X14896002Y-29668663D01*
X15180169Y-29858537D01*
X15495919Y-29989325D01*
X15831117Y-30056000D01*
X16172883Y-30056000D01*
X16508081Y-29989325D01*
X16823831Y-29858537D01*
X17107998Y-29668663D01*
X17349663Y-29426998D01*
X17539537Y-29142831D01*
X17670325Y-28827081D01*
X17737000Y-28491883D01*
X17737000Y-28150117D01*
X17670325Y-27814919D01*
X17555849Y-27538548D01*
X20845000Y-27538548D01*
X20845001Y-29961453D01*
X20870468Y-30220020D01*
X20971106Y-30551781D01*
X21134535Y-30857534D01*
X21354472Y-31125529D01*
X21622467Y-31345466D01*
X21928220Y-31508895D01*
X22259981Y-31609533D01*
X22605000Y-31643515D01*
X22950020Y-31609533D01*
X23281781Y-31508895D01*
X23587534Y-31345466D01*
X23855529Y-31125529D01*
X24075466Y-30857534D01*
X24238895Y-30551781D01*
X24339533Y-30220020D01*
X24365000Y-29961453D01*
X24365000Y-27665548D01*
X49039000Y-27665548D01*
X49039001Y-30088453D01*
X49064468Y-30347020D01*
X49165106Y-30678781D01*
X49328535Y-30984534D01*
X49548472Y-31252529D01*
X49816467Y-31472466D01*
X50122220Y-31635895D01*
X50453981Y-31736533D01*
X50799000Y-31770515D01*
X51144020Y-31736533D01*
X51475781Y-31635895D01*
X51781534Y-31472466D01*
X52049529Y-31252529D01*
X52269466Y-30984534D01*
X52432895Y-30678781D01*
X52533533Y-30347020D01*
X52559000Y-30088453D01*
X52559000Y-28912117D01*
X63670000Y-28912117D01*
X63670000Y-29253883D01*
X63736675Y-29589081D01*
X63867463Y-29904831D01*
X64057337Y-30188998D01*
X64299002Y-30430663D01*
X64583169Y-30620537D01*
X64898919Y-30751325D01*
X65234117Y-30818000D01*
X65575883Y-30818000D01*
X65911081Y-30751325D01*
X66226831Y-30620537D01*
X66510998Y-30430663D01*
X66752663Y-30188998D01*
X66942537Y-29904831D01*
X67073325Y-29589081D01*
X67140000Y-29253883D01*
X67140000Y-28912117D01*
X67073325Y-28576919D01*
X66942537Y-28261169D01*
X66752663Y-27977002D01*
X66510998Y-27735337D01*
X66226831Y-27545463D01*
X65911081Y-27414675D01*
X65575883Y-27348000D01*
X65234117Y-27348000D01*
X64898919Y-27414675D01*
X64583169Y-27545463D01*
X64299002Y-27735337D01*
X64057337Y-27977002D01*
X63867463Y-28261169D01*
X63736675Y-28576919D01*
X63670000Y-28912117D01*
X52559000Y-28912117D01*
X52559000Y-27665547D01*
X52533533Y-27406980D01*
X52432895Y-27075219D01*
X52269466Y-26769466D01*
X52049529Y-26501471D01*
X51781533Y-26281534D01*
X51475780Y-26118105D01*
X51144019Y-26017467D01*
X50799000Y-25983485D01*
X50453980Y-26017467D01*
X50122219Y-26118105D01*
X49816466Y-26281534D01*
X49548471Y-26501471D01*
X49328534Y-26769467D01*
X49165105Y-27075220D01*
X49064467Y-27406981D01*
X49039000Y-27665548D01*
X24365000Y-27665548D01*
X24365000Y-27538547D01*
X24339533Y-27279980D01*
X24238895Y-26948219D01*
X24075466Y-26642466D01*
X23855529Y-26374471D01*
X23587533Y-26154534D01*
X23579131Y-26150043D01*
X24466067Y-26150043D01*
X24505371Y-26306190D01*
X24646056Y-26622207D01*
X24845689Y-26904705D01*
X25096599Y-27142829D01*
X25389144Y-27327427D01*
X25712081Y-27451406D01*
X26053000Y-27510000D01*
X27178000Y-27510000D01*
X27178000Y-25877000D01*
X27432000Y-25877000D01*
X27432000Y-27510000D01*
X28557000Y-27510000D01*
X28897919Y-27451406D01*
X29220856Y-27327427D01*
X29513401Y-27142829D01*
X29764311Y-26904705D01*
X29963944Y-26622207D01*
X30104629Y-26306190D01*
X30143933Y-26150043D01*
X30026206Y-25877000D01*
X52605485Y-25877000D01*
X52639467Y-26222020D01*
X52740105Y-26553781D01*
X52903534Y-26859534D01*
X53123471Y-27127529D01*
X53391466Y-27347466D01*
X53697219Y-27510895D01*
X54028980Y-27611533D01*
X54287547Y-27637000D01*
X56710453Y-27637000D01*
X56969020Y-27611533D01*
X57300781Y-27510895D01*
X57606534Y-27347466D01*
X57874529Y-27127529D01*
X58094466Y-26859534D01*
X58257895Y-26553781D01*
X58358533Y-26222020D01*
X58392515Y-25877000D01*
X58358533Y-25531980D01*
X58257895Y-25200219D01*
X58094466Y-24894466D01*
X57874529Y-24626471D01*
X57606534Y-24406534D01*
X57300781Y-24243105D01*
X56969020Y-24142467D01*
X56710453Y-24117000D01*
X54287547Y-24117000D01*
X54028980Y-24142467D01*
X53697219Y-24243105D01*
X53391466Y-24406534D01*
X53123471Y-24626471D01*
X52903534Y-24894466D01*
X52740105Y-25200219D01*
X52639467Y-25531980D01*
X52605485Y-25877000D01*
X30026206Y-25877000D01*
X27432000Y-25877000D01*
X27178000Y-25877000D01*
X24583794Y-25877000D01*
X24466067Y-26150043D01*
X23579131Y-26150043D01*
X23281780Y-25991105D01*
X22950019Y-25890467D01*
X22605000Y-25856485D01*
X22259980Y-25890467D01*
X21928219Y-25991105D01*
X21622466Y-26154534D01*
X21354471Y-26374471D01*
X21134534Y-26642467D01*
X20971105Y-26948220D01*
X20870467Y-27279981D01*
X20845000Y-27538548D01*
X17555849Y-27538548D01*
X17539537Y-27499169D01*
X17349663Y-27215002D01*
X17107998Y-26973337D01*
X16823831Y-26783463D01*
X16508081Y-26652675D01*
X16172883Y-26586000D01*
X15831117Y-26586000D01*
X15495919Y-26652675D01*
X15180169Y-26783463D01*
X14896002Y-26973337D01*
X14654337Y-27215002D01*
X14464463Y-27499169D01*
X14333675Y-27814919D01*
X14267000Y-28150117D01*
X12623000Y-28150117D01*
X12623000Y-25349957D01*
X24466067Y-25349957D01*
X24583794Y-25623000D01*
X27178000Y-25623000D01*
X27178000Y-23990000D01*
X27432000Y-23990000D01*
X27432000Y-25623000D01*
X30026206Y-25623000D01*
X30143933Y-25349957D01*
X30104629Y-25193810D01*
X29963944Y-24877793D01*
X29764311Y-24595295D01*
X29513401Y-24357171D01*
X29220856Y-24172573D01*
X28897919Y-24048594D01*
X28557000Y-23990000D01*
X27432000Y-23990000D01*
X27178000Y-23990000D01*
X26053000Y-23990000D01*
X25712081Y-24048594D01*
X25389144Y-24172573D01*
X25096599Y-24357171D01*
X24845689Y-24595295D01*
X24646056Y-24877793D01*
X24505371Y-25193810D01*
X24466067Y-25349957D01*
X12623000Y-25349957D01*
X12623000Y-23800520D01*
X68528892Y-23924479D01*
G37*
X68528892Y-23924479D02*
X68403904Y-101042000D01*
X12623000Y-101042000D01*
X12623000Y-98458872D01*
X22530000Y-98458872D01*
X22530000Y-98899128D01*
X22615890Y-99330925D01*
X22784369Y-99737669D01*
X23028962Y-100103729D01*
X23340271Y-100415038D01*
X23706331Y-100659631D01*
X24113075Y-100828110D01*
X24544872Y-100914000D01*
X24985128Y-100914000D01*
X25416925Y-100828110D01*
X25823669Y-100659631D01*
X26189729Y-100415038D01*
X26501038Y-100103729D01*
X26745631Y-99737669D01*
X26914110Y-99330925D01*
X27000000Y-98899128D01*
X27000000Y-98458872D01*
X42850000Y-98458872D01*
X42850000Y-98899128D01*
X42935890Y-99330925D01*
X43104369Y-99737669D01*
X43348962Y-100103729D01*
X43660271Y-100415038D01*
X44026331Y-100659631D01*
X44433075Y-100828110D01*
X44864872Y-100914000D01*
X45305128Y-100914000D01*
X45736925Y-100828110D01*
X46143669Y-100659631D01*
X46509729Y-100415038D01*
X46821038Y-100103729D01*
X47065631Y-99737669D01*
X47234110Y-99330925D01*
X47320000Y-98899128D01*
X47320000Y-98458872D01*
X47234110Y-98027075D01*
X47065631Y-97620331D01*
X46821038Y-97254271D01*
X46509729Y-96942962D01*
X46143669Y-96698369D01*
X45736925Y-96529890D01*
X45305128Y-96444000D01*
X44864872Y-96444000D01*
X44433075Y-96529890D01*
X44026331Y-96698369D01*
X43660271Y-96942962D01*
X43348962Y-97254271D01*
X43104369Y-97620331D01*
X42935890Y-98027075D01*
X42850000Y-98458872D01*
X27000000Y-98458872D01*
X26914110Y-98027075D01*
X26745631Y-97620331D01*
X26501038Y-97254271D01*
X26189729Y-96942962D01*
X25823669Y-96698369D01*
X25416925Y-96529890D01*
X24985128Y-96444000D01*
X24544872Y-96444000D01*
X24113075Y-96529890D01*
X23706331Y-96698369D01*
X23340271Y-96942962D01*
X23028962Y-97254271D01*
X22784369Y-97620331D01*
X22615890Y-98027075D01*
X22530000Y-98458872D01*
X12623000Y-98458872D01*
X12623000Y-95670000D01*
X13243928Y-95670000D01*
X13243928Y-97370000D01*
X13256188Y-97494482D01*
X13292498Y-97614180D01*
X13351463Y-97724494D01*
X13430815Y-97821185D01*
X13527506Y-97900537D01*
X13637820Y-97959502D01*
X13757518Y-97995812D01*
X13882000Y-98008072D01*
X15582000Y-98008072D01*
X15706482Y-97995812D01*
X15826180Y-97959502D01*
X15936494Y-97900537D01*
X16033185Y-97821185D01*
X16112537Y-97724494D01*
X16171502Y-97614180D01*
X16207812Y-97494482D01*
X16220072Y-97370000D01*
X16220072Y-95670000D01*
X16207812Y-95545518D01*
X16171502Y-95425820D01*
X16112537Y-95315506D01*
X16033185Y-95218815D01*
X15936494Y-95139463D01*
X15826180Y-95080498D01*
X15753620Y-95058487D01*
X15885475Y-94926632D01*
X16047990Y-94683411D01*
X16159932Y-94413158D01*
X16217000Y-94126260D01*
X16217000Y-93833740D01*
X16161579Y-93555117D01*
X17569000Y-93555117D01*
X17569000Y-93896883D01*
X17635675Y-94232081D01*
X17766463Y-94547831D01*
X17956337Y-94831998D01*
X18198002Y-95073663D01*
X18482169Y-95263537D01*
X18797919Y-95394325D01*
X19133117Y-95461000D01*
X19474883Y-95461000D01*
X19810081Y-95394325D01*
X20125831Y-95263537D01*
X20409998Y-95073663D01*
X20651663Y-94831998D01*
X20841537Y-94547831D01*
X20972325Y-94232081D01*
X21039000Y-93896883D01*
X21039000Y-93555117D01*
X20972325Y-93219919D01*
X20841537Y-92904169D01*
X20651663Y-92620002D01*
X20409998Y-92378337D01*
X20125831Y-92188463D01*
X19810081Y-92057675D01*
X19474883Y-91991000D01*
X19133117Y-91991000D01*
X18797919Y-92057675D01*
X18482169Y-92188463D01*
X18198002Y-92378337D01*
X17956337Y-92620002D01*
X17766463Y-92904169D01*
X17635675Y-93219919D01*
X17569000Y-93555117D01*
X16161579Y-93555117D01*
X16159932Y-93546842D01*
X16047990Y-93276589D01*
X15885475Y-93033368D01*
X15678632Y-92826525D01*
X15504240Y-92710000D01*
X15678632Y-92593475D01*
X15885475Y-92386632D01*
X16047990Y-92143411D01*
X16159932Y-91873158D01*
X16217000Y-91586260D01*
X16217000Y-91293740D01*
X16159932Y-91006842D01*
X16047990Y-90736589D01*
X15885475Y-90493368D01*
X15678632Y-90286525D01*
X15504240Y-90170000D01*
X15678632Y-90053475D01*
X15885475Y-89846632D01*
X16047990Y-89603411D01*
X16159932Y-89333158D01*
X16217000Y-89046260D01*
X16217000Y-88753740D01*
X16159932Y-88466842D01*
X16047990Y-88196589D01*
X15885475Y-87953368D01*
X15678632Y-87746525D01*
X15435411Y-87584010D01*
X15165158Y-87472068D01*
X14878260Y-87415000D01*
X14585740Y-87415000D01*
X14298842Y-87472068D01*
X14028589Y-87584010D01*
X13785368Y-87746525D01*
X13578525Y-87953368D01*
X13416010Y-88196589D01*
X13304068Y-88466842D01*
X13247000Y-88753740D01*
X13247000Y-89046260D01*
X13304068Y-89333158D01*
X13416010Y-89603411D01*
X13578525Y-89846632D01*
X13785368Y-90053475D01*
X13959760Y-90170000D01*
X13785368Y-90286525D01*
X13578525Y-90493368D01*
X13416010Y-90736589D01*
X13304068Y-91006842D01*
X13247000Y-91293740D01*
X13247000Y-91586260D01*
X13304068Y-91873158D01*
X13416010Y-92143411D01*
X13578525Y-92386632D01*
X13785368Y-92593475D01*
X13959760Y-92710000D01*
X13785368Y-92826525D01*
X13578525Y-93033368D01*
X13416010Y-93276589D01*
X13304068Y-93546842D01*
X13247000Y-93833740D01*
X13247000Y-94126260D01*
X13304068Y-94413158D01*
X13416010Y-94683411D01*
X13578525Y-94926632D01*
X13710380Y-95058487D01*
X13637820Y-95080498D01*
X13527506Y-95139463D01*
X13430815Y-95218815D01*
X13351463Y-95315506D01*
X13292498Y-95425820D01*
X13256188Y-95545518D01*
X13243928Y-95670000D01*
X12623000Y-95670000D01*
X12623000Y-80557000D01*
X13243928Y-80557000D01*
X13243928Y-82257000D01*
X13256188Y-82381482D01*
X13292498Y-82501180D01*
X13351463Y-82611494D01*
X13430815Y-82708185D01*
X13527506Y-82787537D01*
X13637820Y-82846502D01*
X13757518Y-82882812D01*
X13882000Y-82895072D01*
X15582000Y-82895072D01*
X15706482Y-82882812D01*
X15826180Y-82846502D01*
X15936494Y-82787537D01*
X16033185Y-82708185D01*
X16112537Y-82611494D01*
X16171502Y-82501180D01*
X16207812Y-82381482D01*
X16220072Y-82257000D01*
X16220072Y-80557000D01*
X16207812Y-80432518D01*
X16171502Y-80312820D01*
X16112537Y-80202506D01*
X16033185Y-80105815D01*
X15936494Y-80026463D01*
X15826180Y-79967498D01*
X15753620Y-79945487D01*
X15885475Y-79813632D01*
X16047990Y-79570411D01*
X16159932Y-79300158D01*
X16217000Y-79013260D01*
X16217000Y-78720740D01*
X16159932Y-78433842D01*
X16047990Y-78163589D01*
X15885475Y-77920368D01*
X15678632Y-77713525D01*
X15435411Y-77551010D01*
X15165158Y-77439068D01*
X14878260Y-77382000D01*
X14585740Y-77382000D01*
X14298842Y-77439068D01*
X14028589Y-77551010D01*
X13785368Y-77713525D01*
X13578525Y-77920368D01*
X13416010Y-78163589D01*
X13304068Y-78433842D01*
X13247000Y-78720740D01*
X13247000Y-79013260D01*
X13304068Y-79300158D01*
X13416010Y-79570411D01*
X13578525Y-79813632D01*
X13710380Y-79945487D01*
X13637820Y-79967498D01*
X13527506Y-80026463D01*
X13430815Y-80105815D01*
X13351463Y-80202506D01*
X13292498Y-80312820D01*
X13256188Y-80432518D01*
X13243928Y-80557000D01*
X12623000Y-80557000D01*
X12623000Y-51396000D01*
X13243928Y-51396000D01*
X13256188Y-51520482D01*
X13292498Y-51640180D01*
X13351463Y-51750494D01*
X13430815Y-51847185D01*
X13527506Y-51926537D01*
X13637820Y-51985502D01*
X13710380Y-52007513D01*
X13578525Y-52139368D01*
X13416010Y-52382589D01*
X13304068Y-52652842D01*
X13247000Y-52939740D01*
X13247000Y-53232260D01*
X13304068Y-53519158D01*
X13416010Y-53789411D01*
X13578525Y-54032632D01*
X13785368Y-54239475D01*
X13959760Y-54356000D01*
X13785368Y-54472525D01*
X13578525Y-54679368D01*
X13416010Y-54922589D01*
X13304068Y-55192842D01*
X13247000Y-55479740D01*
X13247000Y-55772260D01*
X13304068Y-56059158D01*
X13416010Y-56329411D01*
X13578525Y-56572632D01*
X13785368Y-56779475D01*
X13959760Y-56896000D01*
X13785368Y-57012525D01*
X13578525Y-57219368D01*
X13416010Y-57462589D01*
X13304068Y-57732842D01*
X13247000Y-58019740D01*
X13247000Y-58312260D01*
X13304068Y-58599158D01*
X13416010Y-58869411D01*
X13578525Y-59112632D01*
X13785368Y-59319475D01*
X13959760Y-59436000D01*
X13785368Y-59552525D01*
X13578525Y-59759368D01*
X13416010Y-60002589D01*
X13304068Y-60272842D01*
X13247000Y-60559740D01*
X13247000Y-60852260D01*
X13304068Y-61139158D01*
X13416010Y-61409411D01*
X13578525Y-61652632D01*
X13785368Y-61859475D01*
X13959760Y-61976000D01*
X13785368Y-62092525D01*
X13578525Y-62299368D01*
X13416010Y-62542589D01*
X13304068Y-62812842D01*
X13247000Y-63099740D01*
X13247000Y-63392260D01*
X13304068Y-63679158D01*
X13416010Y-63949411D01*
X13578525Y-64192632D01*
X13785368Y-64399475D01*
X13959760Y-64516000D01*
X13785368Y-64632525D01*
X13578525Y-64839368D01*
X13416010Y-65082589D01*
X13304068Y-65352842D01*
X13247000Y-65639740D01*
X13247000Y-65932260D01*
X13304068Y-66219158D01*
X13416010Y-66489411D01*
X13578525Y-66732632D01*
X13785368Y-66939475D01*
X13959760Y-67056000D01*
X13785368Y-67172525D01*
X13578525Y-67379368D01*
X13416010Y-67622589D01*
X13304068Y-67892842D01*
X13247000Y-68179740D01*
X13247000Y-68472260D01*
X13304068Y-68759158D01*
X13416010Y-69029411D01*
X13578525Y-69272632D01*
X13785368Y-69479475D01*
X13959760Y-69596000D01*
X13785368Y-69712525D01*
X13578525Y-69919368D01*
X13416010Y-70162589D01*
X13304068Y-70432842D01*
X13247000Y-70719740D01*
X13247000Y-71012260D01*
X13304068Y-71299158D01*
X13416010Y-71569411D01*
X13578525Y-71812632D01*
X13785368Y-72019475D01*
X13959760Y-72136000D01*
X13785368Y-72252525D01*
X13578525Y-72459368D01*
X13416010Y-72702589D01*
X13304068Y-72972842D01*
X13247000Y-73259740D01*
X13247000Y-73552260D01*
X13304068Y-73839158D01*
X13416010Y-74109411D01*
X13578525Y-74352632D01*
X13785368Y-74559475D01*
X14028589Y-74721990D01*
X14298842Y-74833932D01*
X14585740Y-74891000D01*
X14878260Y-74891000D01*
X15165158Y-74833932D01*
X15435411Y-74721990D01*
X15678632Y-74559475D01*
X15885475Y-74352632D01*
X16047990Y-74109411D01*
X16159932Y-73839158D01*
X16217000Y-73552260D01*
X16217000Y-73259740D01*
X16159932Y-72972842D01*
X16047990Y-72702589D01*
X15885475Y-72459368D01*
X15678632Y-72252525D01*
X15504240Y-72136000D01*
X15678632Y-72019475D01*
X15885475Y-71812632D01*
X16047990Y-71569411D01*
X16159932Y-71299158D01*
X16217000Y-71012260D01*
X16217000Y-70719740D01*
X16159932Y-70432842D01*
X16047990Y-70162589D01*
X15885475Y-69919368D01*
X15678632Y-69712525D01*
X15504240Y-69596000D01*
X15678632Y-69479475D01*
X15885475Y-69272632D01*
X16047990Y-69029411D01*
X16159932Y-68759158D01*
X16217000Y-68472260D01*
X16217000Y-68179740D01*
X16159932Y-67892842D01*
X16047990Y-67622589D01*
X15885475Y-67379368D01*
X15678632Y-67172525D01*
X15504240Y-67056000D01*
X15678632Y-66939475D01*
X15885475Y-66732632D01*
X16047990Y-66489411D01*
X16159932Y-66219158D01*
X16217000Y-65932260D01*
X16217000Y-65639740D01*
X16159932Y-65352842D01*
X16047990Y-65082589D01*
X15885475Y-64839368D01*
X15678632Y-64632525D01*
X15504240Y-64516000D01*
X15678632Y-64399475D01*
X15885475Y-64192632D01*
X16047990Y-63949411D01*
X16159932Y-63679158D01*
X16217000Y-63392260D01*
X16217000Y-63099740D01*
X16159932Y-62812842D01*
X16047990Y-62542589D01*
X15885475Y-62299368D01*
X15678632Y-62092525D01*
X15504240Y-61976000D01*
X15678632Y-61859475D01*
X15885475Y-61652632D01*
X16047990Y-61409411D01*
X16159932Y-61139158D01*
X16170306Y-61087000D01*
X20951314Y-61087000D01*
X20955001Y-61124433D01*
X20955000Y-80353577D01*
X20951314Y-80391000D01*
X20955000Y-80428423D01*
X20955000Y-80428425D01*
X20966026Y-80540377D01*
X21009598Y-80684014D01*
X21009599Y-80684015D01*
X21080355Y-80816392D01*
X21110407Y-80853010D01*
X21175578Y-80932422D01*
X21204654Y-80956284D01*
X22030954Y-81782584D01*
X21983700Y-82020150D01*
X21983700Y-82317850D01*
X22041778Y-82609830D01*
X22155703Y-82884869D01*
X22321096Y-83132398D01*
X22531602Y-83342904D01*
X22675420Y-83439000D01*
X22531602Y-83535096D01*
X22321096Y-83745602D01*
X22155703Y-83993131D01*
X22041778Y-84268170D01*
X21983700Y-84560150D01*
X21983700Y-84857850D01*
X22041778Y-85149830D01*
X22155703Y-85424869D01*
X22321096Y-85672398D01*
X22531602Y-85882904D01*
X22675420Y-85979000D01*
X22531602Y-86075096D01*
X22321096Y-86285602D01*
X22155703Y-86533131D01*
X22041778Y-86808170D01*
X21983700Y-87100150D01*
X21983700Y-87397850D01*
X22041778Y-87689830D01*
X22155703Y-87964869D01*
X22321096Y-88212398D01*
X22531602Y-88422904D01*
X22675420Y-88519000D01*
X22531602Y-88615096D01*
X22321096Y-88825602D01*
X22155703Y-89073131D01*
X22041778Y-89348170D01*
X21983700Y-89640150D01*
X21983700Y-89937850D01*
X22041778Y-90229830D01*
X22155703Y-90504869D01*
X22321096Y-90752398D01*
X22531602Y-90962904D01*
X22675420Y-91059000D01*
X22531602Y-91155096D01*
X22321096Y-91365602D01*
X22155703Y-91613131D01*
X22041778Y-91888170D01*
X21983700Y-92180150D01*
X21983700Y-92477850D01*
X22041778Y-92769830D01*
X22155703Y-93044869D01*
X22321096Y-93292398D01*
X22531602Y-93502904D01*
X22675420Y-93599000D01*
X22531602Y-93695096D01*
X22321096Y-93905602D01*
X22155703Y-94153131D01*
X22041778Y-94428170D01*
X21983700Y-94720150D01*
X21983700Y-95017850D01*
X22041778Y-95309830D01*
X22155703Y-95584869D01*
X22321096Y-95832398D01*
X22531602Y-96042904D01*
X22779131Y-96208297D01*
X23054170Y-96322222D01*
X23346150Y-96380300D01*
X23643850Y-96380300D01*
X23935830Y-96322222D01*
X24210869Y-96208297D01*
X24458398Y-96042904D01*
X24668904Y-95832398D01*
X24834297Y-95584869D01*
X24948222Y-95309830D01*
X25006300Y-95017850D01*
X25006300Y-94720150D01*
X24948222Y-94428170D01*
X24834297Y-94153131D01*
X24727101Y-93992700D01*
X44840628Y-93992700D01*
X44840628Y-95745300D01*
X44852888Y-95869782D01*
X44889198Y-95989480D01*
X44948163Y-96099794D01*
X45027515Y-96196485D01*
X45124206Y-96275837D01*
X45234520Y-96334802D01*
X45354218Y-96371112D01*
X45478700Y-96383372D01*
X47231300Y-96383372D01*
X47355782Y-96371112D01*
X47475480Y-96334802D01*
X47585794Y-96275837D01*
X47682485Y-96196485D01*
X47761837Y-96099794D01*
X47820802Y-95989480D01*
X47857112Y-95869782D01*
X47869372Y-95745300D01*
X47869372Y-94019000D01*
X50708928Y-94019000D01*
X50708928Y-95719000D01*
X50721188Y-95843482D01*
X50757498Y-95963180D01*
X50816463Y-96073494D01*
X50895815Y-96170185D01*
X50992506Y-96249537D01*
X51102820Y-96308502D01*
X51222518Y-96344812D01*
X51347000Y-96357072D01*
X53047000Y-96357072D01*
X53171482Y-96344812D01*
X53291180Y-96308502D01*
X53401494Y-96249537D01*
X53498185Y-96170185D01*
X53577537Y-96073494D01*
X53636502Y-95963180D01*
X53672812Y-95843482D01*
X53685072Y-95719000D01*
X53685072Y-94952117D01*
X55288000Y-94952117D01*
X55288000Y-95293883D01*
X55354675Y-95629081D01*
X55485463Y-95944831D01*
X55675337Y-96228998D01*
X55917002Y-96470663D01*
X56201169Y-96660537D01*
X56516919Y-96791325D01*
X56852117Y-96858000D01*
X57193883Y-96858000D01*
X57529081Y-96791325D01*
X57844831Y-96660537D01*
X58128998Y-96470663D01*
X58370663Y-96228998D01*
X58560537Y-95944831D01*
X58691325Y-95629081D01*
X58758000Y-95293883D01*
X58758000Y-94952117D01*
X58691325Y-94616919D01*
X58560537Y-94301169D01*
X58370663Y-94017002D01*
X58128998Y-93775337D01*
X57844831Y-93585463D01*
X57529081Y-93454675D01*
X57193883Y-93388000D01*
X56852117Y-93388000D01*
X56516919Y-93454675D01*
X56201169Y-93585463D01*
X55917002Y-93775337D01*
X55675337Y-94017002D01*
X55485463Y-94301169D01*
X55354675Y-94616919D01*
X55288000Y-94952117D01*
X53685072Y-94952117D01*
X53685072Y-94019000D01*
X53672812Y-93894518D01*
X53636502Y-93774820D01*
X53577537Y-93664506D01*
X53498185Y-93567815D01*
X53401494Y-93488463D01*
X53291180Y-93429498D01*
X53171482Y-93393188D01*
X53047000Y-93380928D01*
X51347000Y-93380928D01*
X51222518Y-93393188D01*
X51102820Y-93429498D01*
X50992506Y-93488463D01*
X50895815Y-93567815D01*
X50816463Y-93664506D01*
X50757498Y-93774820D01*
X50721188Y-93894518D01*
X50708928Y-94019000D01*
X47869372Y-94019000D01*
X47869372Y-93992700D01*
X47857112Y-93868218D01*
X47820802Y-93748520D01*
X47761837Y-93638206D01*
X47682485Y-93541515D01*
X47585794Y-93462163D01*
X47475480Y-93403198D01*
X47431458Y-93389844D01*
X47528904Y-93292398D01*
X47694297Y-93044869D01*
X47808222Y-92769830D01*
X47866300Y-92477850D01*
X47866300Y-92180150D01*
X47808222Y-91888170D01*
X47694297Y-91613131D01*
X47528904Y-91365602D01*
X47318398Y-91155096D01*
X47174580Y-91059000D01*
X47318398Y-90962904D01*
X47528904Y-90752398D01*
X47694297Y-90504869D01*
X47808222Y-90229830D01*
X47866300Y-89937850D01*
X47866300Y-89640150D01*
X47808222Y-89348170D01*
X47694297Y-89073131D01*
X47528904Y-88825602D01*
X47318398Y-88615096D01*
X47174580Y-88519000D01*
X47318398Y-88422904D01*
X47528904Y-88212398D01*
X47694297Y-87964869D01*
X47808222Y-87689830D01*
X47866300Y-87397850D01*
X47866300Y-87100150D01*
X47808222Y-86808170D01*
X47694297Y-86533131D01*
X47528904Y-86285602D01*
X47318398Y-86075096D01*
X47174580Y-85979000D01*
X47318398Y-85882904D01*
X47528904Y-85672398D01*
X47694297Y-85424869D01*
X47808222Y-85149830D01*
X47866300Y-84857850D01*
X47866300Y-84560150D01*
X47808222Y-84268170D01*
X47694297Y-83993131D01*
X47528904Y-83745602D01*
X47318398Y-83535096D01*
X47174580Y-83439000D01*
X47318398Y-83342904D01*
X47528904Y-83132398D01*
X47694297Y-82884869D01*
X47808222Y-82609830D01*
X47866300Y-82317850D01*
X47866300Y-82020150D01*
X47808222Y-81728170D01*
X47694297Y-81453131D01*
X47528904Y-81205602D01*
X47318398Y-80995096D01*
X47174580Y-80899000D01*
X47318398Y-80802904D01*
X47528904Y-80592398D01*
X47694297Y-80344869D01*
X47808222Y-80069830D01*
X47866300Y-79777850D01*
X47866300Y-79480150D01*
X47808222Y-79188170D01*
X47694297Y-78913131D01*
X47528904Y-78665602D01*
X47318398Y-78455096D01*
X47174580Y-78359000D01*
X47318398Y-78262904D01*
X47528904Y-78052398D01*
X47694297Y-77804869D01*
X47808222Y-77529830D01*
X47866300Y-77237850D01*
X47866300Y-76940150D01*
X47808222Y-76648170D01*
X47694297Y-76373131D01*
X47528904Y-76125602D01*
X47318398Y-75915096D01*
X47174580Y-75819000D01*
X47318398Y-75722904D01*
X47528904Y-75512398D01*
X47694297Y-75264869D01*
X47808222Y-74989830D01*
X47866300Y-74697850D01*
X47866300Y-74400150D01*
X47808222Y-74108170D01*
X47694297Y-73833131D01*
X47604674Y-73699000D01*
X50708928Y-73699000D01*
X50708928Y-75399000D01*
X50721188Y-75523482D01*
X50757498Y-75643180D01*
X50816463Y-75753494D01*
X50895815Y-75850185D01*
X50992506Y-75929537D01*
X51102820Y-75988502D01*
X51175380Y-76010513D01*
X51043525Y-76142368D01*
X50881010Y-76385589D01*
X50769068Y-76655842D01*
X50712000Y-76942740D01*
X50712000Y-77235260D01*
X50769068Y-77522158D01*
X50881010Y-77792411D01*
X51043525Y-78035632D01*
X51250368Y-78242475D01*
X51424760Y-78359000D01*
X51250368Y-78475525D01*
X51043525Y-78682368D01*
X50881010Y-78925589D01*
X50769068Y-79195842D01*
X50712000Y-79482740D01*
X50712000Y-79775260D01*
X50769068Y-80062158D01*
X50881010Y-80332411D01*
X51043525Y-80575632D01*
X51250368Y-80782475D01*
X51424760Y-80899000D01*
X51250368Y-81015525D01*
X51043525Y-81222368D01*
X50881010Y-81465589D01*
X50769068Y-81735842D01*
X50712000Y-82022740D01*
X50712000Y-82315260D01*
X50769068Y-82602158D01*
X50881010Y-82872411D01*
X51043525Y-83115632D01*
X51250368Y-83322475D01*
X51424760Y-83439000D01*
X51250368Y-83555525D01*
X51043525Y-83762368D01*
X50881010Y-84005589D01*
X50769068Y-84275842D01*
X50712000Y-84562740D01*
X50712000Y-84855260D01*
X50769068Y-85142158D01*
X50881010Y-85412411D01*
X51043525Y-85655632D01*
X51250368Y-85862475D01*
X51424760Y-85979000D01*
X51250368Y-86095525D01*
X51043525Y-86302368D01*
X50881010Y-86545589D01*
X50769068Y-86815842D01*
X50712000Y-87102740D01*
X50712000Y-87395260D01*
X50769068Y-87682158D01*
X50881010Y-87952411D01*
X51043525Y-88195632D01*
X51250368Y-88402475D01*
X51493589Y-88564990D01*
X51763842Y-88676932D01*
X52050740Y-88734000D01*
X52343260Y-88734000D01*
X52630158Y-88676932D01*
X52900411Y-88564990D01*
X53143632Y-88402475D01*
X53350475Y-88195632D01*
X53512990Y-87952411D01*
X53624932Y-87682158D01*
X53682000Y-87395260D01*
X53682000Y-87102740D01*
X53624932Y-86815842D01*
X53512990Y-86545589D01*
X53350475Y-86302368D01*
X53143632Y-86095525D01*
X52969240Y-85979000D01*
X53143632Y-85862475D01*
X53350475Y-85655632D01*
X53512990Y-85412411D01*
X53624932Y-85142158D01*
X53682000Y-84855260D01*
X53682000Y-84562740D01*
X53624932Y-84275842D01*
X53512990Y-84005589D01*
X53350475Y-83762368D01*
X53143632Y-83555525D01*
X52969240Y-83439000D01*
X53143632Y-83322475D01*
X53350475Y-83115632D01*
X53512990Y-82872411D01*
X53624932Y-82602158D01*
X53682000Y-82315260D01*
X53682000Y-82022740D01*
X53624932Y-81735842D01*
X53512990Y-81465589D01*
X53350475Y-81222368D01*
X53143632Y-81015525D01*
X52969240Y-80899000D01*
X53143632Y-80782475D01*
X53350475Y-80575632D01*
X53512990Y-80332411D01*
X53624932Y-80062158D01*
X53682000Y-79775260D01*
X53682000Y-79482740D01*
X53624932Y-79195842D01*
X53512990Y-78925589D01*
X53350475Y-78682368D01*
X53143632Y-78475525D01*
X52969240Y-78359000D01*
X53143632Y-78242475D01*
X53350475Y-78035632D01*
X53512990Y-77792411D01*
X53624932Y-77522158D01*
X53682000Y-77235260D01*
X53682000Y-76942740D01*
X53624932Y-76655842D01*
X53512990Y-76385589D01*
X53350475Y-76142368D01*
X53218620Y-76010513D01*
X53291180Y-75988502D01*
X53401494Y-75929537D01*
X53498185Y-75850185D01*
X53577537Y-75753494D01*
X53636502Y-75643180D01*
X53672812Y-75523482D01*
X53685072Y-75399000D01*
X53685072Y-73699000D01*
X53672812Y-73574518D01*
X53636502Y-73454820D01*
X53577537Y-73344506D01*
X53498185Y-73247815D01*
X53401494Y-73168463D01*
X53291180Y-73109498D01*
X53171482Y-73073188D01*
X53047000Y-73060928D01*
X51347000Y-73060928D01*
X51222518Y-73073188D01*
X51102820Y-73109498D01*
X50992506Y-73168463D01*
X50895815Y-73247815D01*
X50816463Y-73344506D01*
X50757498Y-73454820D01*
X50721188Y-73574518D01*
X50708928Y-73699000D01*
X47604674Y-73699000D01*
X47528904Y-73585602D01*
X47318398Y-73375096D01*
X47155191Y-73266045D01*
X47222563Y-73056169D01*
X46355000Y-72188605D01*
X45487437Y-73056169D01*
X45554809Y-73266045D01*
X45391602Y-73375096D01*
X45181096Y-73585602D01*
X45015703Y-73833131D01*
X44901778Y-74108170D01*
X44843700Y-74400150D01*
X44843700Y-74697850D01*
X44901778Y-74989830D01*
X45015703Y-75264869D01*
X45181096Y-75512398D01*
X45391602Y-75722904D01*
X45535420Y-75819000D01*
X45391602Y-75915096D01*
X45181096Y-76125602D01*
X45015703Y-76373131D01*
X44901778Y-76648170D01*
X44843700Y-76940150D01*
X44843700Y-77237850D01*
X44901778Y-77529830D01*
X45015703Y-77804869D01*
X45181096Y-78052398D01*
X45391602Y-78262904D01*
X45535420Y-78359000D01*
X45391602Y-78455096D01*
X45181096Y-78665602D01*
X45015703Y-78913131D01*
X44901778Y-79188170D01*
X44843700Y-79480150D01*
X44843700Y-79777850D01*
X44901778Y-80069830D01*
X45015703Y-80344869D01*
X45181096Y-80592398D01*
X45391602Y-80802904D01*
X45535420Y-80899000D01*
X45391602Y-80995096D01*
X45181096Y-81205602D01*
X45015703Y-81453131D01*
X44901778Y-81728170D01*
X44843700Y-82020150D01*
X44843700Y-82317850D01*
X44901778Y-82609830D01*
X45015703Y-82884869D01*
X45181096Y-83132398D01*
X45391602Y-83342904D01*
X45535420Y-83439000D01*
X45391602Y-83535096D01*
X45181096Y-83745602D01*
X45015703Y-83993131D01*
X44901778Y-84268170D01*
X44843700Y-84560150D01*
X44843700Y-84857850D01*
X44901778Y-85149830D01*
X45015703Y-85424869D01*
X45181096Y-85672398D01*
X45391602Y-85882904D01*
X45535420Y-85979000D01*
X45391602Y-86075096D01*
X45181096Y-86285602D01*
X45015703Y-86533131D01*
X44901778Y-86808170D01*
X44843700Y-87100150D01*
X44843700Y-87397850D01*
X44901778Y-87689830D01*
X45015703Y-87964869D01*
X45181096Y-88212398D01*
X45391602Y-88422904D01*
X45535420Y-88519000D01*
X45391602Y-88615096D01*
X45181096Y-88825602D01*
X45015703Y-89073131D01*
X44901778Y-89348170D01*
X44843700Y-89640150D01*
X44843700Y-89937850D01*
X44901778Y-90229830D01*
X45015703Y-90504869D01*
X45181096Y-90752398D01*
X45391602Y-90962904D01*
X45535420Y-91059000D01*
X45391602Y-91155096D01*
X45181096Y-91365602D01*
X45015703Y-91613131D01*
X44901778Y-91888170D01*
X44843700Y-92180150D01*
X44843700Y-92477850D01*
X44901778Y-92769830D01*
X45015703Y-93044869D01*
X45181096Y-93292398D01*
X45278542Y-93389844D01*
X45234520Y-93403198D01*
X45124206Y-93462163D01*
X45027515Y-93541515D01*
X44948163Y-93638206D01*
X44889198Y-93748520D01*
X44852888Y-93868218D01*
X44840628Y-93992700D01*
X24727101Y-93992700D01*
X24668904Y-93905602D01*
X24458398Y-93695096D01*
X24314580Y-93599000D01*
X24458398Y-93502904D01*
X24668904Y-93292398D01*
X24834297Y-93044869D01*
X24948222Y-92769830D01*
X25006300Y-92477850D01*
X25006300Y-92180150D01*
X24948222Y-91888170D01*
X24834297Y-91613131D01*
X24668904Y-91365602D01*
X24458398Y-91155096D01*
X24314580Y-91059000D01*
X24458398Y-90962904D01*
X24668904Y-90752398D01*
X24834297Y-90504869D01*
X24948222Y-90229830D01*
X25006300Y-89937850D01*
X25006300Y-89640150D01*
X24948222Y-89348170D01*
X24834297Y-89073131D01*
X24668904Y-88825602D01*
X24458398Y-88615096D01*
X24314580Y-88519000D01*
X24458398Y-88422904D01*
X24668904Y-88212398D01*
X24834297Y-87964869D01*
X24948222Y-87689830D01*
X25006300Y-87397850D01*
X25006300Y-87100150D01*
X24948222Y-86808170D01*
X24834297Y-86533131D01*
X24668904Y-86285602D01*
X24458398Y-86075096D01*
X24314580Y-85979000D01*
X24458398Y-85882904D01*
X24668904Y-85672398D01*
X24834297Y-85424869D01*
X24948222Y-85149830D01*
X25006300Y-84857850D01*
X25006300Y-84560150D01*
X24948222Y-84268170D01*
X24834297Y-83993131D01*
X24668904Y-83745602D01*
X24458398Y-83535096D01*
X24314580Y-83439000D01*
X24458398Y-83342904D01*
X24668904Y-83132398D01*
X24803473Y-82931000D01*
X33617577Y-82931000D01*
X33655000Y-82934686D01*
X33692423Y-82931000D01*
X33692426Y-82931000D01*
X33804378Y-82919974D01*
X33948015Y-82876402D01*
X34080392Y-82805645D01*
X34196422Y-82710422D01*
X34220284Y-82681346D01*
X44838611Y-72063019D01*
X44837887Y-72076491D01*
X44880204Y-72371167D01*
X44979198Y-72651927D01*
X45056071Y-72795746D01*
X45307831Y-72876563D01*
X46175395Y-72009000D01*
X46534605Y-72009000D01*
X47402169Y-72876563D01*
X47653929Y-72795746D01*
X47782457Y-72527221D01*
X47856129Y-72238781D01*
X47872113Y-71941509D01*
X47829796Y-71646833D01*
X47730802Y-71366073D01*
X47653929Y-71222254D01*
X47402169Y-71141437D01*
X46534605Y-72009000D01*
X46175395Y-72009000D01*
X46161253Y-71994858D01*
X46340858Y-71815253D01*
X46355000Y-71829395D01*
X47222563Y-70961831D01*
X47155191Y-70751955D01*
X47318398Y-70642904D01*
X47528904Y-70432398D01*
X47694297Y-70184869D01*
X47808222Y-69909830D01*
X47866300Y-69617850D01*
X47866300Y-69320150D01*
X47808222Y-69028170D01*
X47694297Y-68753131D01*
X47528904Y-68505602D01*
X47318398Y-68295096D01*
X47174580Y-68199000D01*
X47318398Y-68102904D01*
X47528904Y-67892398D01*
X47694297Y-67644869D01*
X47808222Y-67369830D01*
X47866300Y-67077850D01*
X47866300Y-66780150D01*
X47808222Y-66488170D01*
X47694297Y-66213131D01*
X47604178Y-66078258D01*
X50016436Y-63666000D01*
X50581928Y-63666000D01*
X50581928Y-65366000D01*
X50594188Y-65490482D01*
X50630498Y-65610180D01*
X50689463Y-65720494D01*
X50768815Y-65817185D01*
X50865506Y-65896537D01*
X50975820Y-65955502D01*
X51048380Y-65977513D01*
X50916525Y-66109368D01*
X50754010Y-66352589D01*
X50642068Y-66622842D01*
X50585000Y-66909740D01*
X50585000Y-67202260D01*
X50642068Y-67489158D01*
X50754010Y-67759411D01*
X50916525Y-68002632D01*
X51123368Y-68209475D01*
X51366589Y-68371990D01*
X51636842Y-68483932D01*
X51923740Y-68541000D01*
X52216260Y-68541000D01*
X52503158Y-68483932D01*
X52773411Y-68371990D01*
X53016632Y-68209475D01*
X53223475Y-68002632D01*
X53385990Y-67759411D01*
X53497932Y-67489158D01*
X53555000Y-67202260D01*
X53555000Y-66909740D01*
X53497932Y-66622842D01*
X53385990Y-66352589D01*
X53223475Y-66109368D01*
X53091620Y-65977513D01*
X53164180Y-65955502D01*
X53274494Y-65896537D01*
X53371185Y-65817185D01*
X53450537Y-65720494D01*
X53509502Y-65610180D01*
X53545812Y-65490482D01*
X53558072Y-65366000D01*
X53558072Y-63666000D01*
X53545812Y-63541518D01*
X53509502Y-63421820D01*
X53450537Y-63311506D01*
X53371185Y-63214815D01*
X53274494Y-63135463D01*
X53216876Y-63104665D01*
X55207000Y-63104665D01*
X55207000Y-63387335D01*
X55262147Y-63664574D01*
X55370320Y-63925727D01*
X55527363Y-64160759D01*
X55727241Y-64360637D01*
X55962273Y-64517680D01*
X56223426Y-64625853D01*
X56358705Y-64652762D01*
X56341799Y-64824423D01*
X56348500Y-64892462D01*
X56348499Y-91193470D01*
X56341799Y-91261499D01*
X56348499Y-91329528D01*
X56348499Y-91329535D01*
X56368539Y-91533005D01*
X56447735Y-91794079D01*
X56552992Y-91991000D01*
X56576343Y-92034687D01*
X56695722Y-92180150D01*
X56749418Y-92245579D01*
X56802264Y-92288949D01*
X61873000Y-97359686D01*
X61873000Y-97746279D01*
X61955047Y-98158756D01*
X62115988Y-98547302D01*
X62349637Y-98896983D01*
X62647017Y-99194363D01*
X62996698Y-99428012D01*
X63385244Y-99588953D01*
X63797721Y-99671000D01*
X64218279Y-99671000D01*
X64630756Y-99588953D01*
X65019302Y-99428012D01*
X65368983Y-99194363D01*
X65666363Y-98896983D01*
X65900012Y-98547302D01*
X66060953Y-98158756D01*
X66143000Y-97746279D01*
X66143000Y-97325721D01*
X66060953Y-96913244D01*
X65900012Y-96524698D01*
X65666363Y-96175017D01*
X65368983Y-95877637D01*
X65019302Y-95643988D01*
X64630756Y-95483047D01*
X64218279Y-95401000D01*
X63831686Y-95401000D01*
X60676407Y-92245721D01*
X61873000Y-92245721D01*
X61873000Y-92666279D01*
X61955047Y-93078756D01*
X62115988Y-93467302D01*
X62349637Y-93816983D01*
X62647017Y-94114363D01*
X62996698Y-94348012D01*
X63385244Y-94508953D01*
X63797721Y-94591000D01*
X64218279Y-94591000D01*
X64630756Y-94508953D01*
X65019302Y-94348012D01*
X65368983Y-94114363D01*
X65666363Y-93816983D01*
X65900012Y-93467302D01*
X66060953Y-93078756D01*
X66143000Y-92666279D01*
X66143000Y-92245721D01*
X66060953Y-91833244D01*
X65900012Y-91444698D01*
X65666363Y-91095017D01*
X65368983Y-90797637D01*
X65019302Y-90563988D01*
X64630756Y-90403047D01*
X64218279Y-90321000D01*
X63797721Y-90321000D01*
X63385244Y-90403047D01*
X62996698Y-90563988D01*
X62647017Y-90797637D01*
X62349637Y-91095017D01*
X62115988Y-91444698D01*
X61955047Y-91833244D01*
X61873000Y-92245721D01*
X60676407Y-92245721D01*
X59118499Y-90687814D01*
X59118499Y-85876000D01*
X61869928Y-85876000D01*
X61869928Y-88876000D01*
X61882188Y-89000482D01*
X61918498Y-89120180D01*
X61977463Y-89230494D01*
X62056815Y-89327185D01*
X62153506Y-89406537D01*
X62263820Y-89465502D01*
X62383518Y-89501812D01*
X62508000Y-89514072D01*
X65508000Y-89514072D01*
X65632482Y-89501812D01*
X65752180Y-89465502D01*
X65862494Y-89406537D01*
X65959185Y-89327185D01*
X66038537Y-89230494D01*
X66097502Y-89120180D01*
X66133812Y-89000482D01*
X66146072Y-88876000D01*
X66146072Y-85876000D01*
X66133812Y-85751518D01*
X66097502Y-85631820D01*
X66038537Y-85521506D01*
X65959185Y-85424815D01*
X65862494Y-85345463D01*
X65752180Y-85286498D01*
X65632482Y-85250188D01*
X65508000Y-85237928D01*
X62508000Y-85237928D01*
X62383518Y-85250188D01*
X62263820Y-85286498D01*
X62153506Y-85345463D01*
X62056815Y-85424815D01*
X61977463Y-85521506D01*
X61918498Y-85631820D01*
X61882188Y-85751518D01*
X61869928Y-85876000D01*
X59118499Y-85876000D01*
X59118499Y-81140072D01*
X60642500Y-81140072D01*
X60766982Y-81127812D01*
X60886680Y-81091502D01*
X60996994Y-81032537D01*
X61093685Y-80953185D01*
X61173037Y-80856494D01*
X61217905Y-80772553D01*
X61343766Y-80875845D01*
X61619552Y-81023255D01*
X61918797Y-81114030D01*
X62230000Y-81144681D01*
X62541204Y-81114030D01*
X62840449Y-81023255D01*
X63116235Y-80875845D01*
X63357963Y-80677463D01*
X63500000Y-80504391D01*
X63642037Y-80677463D01*
X63883766Y-80875845D01*
X64159552Y-81023255D01*
X64458797Y-81114030D01*
X64770000Y-81144681D01*
X65081204Y-81114030D01*
X65380449Y-81023255D01*
X65656235Y-80875845D01*
X65897963Y-80677463D01*
X66096345Y-80435734D01*
X66243755Y-80159948D01*
X66334530Y-79860703D01*
X66357500Y-79627485D01*
X66357500Y-79376514D01*
X66334530Y-79143296D01*
X66243755Y-78844051D01*
X66096345Y-78568265D01*
X65897963Y-78326537D01*
X65656234Y-78128155D01*
X65380448Y-77980745D01*
X65081203Y-77889970D01*
X64770000Y-77859319D01*
X64458796Y-77889970D01*
X64159551Y-77980745D01*
X63883765Y-78128155D01*
X63642037Y-78326537D01*
X63500000Y-78499609D01*
X63357963Y-78326537D01*
X63116234Y-78128155D01*
X62840448Y-77980745D01*
X62541203Y-77889970D01*
X62230000Y-77859319D01*
X61918796Y-77889970D01*
X61619551Y-77980745D01*
X61343765Y-78128155D01*
X61217905Y-78231446D01*
X61173037Y-78147506D01*
X61093685Y-78050815D01*
X60996994Y-77971463D01*
X60886680Y-77912498D01*
X60766982Y-77876188D01*
X60642500Y-77863928D01*
X59118499Y-77863928D01*
X59118499Y-65398108D01*
X62780241Y-61736367D01*
X62833080Y-61693003D01*
X62876445Y-61640163D01*
X62876452Y-61640156D01*
X63006156Y-61482111D01*
X63006157Y-61482110D01*
X63027740Y-61441731D01*
X63147363Y-61620759D01*
X63347241Y-61820637D01*
X63579759Y-61976000D01*
X63347241Y-62131363D01*
X63147363Y-62331241D01*
X62990320Y-62566273D01*
X62882147Y-62827426D01*
X62827000Y-63104665D01*
X62827000Y-63387335D01*
X62882147Y-63664574D01*
X62990320Y-63925727D01*
X63147363Y-64160759D01*
X63347241Y-64360637D01*
X63582273Y-64517680D01*
X63843426Y-64625853D01*
X64120665Y-64681000D01*
X64403335Y-64681000D01*
X64680574Y-64625853D01*
X64941727Y-64517680D01*
X65176759Y-64360637D01*
X65376637Y-64160759D01*
X65533680Y-63925727D01*
X65641853Y-63664574D01*
X65697000Y-63387335D01*
X65697000Y-63104665D01*
X65641853Y-62827426D01*
X65533680Y-62566273D01*
X65376637Y-62331241D01*
X65176759Y-62131363D01*
X64944241Y-61976000D01*
X65176759Y-61820637D01*
X65376637Y-61620759D01*
X65533680Y-61385727D01*
X65641853Y-61124574D01*
X65697000Y-60847335D01*
X65697000Y-60564665D01*
X65641853Y-60287426D01*
X65533680Y-60026273D01*
X65376637Y-59791241D01*
X65176759Y-59591363D01*
X64944241Y-59436000D01*
X65176759Y-59280637D01*
X65376637Y-59080759D01*
X65533680Y-58845727D01*
X65641853Y-58584574D01*
X65697000Y-58307335D01*
X65697000Y-58024665D01*
X65641853Y-57747426D01*
X65533680Y-57486273D01*
X65376637Y-57251241D01*
X65176759Y-57051363D01*
X64941727Y-56894320D01*
X64680574Y-56786147D01*
X64403335Y-56731000D01*
X64120665Y-56731000D01*
X63843426Y-56786147D01*
X63582273Y-56894320D01*
X63347241Y-57051363D01*
X63234000Y-57164604D01*
X63234000Y-45163145D01*
X63312018Y-45186812D01*
X63436500Y-45199072D01*
X65341500Y-45199072D01*
X65465982Y-45186812D01*
X65585680Y-45150502D01*
X65695994Y-45091537D01*
X65792685Y-45012185D01*
X65872037Y-44915494D01*
X65931002Y-44805180D01*
X65967312Y-44685482D01*
X65979572Y-44561000D01*
X65979572Y-42561000D01*
X65967312Y-42436518D01*
X65931002Y-42316820D01*
X65872037Y-42206506D01*
X65792685Y-42109815D01*
X65695994Y-42030463D01*
X65585680Y-41971498D01*
X65465982Y-41935188D01*
X65341500Y-41922928D01*
X63436500Y-41922928D01*
X63312018Y-41935188D01*
X63192320Y-41971498D01*
X63082006Y-42030463D01*
X62985315Y-42109815D01*
X62905963Y-42206506D01*
X62861095Y-42290446D01*
X62735235Y-42187155D01*
X62459449Y-42039745D01*
X62160204Y-41948970D01*
X61849000Y-41918319D01*
X61537797Y-41948970D01*
X61238552Y-42039745D01*
X60962766Y-42187155D01*
X60721037Y-42385537D01*
X60579000Y-42558609D01*
X60436963Y-42385537D01*
X60195235Y-42187155D01*
X59919449Y-42039745D01*
X59620204Y-41948970D01*
X59309000Y-41918319D01*
X58997797Y-41948970D01*
X58698552Y-42039745D01*
X58422766Y-42187155D01*
X58181037Y-42385537D01*
X57982655Y-42627265D01*
X57835245Y-42903051D01*
X57744470Y-43202296D01*
X57721500Y-43435514D01*
X57721500Y-43686485D01*
X57744470Y-43919703D01*
X57835245Y-44218948D01*
X57982655Y-44494734D01*
X58181037Y-44736463D01*
X58422765Y-44934845D01*
X58698551Y-45082255D01*
X58997796Y-45173030D01*
X59309000Y-45203681D01*
X59620203Y-45173030D01*
X59919448Y-45082255D01*
X60195234Y-44934845D01*
X60436963Y-44736463D01*
X60464000Y-44703518D01*
X60464000Y-45534036D01*
X60464001Y-45534045D01*
X60464000Y-60135236D01*
X57948617Y-62650619D01*
X57913680Y-62566273D01*
X57756637Y-62331241D01*
X57556759Y-62131363D01*
X57321727Y-61974320D01*
X57311135Y-61969933D01*
X57497131Y-61858385D01*
X57705519Y-61669414D01*
X57873037Y-61443420D01*
X57993246Y-61189087D01*
X58033904Y-61055039D01*
X57911915Y-60833000D01*
X56769000Y-60833000D01*
X56769000Y-60853000D01*
X56515000Y-60853000D01*
X56515000Y-60833000D01*
X55372085Y-60833000D01*
X55250096Y-61055039D01*
X55290754Y-61189087D01*
X55410963Y-61443420D01*
X55578481Y-61669414D01*
X55786869Y-61858385D01*
X55972865Y-61969933D01*
X55962273Y-61974320D01*
X55727241Y-62131363D01*
X55527363Y-62331241D01*
X55370320Y-62566273D01*
X55262147Y-62827426D01*
X55207000Y-63104665D01*
X53216876Y-63104665D01*
X53164180Y-63076498D01*
X53044482Y-63040188D01*
X52920000Y-63027928D01*
X51220000Y-63027928D01*
X51095518Y-63040188D01*
X50975820Y-63076498D01*
X50865506Y-63135463D01*
X50768815Y-63214815D01*
X50689463Y-63311506D01*
X50630498Y-63421820D01*
X50594188Y-63541518D01*
X50581928Y-63666000D01*
X50016436Y-63666000D01*
X51557347Y-62125089D01*
X51586422Y-62101228D01*
X51666978Y-62003070D01*
X51681645Y-61985199D01*
X51752401Y-61852822D01*
X51752402Y-61852821D01*
X51795974Y-61709184D01*
X51807000Y-61597232D01*
X51807000Y-61597229D01*
X51810686Y-61559806D01*
X51807000Y-61522383D01*
X51807000Y-61153711D01*
X51848937Y-61111774D01*
X51962205Y-60942256D01*
X52040226Y-60753898D01*
X52080000Y-60553939D01*
X52080000Y-60350061D01*
X52040226Y-60150102D01*
X51962205Y-59961744D01*
X51848937Y-59792226D01*
X51704774Y-59648063D01*
X51535256Y-59534795D01*
X51346898Y-59456774D01*
X51146939Y-59417000D01*
X50943061Y-59417000D01*
X50743102Y-59456774D01*
X50554744Y-59534795D01*
X50385226Y-59648063D01*
X50241063Y-59792226D01*
X50127795Y-59961744D01*
X50049774Y-60150102D01*
X50010000Y-60350061D01*
X50010000Y-60553939D01*
X50049774Y-60753898D01*
X50127795Y-60942256D01*
X50241063Y-61111774D01*
X50283000Y-61153711D01*
X50283000Y-61244176D01*
X47741086Y-63786090D01*
X47694297Y-63673131D01*
X47528904Y-63425602D01*
X47318398Y-63215096D01*
X47155191Y-63106045D01*
X47222563Y-62896169D01*
X46355000Y-62028605D01*
X45487437Y-62896169D01*
X45554809Y-63106045D01*
X45391602Y-63215096D01*
X45181096Y-63425602D01*
X45015703Y-63673131D01*
X44901778Y-63948170D01*
X44843700Y-64240150D01*
X44843700Y-64537850D01*
X44901778Y-64829830D01*
X44924341Y-64884301D01*
X38197276Y-64884301D01*
X38159853Y-64880615D01*
X38122430Y-64884301D01*
X38122427Y-64884301D01*
X38010475Y-64895327D01*
X37866838Y-64938899D01*
X37805217Y-64971836D01*
X37734460Y-65009656D01*
X37692072Y-65044444D01*
X37618431Y-65104879D01*
X37594569Y-65133955D01*
X34779222Y-67949302D01*
X34766000Y-67960153D01*
X34755149Y-67973375D01*
X34740721Y-67987803D01*
X34669355Y-68074762D01*
X34598599Y-68207139D01*
X34555027Y-68350776D01*
X34540314Y-68500154D01*
X34546001Y-68557893D01*
X34546000Y-76774197D01*
X33467199Y-77853000D01*
X25333803Y-77853000D01*
X24958576Y-77477774D01*
X25006300Y-77237850D01*
X25006300Y-76940150D01*
X24948222Y-76648170D01*
X24834297Y-76373131D01*
X24668904Y-76125602D01*
X24458398Y-75915096D01*
X24314580Y-75819000D01*
X24458398Y-75722904D01*
X24668904Y-75512398D01*
X24803473Y-75311000D01*
X29647370Y-75311000D01*
X30706000Y-76369630D01*
X30706000Y-76428939D01*
X30745774Y-76628898D01*
X30823795Y-76817256D01*
X30937063Y-76986774D01*
X31081226Y-77130937D01*
X31250744Y-77244205D01*
X31439102Y-77322226D01*
X31639061Y-77362000D01*
X31842939Y-77362000D01*
X32042898Y-77322226D01*
X32231256Y-77244205D01*
X32400774Y-77130937D01*
X32544937Y-76986774D01*
X32658205Y-76817256D01*
X32736226Y-76628898D01*
X32776000Y-76428939D01*
X32776000Y-76225061D01*
X32736226Y-76025102D01*
X32658205Y-75836744D01*
X32544937Y-75667226D01*
X32400774Y-75523063D01*
X32231256Y-75409795D01*
X32042898Y-75331774D01*
X31842939Y-75292000D01*
X31783630Y-75292000D01*
X30528284Y-74036654D01*
X30504422Y-74007578D01*
X30388392Y-73912355D01*
X30256015Y-73841598D01*
X30112378Y-73798026D01*
X30000426Y-73787000D01*
X30000423Y-73787000D01*
X29963000Y-73783314D01*
X29925577Y-73787000D01*
X24803473Y-73787000D01*
X24668904Y-73585602D01*
X24458398Y-73375096D01*
X24314580Y-73279000D01*
X24458398Y-73182904D01*
X24668904Y-72972398D01*
X24834297Y-72724869D01*
X24948222Y-72449830D01*
X25006300Y-72157850D01*
X25006300Y-71860150D01*
X24948222Y-71568170D01*
X24834297Y-71293131D01*
X24668904Y-71045602D01*
X24458398Y-70835096D01*
X24314580Y-70739000D01*
X24458398Y-70642904D01*
X24668904Y-70432398D01*
X24805712Y-70227650D01*
X24883653Y-70219974D01*
X25027290Y-70176402D01*
X25159667Y-70105645D01*
X25275697Y-70010422D01*
X25299559Y-69981346D01*
X33364414Y-61916491D01*
X44837887Y-61916491D01*
X44880204Y-62211167D01*
X44979198Y-62491927D01*
X45056071Y-62635746D01*
X45307831Y-62716563D01*
X46175395Y-61849000D01*
X46534605Y-61849000D01*
X47402169Y-62716563D01*
X47653929Y-62635746D01*
X47782457Y-62367221D01*
X47856129Y-62078781D01*
X47872113Y-61781509D01*
X47829796Y-61486833D01*
X47730802Y-61206073D01*
X47653929Y-61062254D01*
X47402169Y-60981437D01*
X46534605Y-61849000D01*
X46175395Y-61849000D01*
X45307831Y-60981437D01*
X45056071Y-61062254D01*
X44927543Y-61330779D01*
X44853871Y-61619219D01*
X44837887Y-61916491D01*
X33364414Y-61916491D01*
X36120755Y-59160150D01*
X44843700Y-59160150D01*
X44843700Y-59457850D01*
X44901778Y-59749830D01*
X45015703Y-60024869D01*
X45181096Y-60272398D01*
X45391602Y-60482904D01*
X45554809Y-60591955D01*
X45487437Y-60801831D01*
X46355000Y-61669395D01*
X47222563Y-60801831D01*
X47155191Y-60591955D01*
X47318398Y-60482904D01*
X47528904Y-60272398D01*
X47694297Y-60024869D01*
X47808222Y-59749830D01*
X47866300Y-59457850D01*
X47866300Y-59160150D01*
X47808222Y-58868170D01*
X47694297Y-58593131D01*
X47528904Y-58345602D01*
X47318398Y-58135096D01*
X47070869Y-57969703D01*
X46795830Y-57855778D01*
X46503850Y-57797700D01*
X46206150Y-57797700D01*
X45914170Y-57855778D01*
X45639131Y-57969703D01*
X45391602Y-58135096D01*
X45181096Y-58345602D01*
X45015703Y-58593131D01*
X44901778Y-58868170D01*
X44843700Y-59160150D01*
X36120755Y-59160150D01*
X40002033Y-55278872D01*
X42850000Y-55278872D01*
X42850000Y-55719128D01*
X42935890Y-56150925D01*
X43104369Y-56557669D01*
X43348962Y-56923729D01*
X43660271Y-57235038D01*
X44026331Y-57479631D01*
X44433075Y-57648110D01*
X44864872Y-57734000D01*
X45305128Y-57734000D01*
X45736925Y-57648110D01*
X46143669Y-57479631D01*
X46313730Y-57366000D01*
X55203928Y-57366000D01*
X55203928Y-58966000D01*
X55216188Y-59090482D01*
X55252498Y-59210180D01*
X55311463Y-59320494D01*
X55390815Y-59417185D01*
X55487506Y-59496537D01*
X55597820Y-59555502D01*
X55717518Y-59591812D01*
X55742080Y-59594231D01*
X55578481Y-59742586D01*
X55410963Y-59968580D01*
X55290754Y-60222913D01*
X55250096Y-60356961D01*
X55372085Y-60579000D01*
X56515000Y-60579000D01*
X56515000Y-60559000D01*
X56769000Y-60559000D01*
X56769000Y-60579000D01*
X57911915Y-60579000D01*
X58033904Y-60356961D01*
X57993246Y-60222913D01*
X57873037Y-59968580D01*
X57705519Y-59742586D01*
X57541920Y-59594231D01*
X57566482Y-59591812D01*
X57686180Y-59555502D01*
X57796494Y-59496537D01*
X57893185Y-59417185D01*
X57972537Y-59320494D01*
X58031502Y-59210180D01*
X58067812Y-59090482D01*
X58080072Y-58966000D01*
X58080072Y-57366000D01*
X58067812Y-57241518D01*
X58031502Y-57121820D01*
X57972537Y-57011506D01*
X57893185Y-56914815D01*
X57796494Y-56835463D01*
X57686180Y-56776498D01*
X57566482Y-56740188D01*
X57442000Y-56727928D01*
X55842000Y-56727928D01*
X55717518Y-56740188D01*
X55597820Y-56776498D01*
X55487506Y-56835463D01*
X55390815Y-56914815D01*
X55311463Y-57011506D01*
X55252498Y-57121820D01*
X55216188Y-57241518D01*
X55203928Y-57366000D01*
X46313730Y-57366000D01*
X46509729Y-57235038D01*
X46821038Y-56923729D01*
X47065631Y-56557669D01*
X47234110Y-56150925D01*
X47320000Y-55719128D01*
X47320000Y-55278872D01*
X47234110Y-54847075D01*
X47065631Y-54440331D01*
X46821038Y-54074271D01*
X46509729Y-53762962D01*
X46143669Y-53518369D01*
X45736925Y-53349890D01*
X45305128Y-53264000D01*
X44864872Y-53264000D01*
X44433075Y-53349890D01*
X44026331Y-53518369D01*
X43660271Y-53762962D01*
X43348962Y-54074271D01*
X43104369Y-54440331D01*
X42935890Y-54847075D01*
X42850000Y-55278872D01*
X40002033Y-55278872D01*
X44857554Y-50423352D01*
X44870506Y-50407570D01*
X49660004Y-45618073D01*
X49689001Y-45594276D01*
X49783974Y-45478551D01*
X49854546Y-45346522D01*
X49898003Y-45203261D01*
X49909000Y-45091608D01*
X49909000Y-45091599D01*
X49912676Y-45054276D01*
X49909000Y-45016953D01*
X49909000Y-38645323D01*
X49912676Y-38608000D01*
X49909000Y-38570677D01*
X49909000Y-38570667D01*
X49898003Y-38459014D01*
X49854546Y-38315753D01*
X49783974Y-38183724D01*
X49689001Y-38067999D01*
X49660003Y-38044201D01*
X47807804Y-36192003D01*
X47784001Y-36162999D01*
X47668276Y-36068026D01*
X47536247Y-35997454D01*
X47392986Y-35953997D01*
X47281333Y-35943000D01*
X47281322Y-35943000D01*
X47244000Y-35939324D01*
X47206678Y-35943000D01*
X32558322Y-35943000D01*
X32520999Y-35939324D01*
X32483676Y-35943000D01*
X32483667Y-35943000D01*
X32477545Y-35943603D01*
X32368939Y-35922000D01*
X32165061Y-35922000D01*
X31965102Y-35961774D01*
X31776744Y-36039795D01*
X31607226Y-36153063D01*
X31463063Y-36297226D01*
X31349795Y-36466744D01*
X31271774Y-36655102D01*
X31232000Y-36855061D01*
X31232000Y-37058939D01*
X31271774Y-37258898D01*
X31349795Y-37447256D01*
X31463063Y-37616774D01*
X31607226Y-37760937D01*
X31776744Y-37874205D01*
X31965102Y-37952226D01*
X32165061Y-37992000D01*
X32368939Y-37992000D01*
X32568898Y-37952226D01*
X32757256Y-37874205D01*
X32926774Y-37760937D01*
X33070937Y-37616774D01*
X33173685Y-37463000D01*
X46929199Y-37463000D01*
X48389001Y-38922803D01*
X48389000Y-44739473D01*
X46646475Y-46481998D01*
X46538252Y-46481998D01*
X46697000Y-46323250D01*
X46700072Y-45759000D01*
X46687812Y-45634518D01*
X46651502Y-45514820D01*
X46592537Y-45404506D01*
X46513185Y-45307815D01*
X46416494Y-45228463D01*
X46306180Y-45169498D01*
X46233620Y-45147487D01*
X46365475Y-45015632D01*
X46527990Y-44772411D01*
X46639932Y-44502158D01*
X46697000Y-44215260D01*
X46697000Y-43922740D01*
X46639932Y-43635842D01*
X46527990Y-43365589D01*
X46365475Y-43122368D01*
X46158632Y-42915525D01*
X45915411Y-42753010D01*
X45645158Y-42641068D01*
X45358260Y-42584000D01*
X45065740Y-42584000D01*
X44778842Y-42641068D01*
X44508589Y-42753010D01*
X44265368Y-42915525D01*
X44058525Y-43122368D01*
X43942000Y-43296760D01*
X43825475Y-43122368D01*
X43618632Y-42915525D01*
X43375411Y-42753010D01*
X43105158Y-42641068D01*
X42818260Y-42584000D01*
X42525740Y-42584000D01*
X42307951Y-42627321D01*
X41459284Y-41778654D01*
X41435422Y-41749578D01*
X41319392Y-41654355D01*
X41187015Y-41583598D01*
X41043378Y-41540026D01*
X40931426Y-41529000D01*
X40931423Y-41529000D01*
X40894000Y-41525314D01*
X40856577Y-41529000D01*
X39407423Y-41529000D01*
X39370000Y-41525314D01*
X39332577Y-41529000D01*
X39332574Y-41529000D01*
X39220622Y-41540026D01*
X39076985Y-41583598D01*
X39015364Y-41616535D01*
X38944607Y-41654355D01*
X38902219Y-41689143D01*
X38828578Y-41749578D01*
X38804716Y-41778654D01*
X37956049Y-42627321D01*
X37738260Y-42584000D01*
X37445740Y-42584000D01*
X37158842Y-42641068D01*
X36888589Y-42753010D01*
X36645368Y-42915525D01*
X36438525Y-43122368D01*
X36276010Y-43365589D01*
X36164068Y-43635842D01*
X36107000Y-43922740D01*
X36107000Y-44215260D01*
X36150321Y-44433048D01*
X34793649Y-45789721D01*
X34764579Y-45813578D01*
X34740722Y-45842648D01*
X34740721Y-45842649D01*
X34669355Y-45929608D01*
X34598599Y-46061985D01*
X34555027Y-46205622D01*
X34540314Y-46355000D01*
X34544001Y-46392433D01*
X34544000Y-48421644D01*
X26938789Y-56026856D01*
X27000000Y-55719128D01*
X27000000Y-55278872D01*
X26914110Y-54847075D01*
X26745631Y-54440331D01*
X26501038Y-54074271D01*
X26189729Y-53762962D01*
X25823669Y-53518369D01*
X25416925Y-53349890D01*
X24985128Y-53264000D01*
X24544872Y-53264000D01*
X24113075Y-53349890D01*
X23706331Y-53518369D01*
X23340271Y-53762962D01*
X23028962Y-54074271D01*
X22784369Y-54440331D01*
X22615890Y-54847075D01*
X22530000Y-55278872D01*
X22530000Y-55719128D01*
X22615890Y-56150925D01*
X22784369Y-56557669D01*
X23028962Y-56923729D01*
X23340271Y-57235038D01*
X23706331Y-57479631D01*
X24113075Y-57648110D01*
X24544872Y-57734000D01*
X24985128Y-57734000D01*
X25292856Y-57672789D01*
X24644473Y-58321171D01*
X24458398Y-58135096D01*
X24210869Y-57969703D01*
X23935830Y-57855778D01*
X23643850Y-57797700D01*
X23346150Y-57797700D01*
X23054170Y-57855778D01*
X22779131Y-57969703D01*
X22531602Y-58135096D01*
X22321096Y-58345602D01*
X22155703Y-58593131D01*
X22041778Y-58868170D01*
X21983700Y-59160150D01*
X21983700Y-59457850D01*
X22030954Y-59695416D01*
X21204649Y-60521721D01*
X21175579Y-60545578D01*
X21151722Y-60574648D01*
X21151721Y-60574649D01*
X21080355Y-60661608D01*
X21009599Y-60793985D01*
X20966027Y-60937622D01*
X20951314Y-61087000D01*
X16170306Y-61087000D01*
X16217000Y-60852260D01*
X16217000Y-60559740D01*
X16159932Y-60272842D01*
X16047990Y-60002589D01*
X15885475Y-59759368D01*
X15678632Y-59552525D01*
X15504240Y-59436000D01*
X15678632Y-59319475D01*
X15885475Y-59112632D01*
X16047990Y-58869411D01*
X16159932Y-58599158D01*
X16217000Y-58312260D01*
X16217000Y-58019740D01*
X16159932Y-57732842D01*
X16047990Y-57462589D01*
X15885475Y-57219368D01*
X15678632Y-57012525D01*
X15504240Y-56896000D01*
X15678632Y-56779475D01*
X15885475Y-56572632D01*
X16047990Y-56329411D01*
X16159932Y-56059158D01*
X16217000Y-55772260D01*
X16217000Y-55479740D01*
X16159932Y-55192842D01*
X16047990Y-54922589D01*
X15885475Y-54679368D01*
X15678632Y-54472525D01*
X15504240Y-54356000D01*
X15678632Y-54239475D01*
X15885475Y-54032632D01*
X16047990Y-53789411D01*
X16159932Y-53519158D01*
X16217000Y-53232260D01*
X16217000Y-52939740D01*
X16159932Y-52652842D01*
X16047990Y-52382589D01*
X15885475Y-52139368D01*
X15753620Y-52007513D01*
X15826180Y-51985502D01*
X15936494Y-51926537D01*
X16033185Y-51847185D01*
X16112537Y-51750494D01*
X16171502Y-51640180D01*
X16207812Y-51520482D01*
X16220072Y-51396000D01*
X16217000Y-50831750D01*
X16058250Y-50673000D01*
X14859000Y-50673000D01*
X14859000Y-50693000D01*
X14605000Y-50693000D01*
X14605000Y-50673000D01*
X13405750Y-50673000D01*
X13247000Y-50831750D01*
X13243928Y-51396000D01*
X12623000Y-51396000D01*
X12623000Y-49696000D01*
X13243928Y-49696000D01*
X13247000Y-50260250D01*
X13405750Y-50419000D01*
X14605000Y-50419000D01*
X14605000Y-49219750D01*
X14859000Y-49219750D01*
X14859000Y-50419000D01*
X16058250Y-50419000D01*
X16217000Y-50260250D01*
X16220072Y-49696000D01*
X16207812Y-49571518D01*
X16171502Y-49451820D01*
X16112537Y-49341506D01*
X16033185Y-49244815D01*
X15936494Y-49165463D01*
X15826180Y-49106498D01*
X15706482Y-49070188D01*
X15582000Y-49057928D01*
X15017750Y-49061000D01*
X14859000Y-49219750D01*
X14605000Y-49219750D01*
X14446250Y-49061000D01*
X13882000Y-49057928D01*
X13757518Y-49070188D01*
X13637820Y-49106498D01*
X13527506Y-49165463D01*
X13430815Y-49244815D01*
X13351463Y-49341506D01*
X13292498Y-49451820D01*
X13256188Y-49571518D01*
X13243928Y-49696000D01*
X12623000Y-49696000D01*
X12623000Y-37100000D01*
X13728928Y-37100000D01*
X13728928Y-39100000D01*
X13741188Y-39224482D01*
X13777498Y-39344180D01*
X13836463Y-39454494D01*
X13915815Y-39551185D01*
X14012506Y-39630537D01*
X14122820Y-39689502D01*
X14242518Y-39725812D01*
X14367000Y-39738072D01*
X16367000Y-39738072D01*
X16491482Y-39725812D01*
X16611180Y-39689502D01*
X16721494Y-39630537D01*
X16818185Y-39551185D01*
X16897537Y-39454494D01*
X16956502Y-39344180D01*
X16992812Y-39224482D01*
X17005072Y-39100000D01*
X17005072Y-37938967D01*
X21332000Y-37938967D01*
X21332000Y-38261033D01*
X21394832Y-38576912D01*
X21518082Y-38874463D01*
X21697013Y-39142252D01*
X21924748Y-39369987D01*
X22192537Y-39548918D01*
X22490088Y-39672168D01*
X22805967Y-39735000D01*
X23128033Y-39735000D01*
X23443912Y-39672168D01*
X23741463Y-39548918D01*
X24009252Y-39369987D01*
X24236987Y-39142252D01*
X24415918Y-38874463D01*
X24539168Y-38576912D01*
X24602000Y-38261033D01*
X24602000Y-37938967D01*
X24539168Y-37623088D01*
X24415918Y-37325537D01*
X24236987Y-37057748D01*
X24009252Y-36830013D01*
X23741463Y-36651082D01*
X23443912Y-36527832D01*
X23128033Y-36465000D01*
X22805967Y-36465000D01*
X22490088Y-36527832D01*
X22192537Y-36651082D01*
X21924748Y-36830013D01*
X21697013Y-37057748D01*
X21518082Y-37325537D01*
X21394832Y-37623088D01*
X21332000Y-37938967D01*
X17005072Y-37938967D01*
X17005072Y-37100000D01*
X16992812Y-36975518D01*
X16956502Y-36855820D01*
X16897537Y-36745506D01*
X16818185Y-36648815D01*
X16721494Y-36569463D01*
X16611180Y-36510498D01*
X16491482Y-36474188D01*
X16367000Y-36461928D01*
X14367000Y-36461928D01*
X14242518Y-36474188D01*
X14122820Y-36510498D01*
X14012506Y-36569463D01*
X13915815Y-36648815D01*
X13836463Y-36745506D01*
X13777498Y-36855820D01*
X13741188Y-36975518D01*
X13728928Y-37100000D01*
X12623000Y-37100000D01*
X12623000Y-31750000D01*
X24160880Y-31750000D01*
X24197275Y-32119524D01*
X24305061Y-32474848D01*
X24480097Y-32802317D01*
X24715655Y-33089345D01*
X25002683Y-33324903D01*
X25330152Y-33499939D01*
X25685476Y-33607725D01*
X25962403Y-33635000D01*
X28647597Y-33635000D01*
X28924524Y-33607725D01*
X29279848Y-33499939D01*
X29607317Y-33324903D01*
X29894345Y-33089345D01*
X30129903Y-32802317D01*
X30304939Y-32474848D01*
X30412725Y-32119524D01*
X30436611Y-31877000D01*
X52354880Y-31877000D01*
X52391275Y-32246524D01*
X52499061Y-32601848D01*
X52674097Y-32929317D01*
X52909655Y-33216345D01*
X53196683Y-33451903D01*
X53524152Y-33626939D01*
X53879476Y-33734725D01*
X54156403Y-33762000D01*
X56841597Y-33762000D01*
X57118524Y-33734725D01*
X57473848Y-33626939D01*
X57801317Y-33451903D01*
X58088345Y-33216345D01*
X58323903Y-32929317D01*
X58498939Y-32601848D01*
X58606725Y-32246524D01*
X58643120Y-31877000D01*
X58606725Y-31507476D01*
X58498939Y-31152152D01*
X58323903Y-30824683D01*
X58088345Y-30537655D01*
X57801317Y-30302097D01*
X57473848Y-30127061D01*
X57118524Y-30019275D01*
X56841597Y-29992000D01*
X54156403Y-29992000D01*
X53879476Y-30019275D01*
X53524152Y-30127061D01*
X53196683Y-30302097D01*
X52909655Y-30537655D01*
X52674097Y-30824683D01*
X52499061Y-31152152D01*
X52391275Y-31507476D01*
X52354880Y-31877000D01*
X30436611Y-31877000D01*
X30449120Y-31750000D01*
X30412725Y-31380476D01*
X30304939Y-31025152D01*
X30129903Y-30697683D01*
X29894345Y-30410655D01*
X29607317Y-30175097D01*
X29279848Y-30000061D01*
X28924524Y-29892275D01*
X28647597Y-29865000D01*
X25962403Y-29865000D01*
X25685476Y-29892275D01*
X25330152Y-30000061D01*
X25002683Y-30175097D01*
X24715655Y-30410655D01*
X24480097Y-30697683D01*
X24305061Y-31025152D01*
X24197275Y-31380476D01*
X24160880Y-31750000D01*
X12623000Y-31750000D01*
X12623000Y-28150117D01*
X14267000Y-28150117D01*
X14267000Y-28491883D01*
X14333675Y-28827081D01*
X14464463Y-29142831D01*
X14654337Y-29426998D01*
X14896002Y-29668663D01*
X15180169Y-29858537D01*
X15495919Y-29989325D01*
X15831117Y-30056000D01*
X16172883Y-30056000D01*
X16508081Y-29989325D01*
X16823831Y-29858537D01*
X17107998Y-29668663D01*
X17349663Y-29426998D01*
X17539537Y-29142831D01*
X17670325Y-28827081D01*
X17737000Y-28491883D01*
X17737000Y-28150117D01*
X17670325Y-27814919D01*
X17555849Y-27538548D01*
X20845000Y-27538548D01*
X20845001Y-29961453D01*
X20870468Y-30220020D01*
X20971106Y-30551781D01*
X21134535Y-30857534D01*
X21354472Y-31125529D01*
X21622467Y-31345466D01*
X21928220Y-31508895D01*
X22259981Y-31609533D01*
X22605000Y-31643515D01*
X22950020Y-31609533D01*
X23281781Y-31508895D01*
X23587534Y-31345466D01*
X23855529Y-31125529D01*
X24075466Y-30857534D01*
X24238895Y-30551781D01*
X24339533Y-30220020D01*
X24365000Y-29961453D01*
X24365000Y-27665548D01*
X49039000Y-27665548D01*
X49039001Y-30088453D01*
X49064468Y-30347020D01*
X49165106Y-30678781D01*
X49328535Y-30984534D01*
X49548472Y-31252529D01*
X49816467Y-31472466D01*
X50122220Y-31635895D01*
X50453981Y-31736533D01*
X50799000Y-31770515D01*
X51144020Y-31736533D01*
X51475781Y-31635895D01*
X51781534Y-31472466D01*
X52049529Y-31252529D01*
X52269466Y-30984534D01*
X52432895Y-30678781D01*
X52533533Y-30347020D01*
X52559000Y-30088453D01*
X52559000Y-28912117D01*
X63670000Y-28912117D01*
X63670000Y-29253883D01*
X63736675Y-29589081D01*
X63867463Y-29904831D01*
X64057337Y-30188998D01*
X64299002Y-30430663D01*
X64583169Y-30620537D01*
X64898919Y-30751325D01*
X65234117Y-30818000D01*
X65575883Y-30818000D01*
X65911081Y-30751325D01*
X66226831Y-30620537D01*
X66510998Y-30430663D01*
X66752663Y-30188998D01*
X66942537Y-29904831D01*
X67073325Y-29589081D01*
X67140000Y-29253883D01*
X67140000Y-28912117D01*
X67073325Y-28576919D01*
X66942537Y-28261169D01*
X66752663Y-27977002D01*
X66510998Y-27735337D01*
X66226831Y-27545463D01*
X65911081Y-27414675D01*
X65575883Y-27348000D01*
X65234117Y-27348000D01*
X64898919Y-27414675D01*
X64583169Y-27545463D01*
X64299002Y-27735337D01*
X64057337Y-27977002D01*
X63867463Y-28261169D01*
X63736675Y-28576919D01*
X63670000Y-28912117D01*
X52559000Y-28912117D01*
X52559000Y-27665547D01*
X52533533Y-27406980D01*
X52432895Y-27075219D01*
X52269466Y-26769466D01*
X52049529Y-26501471D01*
X51781533Y-26281534D01*
X51475780Y-26118105D01*
X51144019Y-26017467D01*
X50799000Y-25983485D01*
X50453980Y-26017467D01*
X50122219Y-26118105D01*
X49816466Y-26281534D01*
X49548471Y-26501471D01*
X49328534Y-26769467D01*
X49165105Y-27075220D01*
X49064467Y-27406981D01*
X49039000Y-27665548D01*
X24365000Y-27665548D01*
X24365000Y-27538547D01*
X24339533Y-27279980D01*
X24238895Y-26948219D01*
X24075466Y-26642466D01*
X23855529Y-26374471D01*
X23587533Y-26154534D01*
X23579131Y-26150043D01*
X24466067Y-26150043D01*
X24505371Y-26306190D01*
X24646056Y-26622207D01*
X24845689Y-26904705D01*
X25096599Y-27142829D01*
X25389144Y-27327427D01*
X25712081Y-27451406D01*
X26053000Y-27510000D01*
X27178000Y-27510000D01*
X27178000Y-25877000D01*
X27432000Y-25877000D01*
X27432000Y-27510000D01*
X28557000Y-27510000D01*
X28897919Y-27451406D01*
X29220856Y-27327427D01*
X29513401Y-27142829D01*
X29764311Y-26904705D01*
X29963944Y-26622207D01*
X30104629Y-26306190D01*
X30143933Y-26150043D01*
X30026206Y-25877000D01*
X52605485Y-25877000D01*
X52639467Y-26222020D01*
X52740105Y-26553781D01*
X52903534Y-26859534D01*
X53123471Y-27127529D01*
X53391466Y-27347466D01*
X53697219Y-27510895D01*
X54028980Y-27611533D01*
X54287547Y-27637000D01*
X56710453Y-27637000D01*
X56969020Y-27611533D01*
X57300781Y-27510895D01*
X57606534Y-27347466D01*
X57874529Y-27127529D01*
X58094466Y-26859534D01*
X58257895Y-26553781D01*
X58358533Y-26222020D01*
X58392515Y-25877000D01*
X58358533Y-25531980D01*
X58257895Y-25200219D01*
X58094466Y-24894466D01*
X57874529Y-24626471D01*
X57606534Y-24406534D01*
X57300781Y-24243105D01*
X56969020Y-24142467D01*
X56710453Y-24117000D01*
X54287547Y-24117000D01*
X54028980Y-24142467D01*
X53697219Y-24243105D01*
X53391466Y-24406534D01*
X53123471Y-24626471D01*
X52903534Y-24894466D01*
X52740105Y-25200219D01*
X52639467Y-25531980D01*
X52605485Y-25877000D01*
X30026206Y-25877000D01*
X27432000Y-25877000D01*
X27178000Y-25877000D01*
X24583794Y-25877000D01*
X24466067Y-26150043D01*
X23579131Y-26150043D01*
X23281780Y-25991105D01*
X22950019Y-25890467D01*
X22605000Y-25856485D01*
X22259980Y-25890467D01*
X21928219Y-25991105D01*
X21622466Y-26154534D01*
X21354471Y-26374471D01*
X21134534Y-26642467D01*
X20971105Y-26948220D01*
X20870467Y-27279981D01*
X20845000Y-27538548D01*
X17555849Y-27538548D01*
X17539537Y-27499169D01*
X17349663Y-27215002D01*
X17107998Y-26973337D01*
X16823831Y-26783463D01*
X16508081Y-26652675D01*
X16172883Y-26586000D01*
X15831117Y-26586000D01*
X15495919Y-26652675D01*
X15180169Y-26783463D01*
X14896002Y-26973337D01*
X14654337Y-27215002D01*
X14464463Y-27499169D01*
X14333675Y-27814919D01*
X14267000Y-28150117D01*
X12623000Y-28150117D01*
X12623000Y-25349957D01*
X24466067Y-25349957D01*
X24583794Y-25623000D01*
X27178000Y-25623000D01*
X27178000Y-23990000D01*
X27432000Y-23990000D01*
X27432000Y-25623000D01*
X30026206Y-25623000D01*
X30143933Y-25349957D01*
X30104629Y-25193810D01*
X29963944Y-24877793D01*
X29764311Y-24595295D01*
X29513401Y-24357171D01*
X29220856Y-24172573D01*
X28897919Y-24048594D01*
X28557000Y-23990000D01*
X27432000Y-23990000D01*
X27178000Y-23990000D01*
X26053000Y-23990000D01*
X25712081Y-24048594D01*
X25389144Y-24172573D01*
X25096599Y-24357171D01*
X24845689Y-24595295D01*
X24646056Y-24877793D01*
X24505371Y-25193810D01*
X24466067Y-25349957D01*
X12623000Y-25349957D01*
X12623000Y-23800520D01*
X68528892Y-23924479D01*
G36*
X44901778Y-66488170D02*
G01*
X44843700Y-66780150D01*
X44843700Y-67077850D01*
X44901778Y-67369830D01*
X45015703Y-67644869D01*
X45181096Y-67892398D01*
X45391602Y-68102904D01*
X45535420Y-68199000D01*
X45391602Y-68295096D01*
X45181096Y-68505602D01*
X45015703Y-68753131D01*
X44901778Y-69028170D01*
X44843700Y-69320150D01*
X44843700Y-69617850D01*
X44890954Y-69855415D01*
X33339370Y-81407000D01*
X24803473Y-81407000D01*
X24668904Y-81205602D01*
X24458398Y-80995096D01*
X24295191Y-80886045D01*
X24362563Y-80676169D01*
X23495000Y-79808605D01*
X23480858Y-79822748D01*
X23301252Y-79643142D01*
X23315395Y-79629000D01*
X23301252Y-79614858D01*
X23480858Y-79435252D01*
X23495000Y-79449395D01*
X23509142Y-79435252D01*
X23688748Y-79614858D01*
X23674605Y-79629000D01*
X24542169Y-80496563D01*
X24793929Y-80415746D01*
X24922457Y-80147221D01*
X24996129Y-79858781D01*
X25012113Y-79561509D01*
X24985090Y-79373336D01*
X25018999Y-79376676D01*
X25056322Y-79373000D01*
X33744678Y-79373000D01*
X33782000Y-79376676D01*
X33819322Y-79373000D01*
X33819333Y-79373000D01*
X33930986Y-79362003D01*
X34074247Y-79318546D01*
X34206276Y-79247974D01*
X34322001Y-79153001D01*
X34345803Y-79123998D01*
X35817009Y-77652794D01*
X35846001Y-77629001D01*
X35869795Y-77600008D01*
X35869799Y-77600004D01*
X35940973Y-77513277D01*
X35940974Y-77513276D01*
X36011546Y-77381247D01*
X36055003Y-77237986D01*
X36066000Y-77126333D01*
X36066000Y-77126324D01*
X36069676Y-77089001D01*
X36066000Y-77051678D01*
X36066000Y-68817784D01*
X38475483Y-66408301D01*
X44934861Y-66408301D01*
X44901778Y-66488170D01*
G37*
X44901778Y-66488170D02*
X44843700Y-66780150D01*
X44843700Y-67077850D01*
X44901778Y-67369830D01*
X45015703Y-67644869D01*
X45181096Y-67892398D01*
X45391602Y-68102904D01*
X45535420Y-68199000D01*
X45391602Y-68295096D01*
X45181096Y-68505602D01*
X45015703Y-68753131D01*
X44901778Y-69028170D01*
X44843700Y-69320150D01*
X44843700Y-69617850D01*
X44890954Y-69855415D01*
X33339370Y-81407000D01*
X24803473Y-81407000D01*
X24668904Y-81205602D01*
X24458398Y-80995096D01*
X24295191Y-80886045D01*
X24362563Y-80676169D01*
X23495000Y-79808605D01*
X23480858Y-79822748D01*
X23301252Y-79643142D01*
X23315395Y-79629000D01*
X23301252Y-79614858D01*
X23480858Y-79435252D01*
X23495000Y-79449395D01*
X23509142Y-79435252D01*
X23688748Y-79614858D01*
X23674605Y-79629000D01*
X24542169Y-80496563D01*
X24793929Y-80415746D01*
X24922457Y-80147221D01*
X24996129Y-79858781D01*
X25012113Y-79561509D01*
X24985090Y-79373336D01*
X25018999Y-79376676D01*
X25056322Y-79373000D01*
X33744678Y-79373000D01*
X33782000Y-79376676D01*
X33819322Y-79373000D01*
X33819333Y-79373000D01*
X33930986Y-79362003D01*
X34074247Y-79318546D01*
X34206276Y-79247974D01*
X34322001Y-79153001D01*
X34345803Y-79123998D01*
X35817009Y-77652794D01*
X35846001Y-77629001D01*
X35869795Y-77600008D01*
X35869799Y-77600004D01*
X35940973Y-77513277D01*
X35940974Y-77513276D01*
X36011546Y-77381247D01*
X36055003Y-77237986D01*
X36066000Y-77126333D01*
X36066000Y-77126324D01*
X36069676Y-77089001D01*
X36066000Y-77051678D01*
X36066000Y-68817784D01*
X38475483Y-66408301D01*
X44934861Y-66408301D01*
X44901778Y-66488170D01*
G36*
X37719000Y-46482000D02*
G01*
X40005000Y-46482000D01*
X40005000Y-46462000D01*
X40259000Y-46462000D01*
X40259000Y-46482000D01*
X42545000Y-46482000D01*
X42545000Y-46462000D01*
X42799000Y-46462000D01*
X42799000Y-46482000D01*
X45085000Y-46482000D01*
X45085000Y-46462000D01*
X45339000Y-46462000D01*
X45339000Y-46482000D01*
X45359000Y-46482000D01*
X45359000Y-46736000D01*
X45339000Y-46736000D01*
X45339000Y-46756000D01*
X45085000Y-46756000D01*
X45085000Y-46736000D01*
X42799000Y-46736000D01*
X42799000Y-47929155D01*
X43028890Y-48050476D01*
X43176099Y-48005825D01*
X43438920Y-47880641D01*
X43672269Y-47706588D01*
X43748034Y-47622534D01*
X43772498Y-47703180D01*
X43831463Y-47813494D01*
X43910815Y-47910185D01*
X44007506Y-47989537D01*
X44117820Y-48048502D01*
X44237518Y-48084812D01*
X44362000Y-48097072D01*
X44926250Y-48094000D01*
X45084998Y-47935252D01*
X45084998Y-48043476D01*
X43795705Y-49332769D01*
X43779923Y-49345721D01*
X24644473Y-68481171D01*
X24458398Y-68295096D01*
X24314580Y-68199000D01*
X24458398Y-68102904D01*
X24668904Y-67892398D01*
X24834297Y-67644869D01*
X24948222Y-67369830D01*
X25006300Y-67077850D01*
X25006300Y-66780150D01*
X24948222Y-66488170D01*
X24834297Y-66213131D01*
X24668904Y-65965602D01*
X24458398Y-65755096D01*
X24314580Y-65659000D01*
X24458398Y-65562904D01*
X24668904Y-65352398D01*
X24834297Y-65104869D01*
X24948222Y-64829830D01*
X25006300Y-64537850D01*
X25006300Y-64240150D01*
X24948222Y-63948170D01*
X24834297Y-63673131D01*
X24668904Y-63425602D01*
X24458398Y-63215096D01*
X24295191Y-63106045D01*
X24362563Y-62896169D01*
X23495000Y-62028605D01*
X23480858Y-62042748D01*
X23301252Y-61863142D01*
X23315395Y-61849000D01*
X23674605Y-61849000D01*
X24542169Y-62716563D01*
X24793929Y-62635746D01*
X24922457Y-62367221D01*
X24996129Y-62078781D01*
X25012113Y-61781509D01*
X24969796Y-61486833D01*
X24870802Y-61206073D01*
X24793929Y-61062254D01*
X24542169Y-60981437D01*
X23674605Y-61849000D01*
X23315395Y-61849000D01*
X23301252Y-61834858D01*
X23480858Y-61655252D01*
X23495000Y-61669395D01*
X24362563Y-60801831D01*
X24295191Y-60591955D01*
X24458398Y-60482904D01*
X24668904Y-60272398D01*
X24805712Y-60067650D01*
X24883653Y-60059974D01*
X25027290Y-60016402D01*
X25159667Y-59945645D01*
X25275697Y-59850422D01*
X25299559Y-59821346D01*
X35818353Y-49302553D01*
X35847422Y-49278697D01*
X35875228Y-49244815D01*
X35942645Y-49162668D01*
X36013401Y-49030291D01*
X36013402Y-49030290D01*
X36056974Y-48886653D01*
X36068000Y-48774701D01*
X36068000Y-48774698D01*
X36071686Y-48737275D01*
X36068000Y-48699852D01*
X36068000Y-46670630D01*
X36107000Y-46631630D01*
X36107000Y-46736002D01*
X36271185Y-46736002D01*
X36150519Y-46965891D01*
X36247843Y-47240252D01*
X36396822Y-47490355D01*
X36591731Y-47706588D01*
X36825080Y-47880641D01*
X37087901Y-48005825D01*
X37235110Y-48050476D01*
X37465000Y-47929155D01*
X37465000Y-46736000D01*
X37719000Y-46736000D01*
X37719000Y-47929155D01*
X37948890Y-48050476D01*
X38096099Y-48005825D01*
X38358920Y-47880641D01*
X38592269Y-47706588D01*
X38787178Y-47490355D01*
X38862000Y-47364745D01*
X38936822Y-47490355D01*
X39131731Y-47706588D01*
X39365080Y-47880641D01*
X39627901Y-48005825D01*
X39775110Y-48050476D01*
X40005000Y-47929155D01*
X40005000Y-46736000D01*
X40259000Y-46736000D01*
X40259000Y-47929155D01*
X40488890Y-48050476D01*
X40636099Y-48005825D01*
X40898920Y-47880641D01*
X41132269Y-47706588D01*
X41327178Y-47490355D01*
X41402000Y-47364745D01*
X41476822Y-47490355D01*
X41671731Y-47706588D01*
X41905080Y-47880641D01*
X42167901Y-48005825D01*
X42315110Y-48050476D01*
X42545000Y-47929155D01*
X42545000Y-46736000D01*
X40259000Y-46736000D01*
X40005000Y-46736000D01*
X37719000Y-46736000D01*
X37465000Y-46736000D01*
X37445000Y-46736000D01*
X37445000Y-46482000D01*
X37465000Y-46482000D01*
X37465000Y-46462000D01*
X37719000Y-46462000D01*
X37719000Y-46482000D01*
G37*
X37719000Y-46482000D02*
X40005000Y-46482000D01*
X40005000Y-46462000D01*
X40259000Y-46462000D01*
X40259000Y-46482000D01*
X42545000Y-46482000D01*
X42545000Y-46462000D01*
X42799000Y-46462000D01*
X42799000Y-46482000D01*
X45085000Y-46482000D01*
X45085000Y-46462000D01*
X45339000Y-46462000D01*
X45339000Y-46482000D01*
X45359000Y-46482000D01*
X45359000Y-46736000D01*
X45339000Y-46736000D01*
X45339000Y-46756000D01*
X45085000Y-46756000D01*
X45085000Y-46736000D01*
X42799000Y-46736000D01*
X42799000Y-47929155D01*
X43028890Y-48050476D01*
X43176099Y-48005825D01*
X43438920Y-47880641D01*
X43672269Y-47706588D01*
X43748034Y-47622534D01*
X43772498Y-47703180D01*
X43831463Y-47813494D01*
X43910815Y-47910185D01*
X44007506Y-47989537D01*
X44117820Y-48048502D01*
X44237518Y-48084812D01*
X44362000Y-48097072D01*
X44926250Y-48094000D01*
X45084998Y-47935252D01*
X45084998Y-48043476D01*
X43795705Y-49332769D01*
X43779923Y-49345721D01*
X24644473Y-68481171D01*
X24458398Y-68295096D01*
X24314580Y-68199000D01*
X24458398Y-68102904D01*
X24668904Y-67892398D01*
X24834297Y-67644869D01*
X24948222Y-67369830D01*
X25006300Y-67077850D01*
X25006300Y-66780150D01*
X24948222Y-66488170D01*
X24834297Y-66213131D01*
X24668904Y-65965602D01*
X24458398Y-65755096D01*
X24314580Y-65659000D01*
X24458398Y-65562904D01*
X24668904Y-65352398D01*
X24834297Y-65104869D01*
X24948222Y-64829830D01*
X25006300Y-64537850D01*
X25006300Y-64240150D01*
X24948222Y-63948170D01*
X24834297Y-63673131D01*
X24668904Y-63425602D01*
X24458398Y-63215096D01*
X24295191Y-63106045D01*
X24362563Y-62896169D01*
X23495000Y-62028605D01*
X23480858Y-62042748D01*
X23301252Y-61863142D01*
X23315395Y-61849000D01*
X23674605Y-61849000D01*
X24542169Y-62716563D01*
X24793929Y-62635746D01*
X24922457Y-62367221D01*
X24996129Y-62078781D01*
X25012113Y-61781509D01*
X24969796Y-61486833D01*
X24870802Y-61206073D01*
X24793929Y-61062254D01*
X24542169Y-60981437D01*
X23674605Y-61849000D01*
X23315395Y-61849000D01*
X23301252Y-61834858D01*
X23480858Y-61655252D01*
X23495000Y-61669395D01*
X24362563Y-60801831D01*
X24295191Y-60591955D01*
X24458398Y-60482904D01*
X24668904Y-60272398D01*
X24805712Y-60067650D01*
X24883653Y-60059974D01*
X25027290Y-60016402D01*
X25159667Y-59945645D01*
X25275697Y-59850422D01*
X25299559Y-59821346D01*
X35818353Y-49302553D01*
X35847422Y-49278697D01*
X35875228Y-49244815D01*
X35942645Y-49162668D01*
X36013401Y-49030291D01*
X36013402Y-49030290D01*
X36056974Y-48886653D01*
X36068000Y-48774701D01*
X36068000Y-48774698D01*
X36071686Y-48737275D01*
X36068000Y-48699852D01*
X36068000Y-46670630D01*
X36107000Y-46631630D01*
X36107000Y-46736002D01*
X36271185Y-46736002D01*
X36150519Y-46965891D01*
X36247843Y-47240252D01*
X36396822Y-47490355D01*
X36591731Y-47706588D01*
X36825080Y-47880641D01*
X37087901Y-48005825D01*
X37235110Y-48050476D01*
X37465000Y-47929155D01*
X37465000Y-46736000D01*
X37719000Y-46736000D01*
X37719000Y-47929155D01*
X37948890Y-48050476D01*
X38096099Y-48005825D01*
X38358920Y-47880641D01*
X38592269Y-47706588D01*
X38787178Y-47490355D01*
X38862000Y-47364745D01*
X38936822Y-47490355D01*
X39131731Y-47706588D01*
X39365080Y-47880641D01*
X39627901Y-48005825D01*
X39775110Y-48050476D01*
X40005000Y-47929155D01*
X40005000Y-46736000D01*
X40259000Y-46736000D01*
X40259000Y-47929155D01*
X40488890Y-48050476D01*
X40636099Y-48005825D01*
X40898920Y-47880641D01*
X41132269Y-47706588D01*
X41327178Y-47490355D01*
X41402000Y-47364745D01*
X41476822Y-47490355D01*
X41671731Y-47706588D01*
X41905080Y-47880641D01*
X42167901Y-48005825D01*
X42315110Y-48050476D01*
X42545000Y-47929155D01*
X42545000Y-46736000D01*
X40259000Y-46736000D01*
X40005000Y-46736000D01*
X37719000Y-46736000D01*
X37465000Y-46736000D01*
X37445000Y-46736000D01*
X37445000Y-46482000D01*
X37465000Y-46482000D01*
X37465000Y-46462000D01*
X37719000Y-46462000D01*
X37719000Y-46482000D01*
%TD*%
M02*
